<?xml version="1.0" standalone="no"?>
<!DOCTYPE svg PUBLIC "-//W3C//DTD SVG 1.1//EN" "http://www.w3.org/Graphics/SVG/1.1/DTD/svg11.dtd" >
<svg xmlns="http://www.w3.org/2000/svg" xmlns:xlink="http://www.w3.org/1999/xlink" version="1.1">
<metadata>
Created by FontForge 20170924 at Fri Nov 23 23:47:53 2018
 By www-data
18 Khebrat Musamim
</metadata>
<defs>
<font id="18KhebratMusamimBold" horiz-adv-x="860" >
  <font-face 
    font-family="18 Khebrat Musamim"
    font-weight="700"
    font-stretch="normal"
    units-per-em="2048"
    panose-1="0 0 0 0 0 0 0 0 0 0"
    ascent="1638"
    descent="-410"
    x-height="1107"
    cap-height="1402"
    bbox="-177 -1008 2978 2168"
    underline-thickness="100"
    underline-position="-800"
    unicode-range="U+0020-FEFC"
  />
<missing-glyph horiz-adv-x="1024" 
 />
    <glyph glyph-name="OE" unicode="&#xfebb;&#xfee0;&#xfef0;&#x20;&#xfe8d;&#xfdf2;" horiz-adv-x="2507" 
d="M190 1630q-60 14 -48 59q30 26 56 -4q21 -33 -8 -55zM2326 -90q0 -27 -20 -47t-47 -20q-28 0 -48 21q-19 19 -19 46q0 48 35 95q34 47 99 62v-157zM2258 948h-216q41 220 198 238l2 1h16q50 -3 81 -37q33 -34 33 -83q0 -47 -33 -82q-32 -34 -81 -37zM596 644q11 12 23 12
q17 0 37 -19q22 -18 22 -35t-33 -17q-59 0 -59 34q0 12 10 25zM155 1549q41 28 76 81q17 25 17 80q-1 55 -59 46q-34 -6 -59 -42q-26 -37 -28 -60q-8 -52 32 -68q-34 -29 -43 -32q-7 -4 -46 -30q-25 -17 -16 -19q6 -1 24 3q59 15 102 41zM2259 -271q9 0 31 2
q-41 -53 -107 -73q-63 -22 24 -80l-87 -42q135 -1 226 85q92 87 95 222v356q-120 0 -202 -41q-80 -41 -121 -106t-41 -142q0 -74 53 -129q52 -52 129 -52zM2234 1301q-109 -7 -195 -93v93q-48 0 -49 -82q-66 15 -66 -32v-239h-67v-114h404q96 5 162 72q65 67 65 161t-65 164
q-67 67 -162 70h-27zM563 591q0 -62 59 -62q36 0 64 26q26 29 26 64q0 34 -22 57q-19 24 -49 24q-34 0 -55 -32q-23 -35 -23 -77zM204 1394q87 43 220 43v-284l1 -2v-44q0 -28 19 -47q20 -20 47 -20h2q28 0 48 20q20 19 20 47v324q0 48 81 23q-13 93 34 93v-440
q0 -28 19 -47q20 -20 49 -20h2q27 0 47 20t20 47v410q0 47 77 5q-10 109 38 109v-524q0 -74 -53 -129q-53 -52 -129 -52h-14q-69 5 -113 49q-52 -49 -126 -49h-2q-75 0 -130 52q-53 55 -53 129v201q-166 -48 -166 -185q0 -34 25 -58q25 -25 59 -25q47 0 36 -68q78 1 78 -46
h-114q-83 0 -141 58t-58 139q0 84 44 155t133 116zM2392 1637q8 -13 12 -25q4 -21 3 -37q-2 -17 -7 -28q-5 -13 -13 -24q5 25 -1 39q-4 14 -16 28q0 2 -1 2q-6 13 -9 22q-4 13 -5 25q-9 -38 -1 -64q7 -25 21 -47q21 -27 30 -72q3 -42 -7 -69q-9 -30 -32 -65q-6 36 -20 61
q-15 24 -39 48q0 -7 -1 -10q0 -5 -2 -7q-1 -2 -6 -4q-6 -2 -17 14q-12 15 -20 36q-10 21 -12 35q-1 15 10 12q31 -9 51 -29q21 -21 36 -42q14 -22 27 -54q10 34 1 61q-7 24 -21 49q-18 30 -24 68q-3 40 7 74q13 34 35 67q3 -28 8 -38q8 -18 13 -26zM1717 1474q-4 25 10 45
q15 19 40 25l470 81q0 -5 -1 -11l-1 -11l-9 -18q-6 -10 -18 -18q-11 -8 -29 -11zM1769 1707l623 109q0 -12 -3 -21q-4 -11 -9 -19q-6 -10 -18 -19q-11 -8 -31 -13l-617 -109q-4 25 11 46q17 20 44 26zM1292 1616q0 -8 6 -14q5 -6 12 -6q8 0 14 6q5 7 5 14v44q0 16 10 26
q10 11 25 11v-74q0 -7 6 -12q6 -6 13 -6q9 0 13 6q5 4 5 12v59q0 14 12 24q11 12 24 12v-100q0 -21 -13 -34q-14 -14 -34 -14h-13q-13 0 -24 6q-18 -16 -36 -16h-14q-19 0 -34 15q-14 16 -14 34v41q0 14 11 25q13 11 26 11v-70zM1232 111q0 29 20 48q20 20 47 20
q28 0 48 -20q20 -19 20 -48q0 -28 -20 -47q-20 -20 -48 -20q-27 0 -47 20q-20 19 -20 47zM1289 560q18 -2 34 13q-5 -24 -28 -48q-23 -20 -45 -13q-33 20 -21 66q10 44 46 91q2 3 5 5l11 6q-27 -37 -33 -84q-3 -19 8 -27q8 -9 23 -9zM1253 1760l209 36q0 -11 -2 -14
q0 -6 -5 -13q-6 -7 -13 -13q-3 -3 -9 -5l-10 -3l-206 -37q-2 19 8 31q9 13 28 18zM1081 111q0 28 20 48t48 20q26 0 48 -20q19 -19 19 -48q0 -28 -19 -47q-22 -20 -48 -20q-28 0 -48 20t-20 47zM1037 1728q0 66 73 60q-7 98 41 98v-578q-66 -23 -114 -68v488zM1902 292
q-72 2 -121 49q-53 -49 -127 -49h-56q-72 0 -125 49q-50 -49 -124 -49h-318v114h318q28 0 47 19q20 20 20 49v171q0 48 77 38q-10 77 40 77v-286q0 -29 20 -49q21 -19 45 -19h56q28 0 49 19q19 19 19 49v781q0 47 65 6q2 109 51 109v-896q0 -30 19 -49q21 -19 49 -19h71
q-33 54 -33 120q0 97 65 162q66 66 162 72l30 -2q148 -9 242 -160l-91 32q-12 -61 -70 -20q-40 31 -91 34l-18 1q-48 -3 -81 -36q-32 -33 -33 -81q0 -50 34 -84q33 -33 85 -38h192q48 0 81 -33q34 -36 34 -81h-583zM1325 1301h64v-286q0 -26 17 -45q18 -19 43 -22h15
q26 0 48 20q20 20 20 47v759q0 47 69 17q-3 97 46 97v-873q0 -24 15 -42q14 -18 40 -24v-115q-66 4 -113 48q-52 -48 -125 -48h-8q-78 0 -130 52q-54 54 -54 129v163l-24 -3q-11 -2 -18 -4q-67 -20 -99 -65q-34 -43 -34 -92q0 -21 12 -39q14 -16 33 -24l14 -3h7q58 0 92 -38
q34 -39 37 -89t-38 -91q-93 -92 -229 -89q-109 5 -185 70q-77 65 -104 167l6 1q35 18 80 -59q30 58 53 24q50 -77 145 -89q93 -5 152 56q6 6 3 14t-12 10h-18q-9 0 -11 1q-69 11 -110 61q-42 51 -42 117q0 110 86 194q85 84 257 93zM667 104q0 -5 5 -12q6 -6 13 -6t13 6
q5 7 5 12v45q0 17 12 27q11 11 25 11v-75q0 -7 6 -12q5 -6 11 -6q10 0 14 6q5 5 5 12v58q0 14 11 25q10 10 26 10v-99q0 -18 -14 -34q-14 -14 -34 -14h-13q-16 0 -25 8q-15 -17 -36 -17h-12q-20 0 -34 15q-14 14 -14 35v39q0 15 11 26q10 10 25 10v-70zM555 1639q0 -9 5 -14
t13 -5t13 5q4 5 4 14v46q0 14 11 25q11 10 27 10v-72q0 -9 6 -14q5 -5 12 -5q8 0 13 5t5 14v57q0 14 11 25q13 11 25 11v-100q0 -20 -14 -34t-34 -14h-11q-14 0 -26 7q-15 -16 -35 -16h-13q-20 0 -34 14t-14 34v41q0 15 11 25q11 11 25 11v-70zM397 1795l413 72q0 -5 -1 -11
l-1 -8q-2 -6 -9 -16t-15 -17l-11 -5q-8 -3 -16 -4l-405 -72q-3 23 9 39q15 16 36 22zM373 1686l6 1q-25 -35 -31 -74q-1 -18 7 -25q7 -8 21 -8q17 -1 30 12q-4 -23 -24 -43q-21 -21 -42 -12q-29 17 -18 58q9 42 41 82zM2009 -98q0 -71 -50 -123q-52 -50 -122 -50
q-66 0 -116 44q-50 -44 -116 -44q-67 0 -117 47q-43 -40 -108 -46v-1h-309q-75 0 -125 49q-52 -49 -125 -49h-135q-73 0 -125 49q-58 -55 -145 -48q-71 9 -116 62q-44 53 -44 122v147h7q46 -3 49 -84q58 21 58 -23v-38q0 -38 35 -64q37 -18 68 4t31 54q0 74 -64 126
q-66 52 -155 46q-39 -4 -68 -33q-27 -28 -27 -70v-443q-20 0 -44 86q-32 -65 -51 -38q-21 29 -21 74v323q0 88 62 152q63 61 155 64q165 -5 246 -94q82 -86 82 -193q0 -27 20 -47t47 -20h135q26 0 48 20q20 20 20 47v579q0 46 73 9q-6 105 42 105v-693q0 -28 19 -47
q20 -20 48 -20h294q27 0 49 20q19 19 19 47v57q0 46 77 39q-9 77 38 77v-181q0 -23 17 -42q17 -17 40 -17q24 0 41 17q17 19 17 42v144q0 47 76 42q-7 73 40 73v-259q0 -25 16 -42q19 -17 42 -17q22 0 41 17q16 17 16 42v180q0 49 70 32q0 85 45 85v-297zM204 759
q89 45 220 45v-286l1 -1v-43q0 -29 19 -48q19 -18 47 -20h375v-114h-376q-78 2 -129 54q-53 53 -53 128v201q-166 -50 -166 -185q0 -35 25 -60q24 -24 59 -24q47 0 33 -80q81 13 81 -34h-114q-83 0 -141 58t-58 140q0 81 44 154q45 70 133 115z" />
    <glyph glyph-name="uniFDF2" unicode="&#xfedf;&#xfee0;&#xfeea;" horiz-adv-x="2006" arabic-form="isolated" 
d="M1933 371q-5 -169 -119 -283q-115 -115 -280 -115q-163 0 -261 96q-97 -96 -261 -96q-165 0 -279 115q-114 112 -120 283v328q-265 -78 -265 -318q0 -55 39 -94t64 -39q102 0 92 -143q156 -2 156 -132h-248q-139 0 -259 120q-119 121 -119 288q0 166 90 310
q88 143 265 231q176 87 461 87v-638q2 -53 37 -87q35 -36 86 -36t87 36q36 37 37 87v595q0 103 167 82q-21 166 108 166v-843q2 -53 37 -87q35 -36 86 -36t87 36q36 37 37 87v757q0 106 171 65q-25 188 104 188v-1010zM1403 1586q-25 -32 -45 -61q40 -89 43 -118
q-4 -5 -13 -9q-9 -3 -16 -3q-19 0 -39 13q-40 18 -45 110l-3 3q-16 -10 -29 -23q-2 -1 -4 -4q0 1 -2 -2l-2 -2l3 -80q0 -16 -11 -36q-12 -19 -42 -19q-37 0 -39 60q0 32 10 65l-4 2q-22 -12 -43 -28q-9 -37 -9 -75q0 -51 16 -84q20 -35 64 -35q51 0 106 66h4q31 -22 74 -22
q46 0 68 63q8 29 6 57v8q0 47 -43 154h-5zM1289 1926v-1l-6 -3q-5 -2 -11 -6q-4 -3 -11 -10q-11 -10 -22 -27q-9 -14 -14 -39q-1 -15 3 -28q40 -104 43 -259q32 32 39 93q8 60 3 125q-2 30 -6 59l-7 52l-9 43z" />
    <glyph glyph-name="uniFEF5" unicode="&#xfedf;&#xfe82;" horiz-adv-x="1115" arabic-form="isolated" 
d="M506 1620q-53 -38 -118 -45q-66 -8 -140 -6q-35 1 -63 1q-34 -1 -63 -3q-64 -5 -122 -27q38 68 87 96q51 29 105 35q59 6 116 5q68 -3 143 8q73 11 137 59q-30 -86 -82 -123zM656 248q41 0 71 30q29 29 29 71t-30 70q-28 30 -70 30q-83 0 -165 -61q-80 -59 -100 -140h265
zM756 1269q0 103 159 69q-12 179 117 179v-728h-3q-6 -119 -84 -200q87 -88 87 -240q0 -156 -110 -266q-112 -110 -266 -110h-578q0 334 130 513q131 180 280 214l-349 397q-67 83 74 172q-128 107 -31 197l578 -659q-4 -5 -4 24v438z" />
    <glyph glyph-name="uniFEF6" unicode="&#xfee0;&#xfe82;" horiz-adv-x="1165" arabic-form="final" 
d="M451 1684q-75 -11 -143 -8q-57 1 -116 -5q-54 -6 -105 -35q-49 -28 -87 -96q58 22 122 27q29 2 63 3q28 0 63 -1q74 -2 140 6q65 7 118 45q52 37 82 123q-64 -48 -137 -59zM119 1114q-48 95 106 130q-97 154 18 220l420 -776q48 -94 20 -189q-29 -96 -144 -160zM1195 248
v-275h-51q-247 15 -328 196q-189 -196 -499 -196h-228q0 130 162 92q-16 183 85 183q185 12 307 139t127 314v568q0 103 73 176q10 -7 35 35q23 13 97 -179q6 216 70 216v-1167q0 -42 30 -72t72 -30h48z" />
    <glyph glyph-name="uniFEF7" unicode="&#xfedf;&#xfe84;" horiz-adv-x="1115" arabic-form="isolated" 
d="M531 1556q0 40 -29 71q-30 29 -72 29h-130q-19 0 -36 12q-16 10 -22 30q-7 29 11 52q17 22 45 22q40 0 76 -25q45 -28 94 -6l31 15q-35 58 -88 88q-53 29 -113 29q-66 0 -113 -47q-46 -46 -46 -116q2 -34 16 -65q-15 -9 -25 -18q-30 -30 -30 -71h431zM656 248q41 0 71 30
q29 29 29 71t-30 70q-28 30 -70 30q-83 0 -165 -61q-80 -59 -100 -140h265zM756 1269q0 103 175 78q-28 170 101 170v-728h-3q-6 -119 -84 -200q87 -88 87 -240q0 -156 -110 -266q-111 -110 -266 -110h-578q0 334 130 513q132 180 280 214l-349 397q-67 83 94 161
q-148 118 -51 208l578 -659q-4 -5 -4 24v438z" />
    <glyph glyph-name="uniFEF8" unicode="&#xfee0;&#xfe84;" horiz-adv-x="1165" arabic-form="final" 
d="M100 1556q0 41 30 71q10 9 25 18q-14 31 -16 65q0 70 46 116q47 47 113 47q59 0 112 -29q54 -31 89 -88l-31 -15q-49 -22 -94 6q-36 25 -76 25q-28 0 -46 -22q-17 -23 -10 -52q6 -20 22 -30q17 -12 36 -12h130q42 0 71 -29q30 -30 30 -71h-431zM119 1114q-48 95 130 94
q-121 190 -6 256l420 -776q49 -94 20 -189q-29 -96 -144 -160zM1195 248v-275h-51q-247 15 -328 196q-188 -196 -499 -196h-228q0 130 170 77q-24 198 77 198q183 12 307 139q123 129 127 314v568q0 103 73 176q14 14 23 19q35 29 107 -147q8 200 72 200v-1167q0 -42 30 -72
t72 -30h48z" />
    <glyph glyph-name="uniFEF9" unicode="&#xfedf;&#xfe88;" horiz-adv-x="1115" arabic-form="isolated" 
d="M732 -416q0 40 -29 71q-30 29 -72 29h-130q-19 0 -36 12q-16 10 -22 30q-7 29 11 52q17 22 45 22q40 0 76 -25q45 -28 94 -6l31 15q-35 58 -88 88q-53 29 -113 29q-66 0 -113 -47q-46 -46 -46 -116q2 -34 16 -65q-15 -9 -25 -18q-30 -30 -30 -71h431zM656 248q41 0 71 30
q29 29 29 71t-30 70q-28 30 -70 30q-83 0 -165 -61q-80 -59 -100 -140h265zM756 1269q0 103 171 42q-24 206 105 206v-728h-3q-6 -119 -84 -200q87 -88 87 -240q0 -156 -110 -266q-111 -110 -266 -110h-578q0 334 130 513q132 180 280 214l-349 397q-67 83 122 141
q-176 138 -79 228l578 -659q-4 -5 -4 24v438z" />
    <glyph glyph-name="uniFEFA" unicode="&#xfee0;&#xfe88;" horiz-adv-x="1165" arabic-form="final" 
d="M109 -416q0 41 30 71q10 9 25 18q-14 31 -16 65q0 70 46 116q47 47 113 47q59 0 112 -29q54 -31 89 -88l-31 -15q-49 -22 -94 6q-36 25 -76 25q-28 0 -46 -22q-17 -23 -10 -52q6 -20 22 -30q17 -12 36 -12h130q42 0 71 -29q30 -30 30 -71h-431zM119 1114q-48 95 154 114
q-145 170 -30 236l420 -776q49 -94 20 -189q-29 -96 -144 -160zM1195 248v-275h-51q-247 15 -328 196q-188 -196 -499 -196h-228q0 130 206 120q-60 155 41 155q183 12 307 139q123 129 127 314v568q0 103 73 176q14 14 23 19q35 29 99 -147q16 200 80 200v-1167
q0 -42 30 -72t72 -30h48z" />
    <glyph glyph-name="uniFEFB" unicode="&#xfedf;&#xfe8e;" horiz-adv-x="1115" arabic-form="isolated" 
d="M656 248q41 0 71 30q29 29 29 71t-30 70q-28 30 -70 30q-83 0 -165 -61q-80 -59 -100 -140h265zM756 1269q0 103 175 62q-28 186 101 186v-728h-3q-6 -119 -84 -200q87 -88 87 -240q0 -156 -110 -266q-111 -110 -266 -110h-578q0 334 130 513q132 180 280 214l-349 397
q-67 83 90 153q-144 126 -47 216l578 -659q-4 -5 -4 24v438z" />
    <glyph glyph-name="uniFEFC" unicode="&#xfee0;&#xfe8e;" horiz-adv-x="1165" arabic-form="final" 
d="M119 1114q-48 95 122 102q-113 182 2 248l420 -776q49 -94 20 -189q-29 -96 -144 -160zM1195 248v-275h-51q-247 15 -328 196q-188 -196 -499 -196h-228q0 130 178 96q-32 179 69 179q183 12 307 139q123 129 127 314v568q0 103 73 176q14 14 23 19q35 29 103 -147
q12 200 76 200v-1167q0 -42 30 -72t72 -30h48z" />
    <glyph glyph-name="uniFEAD_uniFEBF_uniFEF2_space_uniFE8D_uniFDF2_space_uniFECB_uniFEE8_uniFEEA.liga" unicode="&#xfead;&#xfebf;&#xfef2;&#x20;&#xfe8d;&#xfdf2;&#x20;&#xfecb;&#xfee8;&#xfeea;" horiz-adv-x="2998" 
d="M1153 1730q-63 15 -51 63q34 29 59 -5q24 -33 -8 -58zM2207 715q46 254 230 277l15 1l6 -1q58 -5 96 -43q37 -38 37 -95q0 -58 -37 -96q-39 -40 -96 -43h-251zM1393 380q0 -23 -39 -23q-69 0 -69 40q0 16 12 29q12 16 28 16q17 0 42 -23q26 -21 26 -39zM633 462
q45 49 44 106q-3 60 -43 103q-41 44 -107 44l-16 1l-7 2q-25 9 -39 28q-14 22 -14 47q0 55 39 107q40 52 115 74q18 4 47 9h3v-190q0 -88 60 -148q59 -61 150 -64h1596q112 6 189 84q75 78 75 189q0 110 -75 188t-189 84l-33 -1q-126 -9 -225 -108v109q-55 0 -56 -134
q-77 54 -77 1v-278h-1203q-32 0 -55 23t-23 55v334h-73q-199 -12 -299 -109q-101 -97 -101 -225q0 -77 50 -138q50 -57 127 -71q3 -1 5 -1q4 -1 9 -1l20 -1q11 0 15 -8q3 -11 -4 -18q-71 -70 -177 -64q-85 11 -140 67q-56 56 -64 142q-3 68 27 122q39 78 -51 64l22 107
q-135 -111 -132 -298q10 -141 106 -235q97 -95 237 -104q162 -2 267 106zM2307 1314q0 -34 24 -55q23 -23 56 -23q31 0 54 23q22 21 22 55q0 33 -22 55q-22 23 -54 23q-34 0 -56 -23q-24 -22 -24 -55zM1431 397q0 37 -24 67q-22 29 -58 29q-39 0 -64 -38q-26 -38 -26 -87
q0 -74 70 -74q43 0 73 32q29 29 29 71zM999 1616q-25 -16 -19 -18q7 -3 27 2q65 16 108 44q42 26 82 86q17 26 17 84q-2 60 -63 50q-36 -8 -62 -46q-29 -37 -30 -63q-8 -52 33 -72q-20 -18 -28 -24q-11 -9 -16 -10q-11 -4 -49 -33zM442 1311l-343 -118q-9 24 0 43
q7 21 26 28l349 121l2 -22q0 -8 -3 -19q-3 -9 -11 -19q-8 -9 -20 -14zM2978 1158v-412q0 -151 -108 -256q-108 -103 -257 -114l79 49q-87 63 14 116q138 66 138 205v277q0 56 91 35q-12 100 43 100zM2905 1311l-343 -118q-7 24 0 43q9 21 27 28l348 121l2 -22q0 -8 -3 -19
q-3 -9 -11 -19q-6 -9 -20 -14zM2203 1294q0 -55 -74 -50q-4 -83 -59 -83v462q0 59 93 19q-15 125 40 125v-473zM1813 305q-9 24 0 45q8 21 27 28l348 120l2 -21q0 -9 -3 -20q-3 -10 -11 -19q-7 -9 -20 -15zM1567 1947q0 90 -25 154l-1 9q-1 4 -1 8q3 13 9 22q5 11 12 17
l18 11q0 -5 6 -26q6 -37 7 -66q3 -42 -2 -74q-4 -35 -23 -55zM1590 1785q-37 -44 -70 -44q-31 0 -41 24q-13 22 -13 55q0 21 7 51l28 18l3 -2q-6 -21 -6 -43q0 -38 26 -38q19 0 27 11q8 13 8 25l-3 53q3 2 6 6q4 4 9 7l11 6l2 -1q3 -62 29 -72q13 -9 26 -9q7 0 10 2q5 1 8 6
q0 17 -28 78l23 31q5 5 8 9h3q28 -71 28 -101v-6q2 -20 -4 -38q-15 -41 -44 -41q-28 0 -50 13h-3zM1270 119q0 32 23 55q22 23 55 23t55 -23q24 -22 24 -55q0 -32 -24 -55q-23 -23 -55 -23t-55 23t-23 55zM1094 947q-95 0 -163 68q-67 67 -67 162q0 96 51 180q53 84 155 134
q102 51 256 51v-371q0 -37 27 -64q26 -26 63 -26t65 26q26 27 27 64v361q0 56 90 17q-12 118 43 118v-496q1 -36 28 -64q26 -26 64 -26q37 0 63 26q26 27 28 64v459q0 58 103 34q-24 103 31 103v-596q-2 -94 -67 -159t-158 -65t-158 65q-67 -65 -159 -65t-157 65
q-65 63 -68 159v221q-193 -57 -193 -215q0 -39 28 -68q28 -28 68 -28q56 0 28 -80q107 0 107 -54h-135zM2513 -110q56 0 32 -90q103 11 103 -43h-843q-81 4 -138 57q-62 -57 -144 -57h-356q-119 6 -175 68q-55 61 -55 144v232q-193 -55 -193 -213q0 -41 28 -69
q29 -29 69 -29q53 0 39 -90q94 12 94 -43h-133q-96 0 -164 68q-68 67 -68 163t52 178q51 83 154 135q106 52 256 52v-384q0 -32 24 -55q22 -22 72 -24h356q29 0 54 23q23 25 23 56v199q0 56 83 1q-5 133 51 133v-333q0 -31 23 -56q23 -23 56 -23h242q-38 65 -38 140
q0 111 76 188q77 78 188 84h9q17 0 25 -1q172 -11 283 -188l-104 43q-16 -76 -83 -28q-46 35 -106 38l-8 2h-11q-57 -3 -95 -41q-37 -39 -40 -95q1 -57 41 -98q39 -41 97 -44h224zM610 1381q-10 -3 -25 20q-17 22 -30 52q-15 33 -16 51q-3 21 14 18q41 -13 75 -42
q31 -26 53 -60q18 -30 39 -79q13 50 1 87q-9 32 -31 71q-29 48 -37 101q-3 57 13 106q14 43 50 99q3 -33 12 -56q9 -22 19 -37q13 -19 17 -37q7 -27 5 -54q-3 -25 -10 -40q-5 -15 -19 -36q6 36 -2 58q-9 22 -22 40l-2 3q-10 14 -15 32q-5 15 -6 36q-14 -58 -2 -94
q10 -33 31 -66q31 -42 43 -107q6 -55 -8 -100q-14 -44 -47 -94q-11 55 -31 90q-21 35 -57 69q2 -9 0 -14q0 -4 -4 -10q-1 -5 -8 -7zM468 290q34 0 54 -23q24 -22 24 -54q0 -33 -24 -56q-21 -23 -54 -23q-32 0 -55 23q-23 22 -23 56q0 32 23 54q22 23 55 23zM294 290
q31 0 54 -23t23 -54q0 -33 -23 -56q-25 -23 -54 -23q-32 0 -57 23q-22 22 -22 56q0 32 22 54q23 23 57 23z" />
    <glyph glyph-name="uniFEAD_uniFEBF_uniFEF2_space_uniFE8D_uniFDF2_space_uniFECB_uniFEE8_uniFEEC_uniFE8E.liga" unicode="&#xfead;&#xfebf;&#xfef2;&#x20;&#xfe8d;&#xfdf2;&#x20;&#xfecb;&#xfee8;&#xfeec;&#xfe8e;" horiz-adv-x="2986" 
d="M1156 -142q-33 2 -53 23q-21 21 -21 52t21 53q20 21 53 23h12q104 -11 142 -152h-151zM1098 1784q33 28 58 -6q24 -34 -8 -58q-64 14 -50 64zM2199 710q47 254 230 275l19 1q59 -5 96 -43q38 -40 38 -95q0 -56 -38 -96q-39 -39 -96 -42h-249zM2322 1251q23 -23 55 -23
t55 23t23 55t-23 55t-55 23t-55 -23t-23 -55t23 -55zM977 1589q4 -1 11 0q7 0 16 2q65 17 107 44q44 29 81 85q19 26 17 85q0 60 -62 49q-34 -7 -63 -45q-26 -37 -28 -63q-9 -54 32 -72q-34 -31 -44 -34q-9 -4 -49 -33q-25 -16 -18 -18zM675 564q-3 59 -43 102
q-41 44 -107 44h-2q-4 0 -6 1q-5 0 -8 1q-5 0 -7 1q-22 7 -38 28q-16 19 -16 46q0 55 40 107q39 50 114 73q21 5 48 9q1 0 2 1v-189q0 -86 60 -148q59 -61 149 -64h1591q111 6 188 84q75 77 75 188q0 110 -75 188q-77 77 -188 83h-8q-17 0 -25 -1q-126 -8 -224 -107v108
q-55 0 -50 -106q-84 28 -84 -27v-276h-1197q-32 0 -55 23t-23 55v332h-73q-197 -10 -298 -108q-100 -97 -100 -225q0 -77 50 -136q49 -58 127 -72q3 -1 13 -1h20q11 -2 15 -10q3 -10 -4 -17q-70 -69 -177 -64q-84 9 -139 67q-57 58 -64 140q-3 68 27 123q39 76 -46 55
l17 114q-134 -110 -131 -295q11 -141 106 -235q94 -94 235 -103q162 -2 267 104q46 48 44 107zM2771 -276q0 55 -110 46q32 87 -24 87h-221l-2 1q-58 3 -97 43q-38 39 -40 97q1 56 40 95q37 37 93 40l11 1l9 -1q59 -4 106 -39q67 -48 66 32l120 -46q-109 176 -282 186
q-8 1 -25 1h-8q-113 -6 -188 -83q-75 -78 -75 -188q0 -77 37 -139h-99q-31 0 -54 23t-23 55v332q-56 0 -40 -118q-94 40 -94 -15v-199q0 -32 -23 -55t-55 -23h-105q-35 238 -153 356q-119 118 -275 127q-20 2 -30 2l-10 -1q-141 -8 -230 -100l126 1q-28 -73 33 -50
q37 15 74 16l28 -1q246 -27 302 -350h-107q-28 138 -102 209q-73 70 -166 76q-5 1 -10 1h-16q-85 -4 -145 -64q-58 -59 -58 -146q0 -39 14 -76h-111q-32 0 -55 23t-23 55v473q-55 0 -31 -118q-103 40 -103 -15v-340q0 -87 62 -149t150 -62h941q84 0 145 57q62 -57 144 -57
h689zM620 1391l-3 -11q-4 -6 -9 -7q-10 -1 -26 20q-14 20 -29 52q-15 33 -16 51q-3 21 13 18q45 -14 76 -42q29 -26 52 -61q18 -28 30 -55q8 -16 9 -21l1 -2q12 49 1 88q-12 38 -31 70q-28 42 -37 100q-3 60 12 106q15 47 33 72l18 26q3 -34 12 -55q7 -22 18 -37
q11 -19 17 -38q7 -26 5 -53q-3 -26 -10 -41q0 -1 -1 -2t-1 -2l-2 -4q-1 -4 -3 -7q-3 -7 -6 -11l-6 -9q6 35 -2 58q-6 17 -22 40q0 1 -1 2q0 1 -1 1q-11 17 -15 32q-4 13 -4 26q-1 2 -1 6v4q-14 -58 -2 -93q9 -32 31 -67q30 -41 42 -106q6 -58 -7 -100q-13 -41 -31 -69
l-17 -25q-10 54 -30 90q-22 37 -39 52l-11 10q-2 3 -6 6zM859 325q-8 24 0 44q8 21 26 28l245 91l1 -6q1 -3 1 -7v-8q0 -8 -3 -19t-10 -19q-7 -9 -21 -15zM2195 1287q0 -55 -66 -31q-12 -103 -68 -103v461q0 61 87 35q-8 109 47 109v-471zM1536 2090q-3 9 -2 17q3 12 9 23
q6 9 13 16l12 9l5 2l6 -26q6 -35 7 -65q3 -35 -2 -74q-4 -35 -23 -55q-2 93 -25 153zM1472 1755q-11 24 -11 56q0 26 7 50q11 9 28 18l2 -2q-6 -21 -6 -43q0 -39 25 -39q21 0 28 13q8 13 8 23l-2 54q2 1 6 5q8 8 18 15l3 -2q3 -61 29 -73q14 -9 26 -9q6 0 10 3q5 1 9 5
q-1 18 -29 79l30 40h4q28 -71 28 -102v-5q1 -15 -4 -38q-15 -41 -45 -41q-26 0 -49 14h-3q-38 -44 -70 -44q-30 0 -42 23zM1090 940q-94 0 -162 68t-68 162q0 97 52 179q53 84 154 134q102 51 254 51v-369q2 -40 27 -65q26 -26 64 -26t64 26q25 25 27 65v359q0 55 86 19
q-8 114 47 114v-492q1 -38 28 -65q26 -26 63 -26q38 0 64 26q25 25 27 65v457q0 56 98 13q-20 123 36 123v-593q-3 -96 -67 -160q-65 -65 -158 -65q-92 0 -157 65q-67 -65 -158 -65q-92 0 -157 65q-66 66 -67 160v219q-193 -55 -193 -214q0 -39 28 -67q29 -29 68 -29
q56 0 43 -71q91 -7 91 -63h-134zM99 1185q-7 24 0 45q8 20 26 27l347 119l1 -5q1 -3 1 -7l-1 -17l-2 -10q-3 -12 -10 -20q-8 -10 -21 -14zM2082 302q-8 24 0 44t26 27l347 120l1 -6q1 -3 1 -7l-1 -17l-2 -10q-3 -11 -10 -19q-7 -9 -21 -15zM2553 1185q-7 24 0 45q8 20 26 27
l347 119l1 -5q1 -3 1 -7v-8q0 -8 -3 -19q-3 -12 -10 -20q-8 -10 -21 -14zM2967 749h-1l1 -8q0 -150 -107 -254q-108 -103 -237 -118l55 76q-83 40 18 90q137 68 137 206v276q0 55 79 32q-1 102 55 102v-402zM537 249q22 -22 22 -56q0 -33 -22 -55q-23 -23 -56 -23
q-31 0 -54 23t-23 55q0 33 23 56q22 22 54 22q34 0 56 -22zM363 249q22 -22 22 -56q0 -33 -22 -55q-23 -23 -56 -23q-32 0 -55 23t-23 55q0 33 23 56q22 22 55 22q34 0 56 -22zM1676 382q23 23 55 23t55 -23t23 -55t-23 -55t-55 -23t-55 23t-23 55t23 55z" />
    <glyph glyph-name="uniFEAD_uniFEBF_uniFEF2_space_uniFE8D_uniFDF2_space_uniFECB_uniFEE8_uniFEEC_uniFEE4_uniFE8E.liga" unicode="&#xfead;&#xfebf;&#xfef2;&#x20;&#xfe8d;&#xfdf2;&#x20;&#xfecb;&#xfee8;&#xfeec;&#xfee4;&#xfe8e;" horiz-adv-x="2809" 
d="M1265 431q29 22 7 53q-23 32 -54 6q-12 -45 47 -59zM1081 1712q29 22 7 54q-24 32 -55 5q-12 -46 48 -59zM2285 1020q-173 -19 -216 -259h229l5 1q54 3 90 40q36 36 36 89t-36 90t-90 40zM1318 -8q-30 -1 -49 -21q-20 -22 -20 -50q0 -29 20 -49q19 -21 49 -22l3 -1h141
q-35 132 -133 143h-11zM906 -129q21 21 21 51q0 51 -38 103q-39 51 -107 67v-170q0 -30 21 -51t51 -21q29 0 52 21zM1620 442q0 17 -23 37q-24 21 -40 21t-26 -14q-11 -14 -11 -28q0 -36 65 -36q35 0 35 20zM601 1398q17 -17 36 -49q17 -30 29 -84l16 24q14 19 29 64
q13 40 7 94q-13 64 -40 100q-18 26 -29 63q-11 34 1 87l1 -14q1 -4 1 -6l4 -14q5 -17 13 -30l1 -1q0 -1 1 -2q12 -16 21 -37q7 -22 2 -55l6 9q5 8 13 25q6 18 8 38q1 24 -4 50q-5 16 -17 35q-10 16 -17 35q-9 21 -11 52l-16 -24q-20 -29 -31 -68q-16 -45 -11 -100
q7 -53 34 -94q19 -33 29 -66t-1 -82l-7 15q-1 3 -2 7q-10 23 -28 51t-49 57q-30 27 -71 39q-17 4 -13 -16q1 -19 15 -48q11 -27 27 -49q14 -20 25 -19q4 1 8 7l3 10q1 3 1 9q-1 0 -1 2zM1994 551l-8 -3q-3 -2 -10 -9q-39 -49 -50 -98q-12 -50 23 -73q25 -7 49 16
q23 22 31 51q-18 -16 -37 -15q-17 2 -26 11q-11 10 -9 29q7 49 37 91zM1939 1179q52 0 46 81q80 -8 80 44v443q-52 0 -46 -99q-80 20 -80 -36v-433zM1445 2060q22 -58 24 -145q17 19 22 52q3 29 2 69q-4 42 -7 62l-6 24l-4 -1l-12 -9q-8 -6 -12 -15q-7 -10 -8 -22
q-1 -3 -1 -7zM1425 1722q31 0 66 42h2q20 -13 46 -13q27 0 43 38q4 20 3 36v5q0 26 -26 95h-3l-28 -37q24 -57 26 -74q-4 -3 -8 -5q-6 -2 -10 -2q-10 0 -24 8q-24 11 -27 69l-3 1q-5 -3 -10 -7l-13 -12l3 -50q0 -11 -8 -22q-8 -12 -26 -12q-24 0 -24 37q0 21 6 40l-2 2
q-9 -5 -27 -17q-6 -24 -6 -47q0 -29 11 -53q10 -22 39 -22zM874 1043q62 -64 152 -64h126q0 51 -104 37q30 88 -22 88q-38 0 -63 27q-27 26 -27 64q0 149 181 201v-207q1 -89 63 -149q61 -61 148 -61q86 0 148 60q61 -60 148 -60q88 0 149 61q60 61 62 149v558
q-53 0 -45 -100q-80 26 -80 -28v-430q-2 -37 -25 -60q-25 -25 -61 -25t-59 25q-25 23 -26 60v464q-52 0 -42 -116q-84 42 -84 -10v-338q-2 -37 -25 -60q-25 -25 -60 -25t-60 25q-25 23 -26 60v347q-142 0 -238 -48q-97 -47 -145 -125q-49 -77 -49 -168q0 -89 64 -152z
M415 1319q11 4 20 14q6 8 9 18l2 16v9v7l-1 5l-326 -112q-18 -7 -25 -26q-8 -19 0 -41zM2130 370q-18 -7 -25 -26q-8 -19 0 -42l225 84q11 5 20 15q6 8 9 18q3 9 3 18l-1 7v7l-1 5zM2722 1319q11 4 20 14q6 7 10 18l1 9q1 5 1 9l-1 7v7l-1 5l-326 -112q-18 -7 -25 -26
q-8 -19 0 -41zM2790 1176q-52 0 -57 -103q-68 30 -68 -22v-260q0 -130 -129 -193q-95 -48 -28 -98l-67 -44q148 -1 249 96q100 97 100 239v385zM879 483q-22 -22 -22 -53q0 -30 22 -51q20 -22 52 -22q30 0 52 22q21 21 21 51q0 31 -21 53q-23 21 -52 21q-31 0 -52 -21z
M716 483q-22 -22 -22 -53q0 -30 22 -51q20 -22 51 -22q30 0 52 22q21 21 21 51q0 31 -21 53q-23 21 -52 21q-30 0 -51 -21zM1740 343q-22 -22 -22 -52t22 -51q20 -22 51 -22t53 22q21 21 21 51t-21 52q-23 21 -53 21t-51 -21zM2185 1271q20 -22 51 -22t52 22q21 21 21 51
q0 31 -21 52t-52 21q-30 0 -51 -21q-22 -21 -22 -52q0 -30 22 -51zM1634 521q23 -29 23 -63q0 -38 -28 -67q-29 -29 -68 -29q-66 0 -66 68q0 47 25 82q24 36 59 36q32 0 55 -27zM1168 356q8 3 41 32q-38 17 -30 66q1 26 26 59q25 34 59 42q56 9 58 -46q0 -55 -17 -78
q-36 -55 -75 -80q-44 -27 -100 -40q-18 -4 -25 -3q-5 1 17 17q36 26 46 31zM937 1605q36 28 46 31q8 3 41 32q-38 17 -30 68q1 23 27 59q25 36 58 42q57 9 59 -46q1 -54 -16 -79q-37 -55 -76 -81q-42 -26 -101 -41q-21 -3 -25 -2q-6 1 17 17zM495 761q62 0 100 -41
q38 -42 40 -95q1 -56 -41 -101q-100 -99 -250 -98q-132 9 -222 98q-90 88 -100 220q-2 175 124 278l-7 -110q71 21 34 -50q-29 -52 -25 -115q7 -78 60 -132q52 -54 131 -63q100 -4 166 60q7 7 4 17q-5 8 -14 8h-10q-5 0 -9 1q-10 0 -13 1q-74 14 -119 68q-47 55 -47 127
q0 120 95 212q93 90 279 101h69v-312q0 -31 22 -52q20 -22 51 -22h1126v260q0 52 76 22q-2 104 50 104v-103q92 94 210 101q16 2 24 2l8 -1q105 -5 176 -78q71 -74 71 -177q0 -102 -71 -176q-70 -73 -176 -79h-1505q-81 8 -133 63q-54 56 -54 136v178q-1 -1 -3 -1
q-12 -1 -24 -4l-20 -4q-72 -21 -108 -69q-37 -49 -37 -101q0 -23 14 -43q12 -18 36 -26q2 -1 7 -1zM2569 -151q51 0 30 -72q96 -1 96 -53h-623v1q-68 7 -116 53q-53 -49 -130 -54h-701q-78 0 -136 54q-56 -54 -135 -54q-78 0 -135 54q-57 -54 -136 -54h-15q-84 5 -138 61
q-56 58 -56 138v319q0 52 85 18q-11 107 41 107v-444q0 -31 22 -52q20 -22 51 -22h10q30 0 52 22q21 21 21 52v312q129 0 219 -44q87 -43 133 -114q44 -71 44 -155q1 -31 22 -52t51 -21h12q-14 36 -14 72q0 81 55 136q56 57 136 61h15q5 0 9 -1q86 -6 156 -71
q68 -65 97 -197h100q-52 303 -284 329l-26 1q-39 -2 -70 -15q-56 -22 -43 61l-107 -15q86 88 217 95h10q10 0 28 -2q145 -9 258 -120q112 -111 144 -334h2q30 0 52 22q21 21 21 52v186q0 52 73 6q1 120 53 120v-312q0 -31 22 -52q20 -22 51 -22h49q-36 59 -36 130
q0 103 71 177q70 74 177 78l8 1q4 0 11 -1l12 -1q161 -11 265 -175l-93 37q-20 -68 -81 -23q-44 31 -100 36l-19 1q-54 -3 -88 -38q-36 -37 -37 -89q0 -55 37 -92t92 -40l1 -1h208z" />
    <glyph glyph-name="uniFEAD_uniFEBF_uniFEF2_space_uniFE8D_uniFDF2_space_uniFECB_uniFEE8_uniFEEC_uniFEE2.liga" unicode="&#xfead;&#xfebf;&#xfef2;&#x20;&#xfe8d;&#xfdf2;&#x20;&#xfecb;&#xfee8;&#xfeec;&#xfee2;" horiz-adv-x="2816" 
d="M1616 452q0 17 -23 38q-25 20 -40 20q-16 0 -26 -14q-11 -14 -11 -28q0 -36 65 -36q35 0 35 20zM1231 434q29 22 7 53q-23 32 -55 6q-11 -46 48 -59zM1083 1718q29 22 7 54q-24 32 -55 5q-12 -46 48 -59zM2290 1025q-172 -19 -217 -260h235q54 3 90 40q36 38 36 90
t-35 90q-36 37 -90 40h-19zM1272 -6q-29 -1 -49 -22q-20 -20 -20 -50q0 -29 20 -49q20 -21 49 -22h145q-37 132 -134 143h-11zM860 -136q33 24 33 59q0 59 -40 108q-41 48 -105 69v-171q0 -43 37 -68q40 -21 75 3zM602 1403q17 -17 36 -49q18 -31 29 -85l16 24q14 21 29 65
q13 40 7 95q-13 62 -40 99q-18 26 -29 63q-11 36 2 88v-4q0 -3 1 -6q0 -12 4 -24q5 -17 14 -30l1 -1q0 -1 1 -2q12 -16 21 -37q7 -20 1 -55l3 6l3 3q4 6 13 24q6 17 9 39q1 25 -5 49q-4 17 -16 36q-10 16 -17 35q-9 19 -12 52l-16 -24q-20 -29 -31 -68q-16 -45 -11 -100
q7 -54 34 -95q19 -33 29 -66q10 -36 -1 -82l-7 15q-1 3 -2 7q-10 23 -28 51t-49 57q-29 26 -71 40q-17 3 -13 -17q1 -19 15 -48q11 -27 27 -49q14 -20 25 -19q4 1 8 7l3 10q1 3 1 9q-1 0 -1 2zM1960 549l-8 -3l-5 -4q-3 -2 -5 -5q-39 -49 -50 -99q-14 -50 22 -72
q25 -9 49 15q24 25 32 52q-20 -16 -38 -15q-16 0 -26 10t-8 30q7 49 37 91zM1944 1183q52 0 58 88q68 -14 68 38v444q-52 0 -38 -110q-88 31 -88 -25v-435zM1448 2066q22 -58 24 -144q17 18 22 52q4 35 2 69q-4 42 -7 62l-5 24l-5 -1l-12 -9q-8 -6 -12 -15q-7 -10 -8 -22
q-1 -3 -1 -8zM1428 1728q31 0 66 42h3q18 -13 46 -13t42 38q5 23 4 36v5q0 29 -27 96h-3q-17 -20 -28 -38q25 -55 27 -74q-4 -3 -8 -5q-6 -2 -10 -2q-11 0 -25 8q-24 12 -27 69l-3 1q-10 -5 -17 -13q-4 -4 -6 -5l3 -51q0 -11 -8 -22q-8 -12 -26 -12q-24 0 -24 37q0 20 6 41
l-2 2q-14 -7 -27 -18q-6 -22 -6 -47q0 -29 11 -53q10 -22 39 -22zM876 1047q62 -64 152 -64h126q0 52 -93 58q18 67 -33 67q-37 0 -64 27t-27 64q0 149 182 202v-207q3 -91 64 -150q59 -61 148 -61q87 0 148 61q61 -61 149 -61t149 61q60 61 62 150v559q-53 0 -49 -96
q-76 22 -76 -32v-431q-2 -37 -26 -61q-25 -25 -60 -25t-60 25q-25 24 -26 61v464q-52 0 -38 -92q-88 19 -88 -33v-339q-2 -36 -25 -61q-25 -25 -60 -25q-37 0 -60 25q-25 24 -26 61v348q-143 0 -239 -48q-97 -48 -145 -126q-49 -77 -49 -169q0 -89 64 -152zM416 1324
q10 4 19 14q6 7 10 18l1 9q1 5 1 9l-1 8v7l-1 5l-327 -113q-18 -7 -25 -26q-7 -18 1 -42zM2105 372q-18 -6 -25 -25q-8 -19 0 -42l226 84q11 4 20 14q6 8 9 18l2 16v9v7l-1 5zM2729 1324q10 4 19 14q6 7 10 18l1 9q1 5 1 9l-1 20l-327 -113q-18 -7 -25 -26q-8 -19 0 -42z
M2797 1181q-52 0 -46 -116q-80 42 -80 -10v-260q0 -131 -129 -194q-95 -48 -24 -102l-71 -40q148 -1 249 96q101 98 101 240v386zM829 493q-22 -22 -22 -52q0 -31 22 -52q20 -22 52 -22q30 0 52 22q21 21 21 52q0 30 -21 52q-23 21 -52 21q-31 0 -52 -21zM665 493
q-22 -22 -22 -52q0 -31 22 -52q20 -22 52 -22q30 0 52 22q21 21 21 52q0 30 -21 52q-23 21 -52 21q-31 0 -52 -21zM1699 331q-22 -22 -22 -53q0 -30 22 -51q20 -22 52 -22q30 0 52 22q21 21 21 51q0 31 -21 53q-23 21 -52 21q-31 0 -52 -21zM2190 1276q20 -22 51 -22t53 22
q21 21 21 51q0 31 -21 53q-23 21 -53 21t-51 -21q-22 -22 -22 -53q0 -30 22 -51zM1631 531q22 -26 22 -63q0 -38 -28 -67q-29 -29 -68 -29q-66 0 -66 69q0 46 25 81q23 37 59 37q33 0 56 -28zM1134 358q10 5 40 32q-38 17 -30 67q1 25 27 59q25 36 58 42q57 9 59 -46
q0 -55 -17 -78q-36 -55 -75 -80q-42 -28 -100 -41q-20 -4 -25 -3q-8 2 17 17q35 28 46 31zM939 1611q36 26 46 31q8 3 41 32q-38 17 -30 68q1 23 27 59q25 36 59 42q57 10 59 -46q0 -54 -17 -79q-37 -55 -76 -81q-43 -27 -101 -41q-20 -4 -25 -3q-8 1 17 18zM496 765
q62 0 100 -41t41 -96q1 -55 -42 -101q-99 -100 -251 -98q-131 7 -222 97q-90 88 -100 221q-2 176 124 279l-19 -109q83 20 46 -51q-29 -52 -25 -115q7 -79 60 -133q52 -54 131 -63q100 -5 167 60q7 7 4 17q-5 8 -14 9h-19q-10 0 -13 1q-74 14 -119 68q-48 54 -48 128
q0 120 95 212t281 101h69v-313q0 -30 22 -51q20 -22 51 -22h1129v260q0 52 88 14q-14 112 38 112v-102q91 93 211 101q4 1 11 1h20q107 -6 177 -79q71 -74 71 -177t-71 -177q-70 -73 -177 -79h-1508v1q-82 6 -134 63q-54 56 -54 135v179q-2 0 -3 -1q-12 -1 -24 -4l-20 -4
q-72 -21 -109 -69q-37 -49 -37 -101q0 -23 15 -43q12 -18 36 -26q1 -1 3 -1l4 -1q2 -1 7 -1zM2531 -149q52 0 18 -77q108 3 108 -49h-625v1q-68 7 -116 53q-56 -51 -134 -54h-692q-81 3 -134 54q-64 -61 -160 -53q-78 11 -125 69q-49 56 -49 132v178q-56 -14 -78 -52
q-24 -40 -24 -106v-205q0 -52 -72 -10q-2 -116 -54 -116v341q0 121 71 201q70 78 195 78q120 0 200 -48q79 -48 120 -119q39 -70 39 -145q1 -31 21 -51q18 -20 50 -22q-13 33 -13 71q0 82 55 137q55 57 136 61h15q5 0 9 -1q85 -6 157 -71q68 -66 96 -197h101
q-52 304 -285 329l-2 1h-24q-39 -2 -70 -15q-56 -22 -47 65l-103 -19q84 87 217 95h10q19 0 28 -1q146 -9 259 -120q112 -112 145 -335h6q30 0 52 22q21 21 21 51v187q0 52 80 30q-6 96 46 96v-313q0 -30 22 -51q20 -22 51 -22h49q-35 59 -35 130q0 103 71 177q69 73 177 79
h19q7 0 12 -1q163 -11 266 -176l-86 32q-26 -63 -89 -19q-43 32 -100 37l-19 1q-54 -3 -88 -38q-36 -37 -37 -89q0 -55 37 -92q38 -38 92 -41h210z" />
    <glyph glyph-name="uniFECB_uniFEE0_uniFEF4_uniFEEA_space_uniFE8D_uniFEDF_uniFEB4_uniFEFC_uniFEE1.liga" unicode="&#xfecb;&#xfee0;&#xfef4;&#xfeea;&#x20;&#xfe8d;&#xfedf;&#xfeb4;&#xfefc;&#xfee1;" horiz-adv-x="2601" 
d="M951 311q0 17 12 30q12 16 29 16q16 0 44 -22q25 -25 25 -42q0 -22 -39 -22q-71 0 -71 40zM420 1151q68 -22 113 -75q44 -53 44 -118q0 -37 -36 -64q-37 -26 -82 -4q-39 30 -39 75v186zM35 995v-564q55 0 58 103q78 -23 78 33v416q0 74 27 117q24 42 84 57v-195
q0 -82 53 -143q53 -63 136 -75q103 -9 173 55q71 65 71 159q0 78 -44 157q-42 77 -130 131q-88 53 -217 53q-135 0 -212 -86q-77 -84 -77 -218zM950 369q-26 -38 -26 -88q0 -75 72 -75q43 0 75 32q30 33 30 73q0 38 -25 69q-24 30 -60 30q-40 0 -66 -41zM679 239
q3 -3 15 -12q17 -19 35 -49q18 -32 27 -82l6 10l11 13q13 24 27 63q12 42 8 92q-12 60 -39 96q-19 30 -29 62q-11 33 3 86v-4q0 -3 1 -6q0 -9 3 -23q2 -12 13 -30l1 -1q0 -1 1 -2q13 -18 20 -36q8 -22 2 -53l6 8q6 10 12 25t9 36q2 24 -4 49q-6 17 -17 35q-8 12 -16 34
q-10 21 -11 50l-1 -2q-3 -3 -14 -22q-16 -21 -32 -66q-14 -44 -10 -96q8 -52 34 -93q17 -31 27 -64q10 -34 0 -80l-2 2l-5 13q-2 3 -3 7q-8 19 -27 49q-18 27 -47 55q-30 29 -69 39q-16 3 -13 -15q2 -20 15 -47q10 -27 26 -47q13 -22 24 -20q5 3 8 7l4 18q-1 1 -1 2v2z
M114 1608q6 9 15 14l11 4q-43 -59 -55 -137q-3 -29 12 -44q16 -16 40 -16q28 -1 57 23q-12 -43 -48 -79q-35 -34 -74 -22q-52 31 -34 109q20 77 76 148zM2581 1627v-785q0 -57 -83 -34q4 -103 -54 -103v785q0 47 111 -11q-37 148 26 148zM2511 514q-10 10 -28 12
q-20 0 -41 -18q10 34 34 57q25 26 54 17q38 -24 25 -79q-14 -55 -56 -107l-9 -10q-6 -3 -9 -3q31 41 40 98q0 23 -10 33zM1928 518l355 121l1 -6q1 -4 1 -14t-3 -21t-11 -19q-6 -9 -20 -15l-350 -121q-8 27 -1 46q8 22 28 29zM1804 1417q-6 -21 -6 -43q0 -40 26 -40
q20 0 28 12t8 24l-3 56l25 20l3 -1q4 -63 31 -75q13 -10 27 -10q6 0 10 2l9 7q-1 17 -29 80q12 20 30 41h3q30 -73 30 -104v-6q2 -22 -5 -39q-15 -42 -46 -42q-26 0 -50 15h-2q-39 -45 -73 -45q-30 0 -42 24q-12 23 -12 56q0 28 7 53l29 18zM1705 1504l356 123l1 -13v-14
l-3 -14q-1 -10 -10 -20q-8 -8 -21 -14l-350 -121q-8 24 0 45q7 20 27 28zM1505 457q6 7 11 8q6 4 8 4q-31 -46 -40 -100q-3 -18 9 -32q11 -10 29 -10q20 -1 40 15q-9 -30 -34 -55q-26 -26 -54 -16q-38 21 -24 77q14 57 55 109zM1465 -280q0 -34 -23 -57t-56 -23
q-34 0 -57 23q-24 24 -24 57t24 57q23 23 57 23q33 0 56 -23t23 -57zM1523 619q0 -10 -3 -21t-10 -19q-7 -9 -20 -15l-352 -121q-7 25 0 46q10 22 27 29l357 121zM1287 -280q0 -32 -23 -57q-26 -23 -58 -23t-56 23q-23 25 -23 57t23 57q24 23 56 23t58 -23q23 -25 23 -57z
M784 865v461q0 56 88 19q-6 118 49 118v-461q0 -57 -72 -26q-7 -111 -65 -111zM1012 841q32 0 57 23q24 24 24 56v570q0 57 96 14q-16 123 41 123v-707q0 -32 22 -55t55 -24q28 2 47 20q18 20 18 48v128q0 56 92 38q-11 99 45 99v-265q0 -28 20 -48q21 -20 50 -20
q28 0 48 20t20 48v171q0 58 94 14q-15 123 43 123v-308q0 -28 20 -48t48 -20q27 0 49 20q20 20 20 48v215q0 58 103 6q-25 131 34 131v-352q0 -28 20 -48t48 -20t48 20q21 20 21 48v581q0 57 99 22q-18 115 38 115v-741q0 -75 -54 -129q-53 -53 -130 -53h-44q-66 0 -115 40
q-49 -40 -114 -40h-46q-64 0 -113 40q-49 -40 -115 -40h-45q-70 0 -123 47q-52 -44 -124 -47h-5q-85 3 -143 58q-61 -57 -148 -58h-253q0 57 41 96q39 41 96 41h115zM637 1430q-9 23 -1 45q7 20 28 28l355 123l1 -6q1 -4 1 -16q0 -10 -3 -19q-4 -12 -10 -20q-8 -9 -21 -15z
M301 610q9 -9 26 -11q18 0 35 15q-6 -28 -30 -50q-23 -22 -48 -15q-33 21 -21 71t49 95q7 7 10 8q4 4 6 4q-26 -36 -34 -89q-3 -18 7 -28zM2581 -146h-717q-94 0 -148 60q-63 -60 -150 -60h-116q-85 0 -148 60q-63 -60 -149 -60h-565q-89 0 -154 64q-65 65 -65 154v238
q-198 -58 -198 -219q0 -41 29 -70t70 -29q57 0 22 -80q115 0 115 -58h-137q-97 0 -167 70q-68 71 -68 167q0 100 53 182q52 85 158 138t260 53v-392q0 -33 24 -57q26 -23 58 -23h565q33 0 56 23q24 23 24 57v203q0 56 80 21q-1 116 57 116v-340q0 -33 24 -57q23 -23 56 -23
h116q34 0 56 22t24 56v63h1v361q0 57 82 10q-3 126 55 126v-560q1 -34 24 -56q24 -22 56 -22h112q-38 65 -38 141q0 114 77 194q77 79 192 85h10q17 0 25 -1q177 -12 290 -191l-102 30q-22 -65 -90 -16q-46 35 -108 40l-20 1q-61 -3 -97 -41q-38 -39 -41 -97q3 -61 42 -101
q41 -41 100 -44h228q57 0 42 -72q95 -8 95 -66zM438 1489q33 24 9 59q-26 35 -60 6q-14 -50 51 -65zM282 1373l33 24q13 9 17 10q9 3 45 34q-42 20 -33 74q1 25 29 65q29 38 64 45q62 10 64 -50q1 -60 -18 -86q-39 -58 -83 -87q-44 -28 -108 -45q-10 -2 -17 -2q-7 -1 -11 0
q-8 2 18 18z" />
    <glyph glyph-name="uniFECB_uniFEE0_uniFEF4_uniFEEC_uniFE8E_space_uniFE8D_uniFEDF_uniFEB4_uniFEFC_uniFEE1.liga" unicode="&#xfecb;&#xfee0;&#xfef4;&#xfeec;&#xfe8e;&#x20;&#xfe8d;&#xfedf;&#xfeb4;&#xfefc;&#xfee1;" horiz-adv-x="2577" 
d="M386 1555q34 28 59 -5q24 -34 -8 -59q-65 15 -51 64zM417 1163q70 -22 114 -75q43 -52 43 -116q0 -38 -36 -64q-38 -26 -80 -4q-41 29 -41 74v185zM569 4q-33 2 -53 24q-22 22 -22 53q0 32 22 54q20 22 53 24l12 -1q106 -10 144 -154h-156zM1065 493q-70 0 -70 39
q0 15 12 30q10 16 28 16q16 0 43 -23q25 -22 25 -41q0 -21 -38 -21zM1570 573q12 4 21 14q6 8 10 20q3 11 3 20l-1 8v7l-1 5l-353 -121q-18 -7 -26 -28q-9 -22 -1 -45zM35 664q57 0 50 103q86 -24 86 33v198q0 70 26 114q25 44 84 57v-193q0 -81 53 -143q52 -62 136 -74
q100 -9 170 55t70 158q0 78 -42 156q-44 77 -129 130q-85 52 -217 52q-134 0 -210 -84q-77 -86 -77 -218v-344zM2565 -132q0 56 -119 53q39 83 -17 83h-227q-58 3 -99 44q-40 39 -41 99q1 57 40 97q38 38 96 41l20 -1q60 -4 108 -40q67 -48 65 56l125 -70q-114 180 -288 190
q-9 1 -25 1h-9q-116 -6 -191 -85q-77 -80 -77 -192q0 -76 38 -140h-112q-33 0 -55 22q-23 23 -24 56v556q-57 0 -49 -138q-87 59 -87 2v-420q-2 -33 -24 -56q-22 -22 -56 -22h-116q-32 0 -55 23q-24 23 -24 56v338q-56 0 -41 -107q-95 27 -95 -29v-202q-2 -34 -23 -56
q-23 -23 -56 -23h-36q-35 239 -157 362q-121 119 -279 130q-10 1 -30 1h-11q-144 -8 -235 -102l134 8q-32 -82 28 -58q37 15 76 16l28 -1q253 -29 309 -356h-109q-31 142 -105 212q-76 71 -169 78q-5 1 -10 1h-16q-90 -5 -148 -66q-59 -62 -59 -148q0 -40 14 -77h-121
q-33 0 -56 23q-24 23 -24 56v482q-56 0 -53 -123q-83 43 -83 -13v-346q0 -89 64 -152q63 -63 152 -63h896q86 0 147 58q60 -58 147 -58h116q87 0 148 58q60 -58 147 -58h713zM1059 630q-39 0 -64 -39q-27 -39 -27 -89q0 -74 71 -74q43 0 74 32q30 32 30 72t-24 68
q-24 30 -60 30zM264 1358q7 -1 27 3q64 15 109 44q44 29 81 86q19 26 18 86q0 61 -63 50q-36 -7 -63 -46q-28 -36 -29 -64q-9 -54 32 -72q-36 -33 -44 -35q-10 -4 -50 -34q-26 -16 -18 -18zM1474 1319q0 -1 1 -2l-2 -11l-1 -5q-4 -5 -7 -6q-8 -2 -20 17q-11 13 -23 41
q-12 25 -13 40q-2 15 11 14q32 -10 59 -33q23 -20 41 -48q17 -26 24 -43l3 -11q2 -5 3 -6l1 -2q10 40 1 69q-10 30 -24 56q-23 35 -29 79q-4 47 9 83q11 34 26 57l14 20q1 -26 9 -43l15 -30q7 -12 13 -29q5 -21 4 -42q-2 -14 -7 -32l-16 -28q4 29 -1 45q-9 18 -18 32
q0 1 -1 2q-9 16 -11 26q-4 11 -4 20q-1 2 -1 5v3q-11 -46 -2 -73q9 -31 25 -53q22 -31 33 -83q4 -45 -6 -79q-11 -34 -24 -54l-13 -20q-8 41 -24 70q-17 29 -30 42q-5 3 -9 7zM1007 847q33 0 56 23t23 56v566q0 56 88 21q-8 115 48 115v-702q0 -32 22 -54q23 -24 55 -25
q27 1 47 21q19 19 19 47v128q0 56 87 5q-9 131 49 131v-264q0 -28 20 -48t48 -20t48 20t20 48v170q0 57 91 22q-12 114 45 114v-306q0 -28 20 -48t48 -20t48 20t20 48v213q0 57 95 38q-16 98 41 98v-349q0 -28 20 -48t48 -20t48 20t20 48v577q0 56 88 25q-10 111 48 111
v-736q0 -75 -53 -128t-129 -53h-45q-65 0 -113 40q-49 -40 -114 -40h-45q-65 0 -113 40q-49 -40 -114 -40h-45q-70 0 -120 46q-52 -43 -125 -46h-4q-86 4 -143 58q-60 -57 -147 -58h-250q0 56 95 45q-15 91 41 91h114zM917 1008q0 -57 -80 -37q0 -100 -56 -100v458
q0 56 79 29q1 107 57 107v-457zM2429 1492q0 56 99 13q-19 123 37 123v-916h-136v780zM2504 490q1 23 -8 33q-10 9 -29 11q-20 2 -40 -17q7 30 34 57q24 25 53 16q37 -22 24 -78q-14 -54 -54 -107l-11 -10q-5 -3 -9 -3q32 45 40 98zM1515 478q-31 -43 -40 -99q-2 -21 9 -31
q10 -10 29 -12q19 -1 40 16q-7 -28 -34 -55q-26 -26 -53 -17q-38 23 -24 78q13 54 54 107l11 10zM1433 -210q23 -25 23 -57q0 -33 -23 -56t-56 -23t-56 23t-23 56q0 32 23 57q23 23 56 23t56 -23zM1256 -210q23 -25 23 -57q0 -33 -23 -56q-25 -23 -56 -23q-33 0 -56 23
q-24 23 -24 56t24 57q23 23 56 23q31 0 56 -23zM1793 1421q-6 -22 -6 -44q0 -40 26 -40q20 0 28 12q8 14 8 24l-3 55l7 5q7 9 18 15l3 -1q3 -61 30 -75q13 -9 26 -9q5 0 11 3q3 1 9 5q-2 18 -29 81q13 20 30 40h3q29 -75 29 -103v-5q1 -20 -4 -40q-16 -41 -46 -41
q-26 0 -49 14h-3q-38 -45 -72 -45q-30 0 -42 24q-12 23 -12 56q0 28 7 52q9 7 29 19zM263 477q-8 24 0 45q7 21 27 28l353 122l1 -6v-7l1 -8q0 -9 -3 -20q-4 -12 -10 -20q-9 -10 -21 -14zM1889 453q-8 24 0 45q7 21 27 28l353 121l1 -5v-7l1 -8q0 -9 -3 -20q-4 -12 -10 -20
q-9 -10 -21 -14zM634 1432q-8 24 0 45q7 21 26 28l354 122l1 -6v-7l-1 -18l-1 -10q-4 -11 -10 -19q-8 -9 -21 -15zM1668 1433q-8 25 0 46q7 20 26 27l354 122l1 -6v-7l-1 -17l-1 -10q-4 -12 -10 -20q-8 -9 -21 -15zM40 1462q18 77 75 147q6 9 15 14q2 2 6 3l6 2
q-43 -58 -56 -137q-2 -29 13 -44q14 -14 39 -16q27 -1 56 23q-11 -41 -46 -77q-37 -36 -75 -23q-53 32 -33 108z" />
    <glyph glyph-name="uniFECB_uniFEE0_uniFEF4_uniFEEC_uniFEE4_uniFE8E_space_uniFE8D_uniFEDF_uniFEB4_uniFEFC_uniFEE1.liga" unicode="&#xfecb;&#xfee0;&#xfef4;&#xfeec;&#xfee4;&#xfe8e;&#x20;&#xfe8d;&#xfedf;&#xfeb4;&#xfefc;&#xfee1;" horiz-adv-x="2883" 
d="M1454 546q-69 0 -69 39q0 14 11 30q12 15 28 15q19 0 42 -22q25 -22 25 -40q0 -22 -37 -22zM410 1218q67 -22 111 -74q43 -52 43 -114q0 -37 -35 -63q-37 -26 -79 -4q-40 28 -40 72v183zM426 1604q34 28 59 -6q24 -33 -8 -57q-63 14 -51 63zM997 127q20 21 52 23l4 1
q2 -1 6 -1h2q104 -10 142 -152h-154q-31 1 -52 24q-21 21 -21 52t21 53zM600 21q-23 -23 -54 -23q-32 0 -55 23t-23 54v182q75 -18 115 -72q40 -53 40 -110q0 -31 -23 -54zM2284 1599q11 15 28 15t42 -22t25 -40q0 -22 -38 -22q-69 0 -69 39q0 15 12 30zM1627 570
q-17 -6 -23 -26q-6 -21 1 -44l310 107q12 4 18 14q6 8 9 18l2 19l-1 8q0 5 -1 7l-1 6zM34 726q55 0 56 114q78 -35 78 20v195q0 70 25 113q25 42 83 55v-189q0 -82 52 -141q52 -61 133 -73q100 -8 168 55q69 62 69 155q0 77 -42 153q-42 77 -126 128q-85 51 -214 51
q-131 0 -207 -83q-75 -82 -75 -214v-339zM306 1409q8 -1 27 3q64 15 107 43q44 30 80 86q18 26 18 84q-1 59 -63 49q-35 -8 -62 -45q-27 -38 -29 -63q-7 -53 33 -71q-33 -30 -44 -35q-10 -3 -49 -33q-25 -16 -18 -18zM2869 -136q0 56 -94 47q16 87 -40 87h-223q-58 3 -97 43
t-41 98q2 56 40 95q38 38 94 41l20 -1q60 -5 106 -39q67 -48 90 24l97 -38q-112 177 -283 187q-9 1 -25 1h-9q-111 -6 -188 -84q-76 -77 -76 -188q0 -75 38 -139h-65q-32 0 -54 22q-22 23 -24 55v626q-56 0 -48 -102q-86 24 -86 -31v-493q-1 -32 -24 -55q-22 -22 -54 -22h-8
q-32 0 -55 23t-23 55v333q-55 0 -35 -98q-99 19 -99 -36v-199q-1 -34 -23 -55q-23 -23 -55 -23h-42q-34 239 -154 357q-119 118 -275 127q-20 2 -30 2h-10q-140 -7 -231 -101l106 1q-7 -73 53 -51q36 16 74 17l28 -1q249 -28 304 -351h-107q-30 139 -103 209q-72 69 -167 77
h-26q-87 -4 -145 -64q-58 -59 -58 -146q0 -39 14 -76h-21q-31 0 -54 23q-22 23 -24 55q0 88 -47 165q-49 76 -142 122t-233 46v-333q0 -32 -23 -55t-56 -23h-10q-32 0 -55 23t-23 55v616q-56 0 -40 -126q-94 48 -94 -8v-482q0 -85 59 -146t148 -66h15q84 0 145 57
q62 -57 145 -57t144 58q61 -58 145 -58h790q84 0 145 58q61 -58 145 -58h8q84 0 145 58q55 -53 139 -58h662zM2316 1467q44 0 72 31q30 32 30 71t-24 67q-24 29 -58 29q-38 0 -64 -38q-26 -40 -26 -87q0 -73 70 -73zM1448 681q-37 0 -64 -38q-26 -40 -26 -87q0 -73 70 -73
q44 0 73 31q30 32 30 71t-24 67q-24 29 -59 29zM1403 1305v-9l-3 -9q-4 -6 -9 -7q-9 -2 -24 19q-15 22 -27 49q-13 29 -15 48q-3 19 13 16q41 -14 70 -40q28 -25 49 -56q18 -28 28 -51l9 -22q12 46 1 82q-10 33 -29 66q-27 42 -34 94q-4 54 11 99q12 38 31 67l16 24
q3 -31 11 -52q8 -20 17 -34q12 -18 17 -36q6 -25 4 -49q-3 -21 -9 -38q-6 -16 -12 -24q0 -1 -2 -3l-4 -6q6 34 -2 54t-20 37q0 1 -1 2q0 1 -1 1q-9 13 -14 30q-4 12 -4 24q-1 3 -1 6v4q-13 -52 -2 -87q11 -37 29 -63q28 -37 40 -99q5 -55 -7 -94q-15 -45 -29 -64l-16 -24
q-11 54 -29 84q-20 34 -35 49zM1014 907q32 0 55 23t23 55v556q0 56 98 16q-20 118 36 118v-690q0 -32 23 -55t55 -23h240q28 0 48 20q19 19 19 47v125q0 55 84 39q-5 95 50 95v-259q0 -27 20 -47t47 -20q28 0 48 20q19 19 19 47v167q0 56 91 32q-12 102 43 102v-301
q0 -27 20 -47t47 -20q28 0 48 20q19 19 19 47v209q0 56 110 12q-32 122 24 122v-343q0 -27 20 -47t47 -20h76q28 0 48 20q19 19 19 47v567q0 56 76 24q3 110 58 110v-724q0 -74 -52 -126t-127 -52h-121q-63 0 -111 39q-48 -39 -112 -39h-44q-64 0 -112 39q-48 -39 -112 -39
h-44q-69 0 -119 45q-52 -43 -126 -45h-243q-84 1 -143 57q-58 -55 -145 -57h-246q0 55 118 56q-40 78 16 78h112zM925 1065q0 -56 -87 -40q9 -94 -47 -94v450q0 55 95 35q-16 99 39 99v-450zM646 1482q-7 23 1 45q8 20 26 27l348 120l1 -21l-2 -19q-3 -11 -10 -19
q-7 -9 -21 -15zM38 1512q18 73 74 145q7 8 15 13q3 2 6 3q1 1 3 1l2 1q-42 -58 -54 -134q-3 -29 12 -44t39 -15q29 -2 55 22q-10 -40 -46 -76q-35 -35 -73 -23q-51 32 -33 107zM2735 1541q0 56 91 20q-12 114 43 114v-901h-134v767zM1594 -213q23 -23 23 -55t-23 -55
t-55 -23t-55 23t-23 55t23 55t55 23t55 -23zM1420 -213q22 -22 22 -55t-22 -55q-23 -23 -56 -23q-32 0 -55 23t-23 55t23 55t55 23q33 0 56 -23zM776 557q-1 -24 10 -36q12 -11 32 -13q24 -2 46 18q-10 -34 -38 -62q-29 -29 -61 -19q-42 26 -27 88t61 120l7 7q3 3 6 4
q3 2 9 4q-34 -48 -45 -111zM1165 614q2 19 -8 30q-10 9 -26 10q-19 1 -37 -15q7 25 31 51q23 23 48 15q34 -21 22 -71q-12 -52 -49 -97q-5 -7 -9 -8q-3 -2 -9 -4q30 41 37 89zM2810 524q2 21 -9 32q-9 9 -28 11q-19 1 -40 -16q7 28 34 55q25 25 52 16q38 -23 24 -77
q-13 -54 -54 -105q-6 -8 -10 -9q-3 -2 -9 -4q31 43 40 97zM1884 1455q-6 -22 -6 -43q0 -39 25 -39q21 0 28 12q8 14 8 24l-3 54q4 1 6 5l19 15l3 -2q3 -61 29 -73q14 -9 26 -9q4 0 10 2q6 3 9 6q-1 18 -29 79l30 40h4q28 -71 28 -102v-5q1 -16 -4 -39q-15 -41 -45 -41
q-26 0 -49 15h-3q-37 -45 -70 -45q-30 0 -42 23q-11 25 -11 56q0 26 6 51q13 10 29 18zM272 526q-7 26 0 45q8 20 26 27l348 120l1 -6q1 -3 1 -7v-8q0 -8 -3 -19t-10 -19q-8 -10 -20 -15zM2204 487q-7 24 0 45q8 20 26 27l348 120l1 -6q1 -3 1 -7v-8q0 -8 -3 -19t-10 -19
q-7 -9 -21 -15zM1664 1437q-7 26 0 45q8 20 26 27l492 174l1 -6q1 -3 1 -7l-1 -17l-2 -10q-3 -11 -10 -19q-7 -9 -21 -15z" />
    <glyph glyph-name="uniFECB_uniFEE0_uniFEF4_uniFEEC_uniFEE2_space_uniFE8D_uniFEDF_uniFEB4_uniFEFC_uniFEE1.liga" unicode="&#xfecb;&#xfee0;&#xfef4;&#xfeec;&#xfee2;&#x20;&#xfe8d;&#xfedf;&#xfeb4;&#xfefc;&#xfee1;" horiz-adv-x="2843" 
d="M1414 547q-69 0 -69 39q0 13 11 29q12 15 28 15q18 0 43 -22q24 -22 24 -40q0 -21 -37 -21zM410 1219q67 -22 111 -74q43 -52 43 -115q0 -36 -35 -62q-37 -26 -79 -4q-40 28 -40 72v183zM426 1605q34 28 59 -6q24 -33 -8 -57q-63 14 -51 63zM951 128q22 22 53 23l11 -1
q105 -11 143 -152h-154q-32 2 -53 24q-21 21 -21 53q0 31 21 53zM529 13q-37 -26 -79 -4q-40 28 -40 72v183q67 -22 111 -74q43 -52 43 -114q0 -37 -35 -63zM2244 1600q11 15 28 15t42 -22t25 -41q0 -21 -38 -21q-69 0 -69 39q0 15 12 30zM1587 571q-17 -8 -23 -26
q-6 -20 1 -45l310 107q12 4 18 14q6 9 9 19l2 19l-1 8q0 5 -1 7l-1 5zM34 420q55 0 64 111q70 -32 70 23v502q0 71 25 112q26 43 83 56v-189q0 -81 52 -142q53 -62 133 -72q99 -9 168 54q69 62 69 155q0 78 -42 154q-42 77 -126 128q-85 51 -214 51q-131 0 -207 -83
q-75 -84 -75 -214v-646zM306 1410q8 -1 27 3q64 15 107 43q44 30 80 86q18 26 18 84q-1 59 -63 49q-35 -8 -62 -45q-27 -38 -29 -63q-7 -53 33 -71q-33 -30 -44 -35q-10 -3 -49 -33q-25 -16 -18 -18zM2829 -136q0 56 -114 52q36 82 -20 82h-223q-59 5 -97 44q-39 40 -41 98
q3 57 40 94q38 38 94 41h17l3 -1q60 -5 106 -39q68 -47 74 21l113 -35q-112 177 -283 187q-9 1 -25 1h-9q-111 -6 -188 -83q-76 -77 -76 -189q0 -75 38 -139h-65q-32 0 -54 22q-22 23 -24 55v627q-56 0 -20 -118q-114 40 -114 -16v-493q-1 -32 -24 -55q-22 -22 -54 -22h-8
q-32 0 -55 23t-23 55v333q-55 0 -47 -98q-87 20 -87 -36v-199q-1 -34 -23 -55q-23 -23 -55 -23h-47q-34 238 -155 357q-119 117 -275 128q-10 1 -30 1h-10q-140 -7 -231 -101l130 9q-31 -81 29 -58q37 15 75 16l28 -1q248 -27 303 -351h-107q-30 140 -103 210t-167 76
q-4 1 -9 1h-16q-86 -4 -145 -65t-59 -145q0 -40 14 -77h-34q-31 0 -54 23q-22 23 -24 55q0 79 -42 155q-42 75 -126 126q-85 51 -214 51q-131 0 -207 -83q-75 -84 -75 -214v-363q55 0 60 107q74 -28 74 27v219q0 70 25 113q25 42 83 55v-189q0 -81 52 -142q53 -62 133 -72
q102 -9 170 56q58 -55 143 -58h811q84 0 145 58q61 -58 145 -58h8q84 0 145 58q57 -54 139 -58h662zM2276 1467q43 0 73 32q29 32 29 71t-24 67q-24 29 -58 29q-38 0 -64 -38q-26 -40 -26 -88q0 -73 70 -73zM1408 682q-37 0 -64 -39q-26 -38 -26 -87q0 -73 70 -73
q44 0 73 31q30 32 30 72q0 37 -24 67q-24 29 -59 29zM1395 1306q0 -6 -1 -9l-3 -9q-4 -6 -8 -7q-11 -2 -24 19q-15 22 -27 49q-13 27 -15 47q-3 20 12 17q42 -14 71 -40q28 -26 48 -56q9 -14 17 -28l12 -23v-3l9 -19q11 49 1 82t-30 65q-27 44 -34 94q-3 57 12 100
q12 38 31 67l16 24q3 -31 11 -52q8 -20 17 -34q12 -19 16 -36q7 -24 5 -49q-3 -21 -9 -38q-7 -16 -12 -24q0 -1 -2 -3l-4 -6q5 35 -2 54q-8 21 -21 37q0 1 -1 2q0 1 -1 1q-9 13 -14 30q-4 12 -4 24q-1 3 -1 6v4q-12 -53 -1 -87q11 -37 29 -63q27 -37 39 -99q6 -54 -7 -94
q-15 -45 -29 -64l-16 -24q-9 52 -28 84t-36 49l-16 15l-1 -1zM1021 907q32 0 55 23t23 55v557q0 56 92 24q-13 110 42 110v-691q0 -32 23 -55t55 -23h193q28 0 48 20q19 19 19 47v126q0 55 40 95q39 39 94 39v-260q0 -27 20 -47t47 -20q28 0 48 20q19 19 19 47v168
q0 55 40 95q39 39 94 39v-302q0 -27 20 -47t47 -20q28 0 48 20q19 19 19 47v210q0 56 39 95t95 39v-344q0 -27 20 -47t47 -20h76q28 0 48 20q19 19 19 47v568q0 56 87 12q-8 122 47 122v-724q0 -74 -52 -126q-53 -53 -127 -53h-121q-63 0 -111 39q-48 -39 -112 -39h-44
q-64 0 -112 39q-48 -39 -112 -39h-44q-68 0 -119 45q-52 -43 -126 -45h-195q-86 3 -144 58q-58 -55 -144 -58h-247q0 56 39 95t95 39h112zM933 1065q0 -55 -39 -94q-40 -40 -95 -40v451q0 55 94 24q-16 110 40 110v-451zM38 1513q18 73 74 145q7 8 15 13q3 2 6 3q1 1 3 1
l2 1q-42 -58 -54 -135q-3 -29 12 -43q15 -15 39 -15q29 -2 55 22q-10 -40 -46 -76q-35 -35 -73 -23q-51 32 -33 107zM654 1483q-7 24 0 45q8 20 26 27l348 120l1 -6q1 -3 1 -7v-8q0 -8 -3 -19t-10 -19q-7 -9 -21 -15zM2829 774h-134v768q0 56 92 32q-13 102 42 102v-902z
M1574 -213q23 -23 23 -55t-23 -55t-55 -23t-55 23t-23 55t23 55t55 23t55 -23zM1400 -213q22 -22 22 -55t-22 -55q-23 -23 -56 -23q-32 0 -55 23t-23 55t23 55t55 23q33 0 56 -23zM736 557q-1 -24 10 -36q12 -12 32 -12q24 -2 46 18q-9 -34 -38 -63t-61 -19q-42 26 -27 88
t62 121l12 11q5 3 9 3q-34 -48 -45 -111zM1125 615q2 20 -8 29q-10 10 -26 10q-19 1 -37 -15q7 27 31 51q23 23 48 15q34 -21 22 -71t-49 -96q-4 -7 -9 -9q-4 -3 -8 -3q29 37 36 89zM2770 525q2 21 -9 32q-10 10 -28 10q-19 1 -40 -16q7 28 34 55q25 25 52 17q38 -23 24 -77
q-13 -55 -54 -105q-6 -7 -10 -10t-9 -3q31 41 40 97zM1844 1456q-6 -22 -6 -43q0 -39 25 -39q21 0 28 12q8 13 8 24l-3 54q4 1 6 5q7 7 19 14l3 -1q3 -60 29 -74q15 -8 26 -8q4 0 10 2t9 6q-1 18 -29 79l30 40h4q28 -71 28 -102v-5q2 -21 -4 -39q-15 -41 -45 -41
q-26 0 -49 15h-3q-37 -45 -70 -45q-30 0 -42 23q-11 25 -11 56q0 26 6 51q13 10 29 18zM272 527q-7 24 0 45q8 20 26 27l348 120l1 -6q1 -3 1 -7l-1 -17l-2 -10q-3 -11 -10 -19q-7 -9 -21 -15zM2164 487q-7 26 0 45q8 20 26 27l348 120l1 -5q1 -3 1 -7v-8q0 -9 -3 -20
t-10 -19q-8 -10 -21 -14zM1624 1438q-7 26 0 45q8 20 26 27l492 174l1 -6q1 -3 1 -7v-8q0 -8 -3 -19t-10 -19q-7 -9 -21 -15z" />
    <glyph glyph-name="uniFC5E" unicode="&#xfc5e;" horiz-adv-x="415" arabic-form="isolated" 
d="M327 510q-50 49 -49 71q2 27 23 26q43 -1 40 -61q0 -19 -14 -36zM351 666q-51 2 -94 -47q-42 -46 -43 -89q-2 -35 55 -94q-65 -44 -133 -60q16 67 18 83q4 106 -66 109q-67 3 -88 -147q41 65 66 64q38 -2 35 -61q-2 -33 -59 -120q158 -5 259 105l81 -69q9 47 10 85
q1 22 -29 46q46 64 49 130q3 62 -61 65zM351 326q-25 -32 -45 -61q40 -89 43 -118q-4 -5 -13 -9q-9 -3 -16 -3q-19 0 -39 13q-40 18 -45 110l-3 3q-16 -10 -29 -23q-2 -1 -4 -4q0 1 -2 -2l-2 -2l3 -80q0 -16 -11 -36q-12 -19 -42 -19q-37 0 -39 60q0 32 10 65l-4 2
q-22 -12 -43 -28q-9 -37 -9 -75q0 -51 16 -84q20 -35 64 -35q51 0 106 66h4q32 -22 74 -22q46 0 68 63q8 29 6 57v8q0 47 -43 154h-5z" />
    <glyph glyph-name="uniFC5F" unicode="&#xfc5f;" horiz-adv-x="499" arabic-form="isolated" 
d="M348 714q-25 -32 -45 -61q40 -89 43 -118q-4 -5 -13 -9q-9 -3 -16 -3q-19 0 -39 13q-40 18 -45 110l-3 3q-16 -10 -29 -23q-2 -1 -4 -4q0 1 -2 -2l-2 -2l3 -80q0 -16 -11 -36q-12 -19 -42 -19q-37 0 -39 60q0 32 10 65l-4 2q-22 -12 -43 -28q-9 -37 -9 -75q0 -51 16 -84
q20 -35 64 -35q51 0 106 66h4q31 -22 74 -22q46 0 68 63q8 29 6 58v7q0 47 -43 154h-5zM499 279q-20 -81 -74 -103l-425 -176q22 76 77 100zM499 422q-20 -81 -74 -103l-425 -176q22 76 77 100z" />
    <glyph glyph-name="uniFC60" unicode="&#xfc60;" horiz-adv-x="499" arabic-form="isolated" 
d="M387 326q-1 -1 -3 -4l-20 -25l-23 -32q40 -89 43 -118q-4 -5 -13 -9q-7 -3 -16 -3q-19 0 -39 13q-39 18 -44 110l-4 3q-14 -9 -28 -23q-3 -2 -9 -8l4 -80q0 -16 -12 -36q-12 -19 -42 -19q-38 0 -38 60q0 31 9 65l-3 2q-23 -12 -43 -28q-10 -36 -10 -75q0 -48 17 -84
q18 -35 63 -35q50 0 107 66h3q32 -22 74 -22q46 0 68 63q8 29 6 57v8q0 47 -43 154h-4zM499 527q-20 -80 -74 -102l-425 -176q22 76 77 100z" />
    <glyph glyph-name="uniFC61" unicode="&#xfc61;" horiz-adv-x="423" arabic-form="isolated" 
d="M323 586q-10 22 -31 27q-18 5 -23 -15q-7 -29 46 -88q11 20 14 31q5 23 -6 45zM330 326q-25 -32 -45 -61q40 -89 43 -118q-4 -5 -13 -9q-9 -3 -16 -3q-19 0 -39 13q-39 18 -44 110l-4 3q-14 -9 -28 -23q-3 -2 -9 -8l4 -80q0 -16 -12 -36q-12 -19 -42 -19q-38 0 -38 60
q0 31 9 65l-3 2q-23 -12 -43 -28q-10 -36 -10 -75q0 -48 17 -84q18 -35 63 -35q51 0 106 66h4q32 -22 74 -22q46 0 68 63q8 29 6 57v8q0 47 -43 154h-5zM345 345l-65 69q-151 -112 -225 -94q-17 4 -55 26q111 31 244 102q-49 59 -39 102q13 57 73 111q38 34 79 25
q66 -16 46 -102q-10 -44 -58 -106q14 -16 31 -38z" />
    <glyph glyph-name="uniFC62" unicode="&#xfc62;" horiz-adv-x="499" arabic-form="isolated" 
d="M348 594q-25 -32 -45 -61q40 -89 43 -118q-4 -5 -13 -9q-9 -3 -16 -3q-19 0 -39 13q-40 18 -45 110l-3 3q-16 -10 -29 -23q-2 -1 -4 -4q0 1 -2 -2l-2 -2l3 -80q0 -16 -11 -36q-12 -19 -42 -19q-37 0 -39 60q0 32 10 65l-4 2q-22 -12 -43 -28q-9 -37 -9 -75q0 -51 16 -84
q20 -35 64 -35q51 0 106 66h4q31 -22 74 -22q46 0 68 63q8 29 6 58v7q0 47 -43 154h-5zM499 279q-20 -81 -74 -103l-425 -176q22 76 77 100z" />
    <glyph glyph-name="uniFE80" unicode="&#x621;" horiz-adv-x="1135" arabic-form="isolated" 
d="M80 -20q0 120 71 191q30 29 43 35q-25 51 -29 133q2 161 108 269q106 109 261 109q137 0 258 -67q121 -68 212 -217l-86 -44q-118 -55 -227 14q-80 53 -157 53q-50 0 -83 -41q-33 -42 -20 -97q13 -36 41 -56q30 -21 67 -21h325q100 0 170 -70q71 -71 71 -191h-1025z" />
    <glyph glyph-name="uniFE81" unicode="&#x622;" horiz-adv-x="508" arabic-form="isolated" 
d="M425 221q0 -101 -171 -72q26 -176 -104 -176v1294q0 103 176 73q-29 175 99 175v-1294zM498 1628q-53 -38 -118 -45q-67 -7 -141 -6q-34 1 -62 1q-34 -1 -63 -3q-63 -4 -123 -27q39 68 88 96q51 29 105 35q59 6 115 5q68 -3 143 8q72 11 138 59q-32 -86 -82 -123z" />
    <glyph glyph-name="uniFE82" unicode="&#x622;" horiz-adv-x="572" arabic-form="final" 
d="M518 1628q-53 -38 -118 -45q-67 -7 -141 -6q-34 1 -62 1q-34 -1 -63 -3q-63 -4 -123 -27q39 68 88 96q51 29 105 35q59 6 115 5q68 -3 143 8q72 11 138 59q-32 -86 -82 -123zM526 -27q-154 2 -262 111q-111 110 -111 266v919q0 103 159 54q-13 194 116 194v-1167
q0 -43 30 -72q29 -30 72 -30h62v-275h-66z" />
    <glyph glyph-name="uniFE83" unicode="&#x623;" horiz-adv-x="508" arabic-form="isolated" 
d="M77 1582q0 42 30 72q9 9 25 18q-15 31 -16 64q0 71 46 117q47 47 113 47q60 0 113 -29q52 -30 88 -88l-31 -16q-50 -23 -94 7q-37 25 -76 25q-29 0 -45 -22q-19 -23 -11 -52q6 -20 22 -30q17 -12 36 -12h130q41 0 72 -29q29 -31 29 -72h-431zM425 221q0 -101 -178 -64
q33 -184 -97 -184v1294q0 103 152 62q-5 186 123 186v-1294z" />
    <glyph glyph-name="uniFE84" unicode="&#x623;" horiz-adv-x="559" arabic-form="final" 
d="M77 1582q0 42 30 72q9 9 25 18q-15 31 -16 64q0 71 46 117q47 47 113 47q60 0 113 -29q52 -30 88 -88l-31 -16q-50 -23 -94 7q-37 25 -76 25q-29 0 -45 -22q-19 -23 -11 -52q6 -20 22 -30q17 -12 36 -12h130q41 0 72 -29q29 -31 29 -72h-431zM523 -27q-154 2 -262 111
q-111 110 -111 266v919q0 103 174 50q-28 198 101 198v-1167q0 -43 30 -72q29 -30 72 -30h62v-275h-66z" />
    <glyph glyph-name="uniFE85" unicode="&#x624;" horiz-adv-x="897" arabic-form="isolated" 
d="M378 278q30 -30 71 -30q40 0 71 29q28 28 30 71v266q-79 -19 -141 -101q-61 -82 -61 -165q0 -41 30 -70zM156 633q81 131 243 213q163 80 426 80v-709q-9 -267 -191 -443q-183 -174 -478 -171l126 81q-126 129 57 220q91 39 108 64q4 4 2 5q-154 0 -266 110
q-110 112 -110 265q0 152 83 285zM229 1000q0 42 30 72q9 9 25 18q-15 31 -16 64q0 71 46 117q47 47 113 47q60 0 113 -29q52 -30 88 -88l-31 -16q-50 -23 -94 7q-37 25 -76 25q-29 0 -45 -22q-19 -23 -11 -52q6 -20 22 -30q17 -12 36 -12h130q41 0 72 -29q29 -31 29 -72
h-431z" />
    <glyph glyph-name="uniFE86" unicode="&#x624;" horiz-adv-x="978" arabic-form="final" 
d="M374 279q30 -30 71 -30h112q-12 27 -12 102v264q-78 -19 -140 -101q-61 -82 -61 -165q0 -41 30 -70zM1008 248v-275h-82q-90 0 -142 26q-57 -165 -221 -283q-166 -118 -408 -112l126 65q-126 144 58 235q90 40 107 64l3 4q1 2 0 1q-156 0 -266 110q-110 112 -110 265
q0 152 83 285q81 131 243 213q163 80 425 80v-576q0 -43 30 -72q30 -30 72 -30h82zM229 1000q0 42 30 72q9 9 25 18q-15 31 -16 64q0 71 46 117q47 47 113 47q60 0 113 -29q52 -30 88 -88l-31 -16q-50 -23 -94 7q-37 25 -76 25q-29 0 -45 -22q-19 -23 -11 -52q6 -20 22 -30
q17 -12 36 -12h130q41 0 72 -29q29 -31 29 -72h-431z" />
    <glyph glyph-name="uniFE87" unicode="&#x625;" horiz-adv-x="508" arabic-form="isolated" 
d="M47 -416q0 41 30 71q9 9 25 18q-15 31 -16 65q0 70 46 116q47 47 113 47q60 0 113 -29q52 -30 88 -88l-31 -15q-49 -22 -94 6q-37 25 -76 25q-29 0 -45 -22q-18 -23 -11 -52q6 -20 22 -30q17 -12 36 -12h130q41 0 72 -29q29 -31 29 -71h-431zM425 221q0 -101 -167 -104
q22 -144 -108 -144v1294q0 103 175 38q-28 210 100 210v-1294z" />
    <glyph glyph-name="uniFE88" unicode="&#x625;" horiz-adv-x="509" arabic-form="final" 
d="M97 -416q0 41 30 71q9 9 25 18q-15 31 -16 65q0 70 46 116q47 47 113 47q60 0 113 -29q52 -30 88 -88l-31 -15q-49 -22 -94 6q-37 25 -76 25q-29 0 -45 -22q-18 -23 -11 -52q6 -20 22 -30q17 -12 36 -12h130q41 0 72 -29q29 -31 29 -71h-431zM523 -27q-154 2 -262 111
q-111 110 -111 266v919q0 103 198 54q-52 194 77 194v-1167q0 -43 30 -72q29 -30 72 -30h62v-275h-66z" />
    <glyph glyph-name="uniFE89" unicode="&#x626;" horiz-adv-x="1389" arabic-form="isolated" 
d="M1312 249q0 -289 -186 -469q-185 -179 -457 -176q-243 15 -409 179q-165 164 -183 406q-4 320 248 529l-22 -183q163 -7 91 -149q-44 -80 -43 -172q7 -136 96 -229q90 -94 225 -106q154 -5 260 96q23 21 2 -7q18 2 18 4q1 1 -15 1q-156 0 -266 111q-110 112 -110 265
q0 152 83 285q82 131 243 213q164 80 424 80q6 -127 -111 -117q20 -156 -130 -188q-113 -27 -173 -108q-61 -82 -61 -165q0 -41 30 -70q30 -30 71 -30h375zM175 850q0 42 30 72q10 9 25 18q-14 31 -16 64q0 71 46 117q47 47 113 47q60 0 113 -29q53 -30 88 -88l-31 -16
q-49 -23 -94 7q-36 25 -76 25q-28 0 -45 -22q-18 -23 -11 -52q7 -20 22 -30q17 -12 36 -12h130q42 0 72 -29q29 -31 29 -72h-431z" />
    <glyph glyph-name="uniFE8A" unicode="&#x626;" horiz-adv-x="1523" arabic-form="final" 
d="M1395 350q0 -42 30 -72t72 -30h56v-275h-56q-156 0 -266 110q-111 111 -111 267v270q31 16 24 16q-47 -7 -73 -14q-117 -35 -175 -113q-60 -78 -60 -160q0 -33 20 -59q19 -26 49 -37l20 -3q4 -1 14 -1q1 -1 -4 -1h1q123 0 196 -81q74 -79 78 -187q5 -108 -79 -196
q-184 -183 -462 -180q-244 15 -409 178q-164 163 -183 407q-4 320 248 530l-30 -189q171 -2 98 -145q-47 -83 -41 -187q13 -129 98 -216q87 -88 213 -102q165 -9 271 96q1 1 1 0l-47 1q-6 0 -11 1q-138 26 -227 129q-89 104 -89 242q0 224 174 392q175 168 511 186h149v-577
zM174 850q0 42 30 72q10 9 25 18q-14 31 -16 64q0 71 46 117q47 47 113 47q60 0 113 -29q53 -30 88 -88l-31 -16q-49 -23 -94 7q-36 25 -76 25q-28 0 -45 -22q-18 -23 -11 -52q7 -20 22 -30q17 -12 36 -12h130q42 0 72 -29q29 -31 29 -72h-431z" />
    <glyph glyph-name="uniFE8B" unicode="&#x626;" horiz-adv-x="746" arabic-form="initial" 
d="M398 678q0 103 164 82q-18 167 111 167v-577q0 -155 -110 -267q-112 -110 -267 -110h-343v275h343q44 0 72 30q30 30 30 72v328zM420 950q0 41 -29 72q-31 29 -72 29h-131q-18 0 -35 12q-16 10 -22 30q-8 30 10 52t45 22q39 0 77 -25q44 -30 94 -7l31 16q-35 57 -89 88
q-53 29 -113 29q-65 0 -112 -47q-46 -46 -46 -117q1 -33 16 -64q-16 -9 -25 -18q-30 -30 -30 -72h431z" />
    <glyph glyph-name="uniFE8C" unicode="&#x626;" horiz-adv-x="809" arabic-form="medial" 
d="M398 678q0 103 163 58q-17 191 112 191l1 -577q0 -42 30 -72q29 -30 72 -30h63v-275h-63q-152 0 -240 85q-88 -85 -240 -85h-343v275h343q42 0 72 30t30 72v328z" />
    <glyph glyph-name="uniFE8D" unicode="&#x627;" horiz-adv-x="508" arabic-form="isolated" 
d="M425 221q0 -101 -163 -88q18 -160 -112 -160v1294q0 103 199 50q-52 198 76 198v-1294z" />
    <glyph glyph-name="uniFE8E" unicode="&#x627;" horiz-adv-x="559" arabic-form="final" 
d="M523 -27q-154 2 -262 111q-111 110 -111 266v919q0 103 198 46q-52 202 77 202v-1167q0 -43 30 -72q29 -30 72 -30h62v-275h-66z" />
    <glyph glyph-name="uniFE8F" unicode="&#x628;" horiz-adv-x="1607" arabic-form="isolated" 
d="M1167 248q42 0 72 30t30 72v329q0 102 186 53q-41 195 89 195v-577q0 -155 -110 -267q-112 -110 -267 -110h-707q-155 0 -267 110q-110 112 -110 267v437q130 0 97 -174q178 29 178 -74v-189q0 -42 30 -72t72 -30h707zM926 -402q-46 -45 -110 -45t-111 45q-45 47 -45 111
t45 110q46 46 111 46q64 0 110 -46t46 -110q0 -65 -46 -111z" />
    <glyph glyph-name="uniFE90" unicode="&#x628;" horiz-adv-x="1669" arabic-form="final" 
d="M915 -401q-46 -46 -110 -46t-110 46t-46 110t46 110t110 46t110 -46t46 -110t-46 -110zM450 -27q-155 0 -267 110q-110 112 -110 267v437q129 0 127 -186q148 41 148 -62v-189q0 -42 30 -72q29 -30 72 -30h706q44 0 72 30q30 30 30 72v329q0 102 163 65q-17 183 113 183
v-577q0 -42 30 -72t72 -30h63v-275h-63q-152 0 -240 85q-88 -85 -240 -85h-706z" />
    <glyph glyph-name="uniFE91" unicode="&#x628;" horiz-adv-x="586" arabic-form="initial" 
d="M238 678q0 103 182 70q-37 179 93 179v-577q0 -155 -110 -267q-112 -110 -267 -110h-183v275h183q42 0 72 30t30 72v328zM270 -401q-46 -46 -110 -46t-110 46t-46 110t46 110t110 46t110 -46t46 -110t-46 -110z" />
    <glyph glyph-name="uniFE92" unicode="&#x628;" horiz-adv-x="697" arabic-form="medial" 
d="M50 -401q-46 46 -46 110t46 110t110 46t110 -46t46 -110t-46 -110t-110 -46t-110 46zM615 -27q-151 0 -240 85q-88 -85 -239 -85h-183v275h183q42 0 72 30t30 72v328q0 103 163 42q-18 207 112 207v-577q0 -42 30 -72t72 -30h112v-275h-112z" />
    <glyph glyph-name="uniFE93" unicode="&#x629;" horiz-adv-x="962" arabic-form="isolated" 
d="M613 699q-265 -78 -265 -318q0 -55 39 -94t94 -39q56 0 93 39q39 39 39 94v318zM462 1139q-46 -46 -110 -46t-110 46t-46 110t46 110t110 46t110 -46t46 -110t-46 -110zM889 381q0 -168 -119 -289q-121 -119 -281 15q-177 -134 -297 -14q-119 121 -119 288q0 166 90 310
q88 143 265 231q176 87 461 87v-628zM792 1139q-46 -46 -111 -46q-64 0 -110 46t-46 110t46 110t110 46q65 0 111 -46q45 -46 45 -110q0 -63 -45 -110z" />
    <glyph glyph-name="uniFE94" unicode="&#x629;" horiz-adv-x="1062" arabic-form="final" 
d="M462 1139q-46 -46 -110 -46t-110 46t-46 110t46 110t110 46t110 -46t46 -110t-46 -110zM792 1139q-46 -46 -111 -46q-64 0 -110 46t-46 110t46 110t110 46q65 0 111 -46q45 -46 45 -110q0 -63 -45 -110zM492 248q72 -1 144 -72q73 -72 73 -203h-248q-139 0 -259 120
q-119 121 -119 288q0 166 90 310q88 143 265 231q176 87 461 87v-659q0 -42 30 -72q29 -30 72 -30h111v-275h-111q-155 0 -267 110q-111 111 -111 267v349q-265 -78 -265 -318q0 -55 39 -94t64 -39h31z" />
    <glyph glyph-name="uniFE95" unicode="&#x62a;" horiz-adv-x="1607" arabic-form="isolated" 
d="M1156 248q44 0 72 30q30 30 30 72v329q0 102 179 37q-33 211 97 211v-577q0 -156 -111 -267q-112 -110 -267 -110h-706q-155 0 -267 110q-110 112 -110 267v437q129 0 111 -178q164 33 164 -70v-189q0 -42 30 -72q29 -30 72 -30h706zM731 839q-46 -46 -110 -46t-110 46
t-46 110t46 110t110 46t110 -46t46 -110t-46 -110zM1061 839q-46 -46 -111 -46q-64 0 -110 46t-46 110t46 110t110 46q65 0 111 -46q45 -46 45 -110q0 -63 -45 -110z" />
    <glyph glyph-name="uniFE96" unicode="&#x62a;" horiz-adv-x="1669" arabic-form="final" 
d="M731 839q-46 -46 -110 -46t-110 46t-46 110t46 110t110 46t110 -46t46 -110t-46 -110zM450 -27q-155 0 -267 110q-110 112 -110 267v437q129 0 108 -190q167 45 167 -58v-189q0 -42 30 -72q29 -30 72 -30h706q44 0 72 30q30 30 30 72v329q0 102 175 33q-29 215 101 215
v-577q0 -42 30 -72t72 -30h63v-275h-63q-152 0 -240 85q-88 -85 -240 -85h-706zM1061 839q-46 -46 -111 -46q-64 0 -110 46t-46 110t46 110t110 46q65 0 111 -46q45 -46 45 -110q0 -63 -45 -110z" />
    <glyph glyph-name="uniFE97" unicode="&#x62a;" horiz-adv-x="688" arabic-form="initial" 
d="M199 1039q-46 -46 -110 -46t-110 46t-46 110t46 110t110 46t110 -46t46 -110t-46 -110zM340 678q0 103 187 58q-42 191 88 191v-577q0 -155 -110 -267q-112 -110 -267 -110h-283v275h283q42 0 72 30t30 72v328zM529 1039q-46 -46 -111 -46q-64 0 -110 46t-46 110t46 110
t110 46q65 0 111 -46q45 -46 45 -110q0 -63 -45 -110z" />
    <glyph glyph-name="uniFE98" unicode="&#x62a;" horiz-adv-x="749" arabic-form="medial" 
d="M529 1039q-46 -46 -111 -46q-64 0 -110 46t-46 110t46 110t110 46q65 0 111 -46q45 -46 45 -110q0 -63 -45 -110zM199 1039q-46 -46 -110 -46t-110 46t-46 110t46 110t110 46t110 -46t46 -110t-46 -110zM339 678q0 103 163 62q-18 187 112 187v-577q0 -42 30 -72t72 -30
h63v-275h-63q-151 0 -240 85q-88 -85 -239 -85h-283v275h283q42 0 72 30t30 72v328z" />
    <glyph glyph-name="uniFE99" unicode="&#x62b;" horiz-adv-x="1607" arabic-form="isolated" 
d="M1156 248q44 0 72 30q30 30 30 72v329q0 102 179 61q-33 187 97 187v-577q0 -156 -111 -267q-112 -110 -267 -110h-706q-155 0 -267 110q-110 112 -110 267v437q129 0 139 -178q136 33 136 -70v-189q0 -42 30 -72q29 -30 72 -30h706zM731 839q-46 -46 -110 -46t-110 46
t-46 110t46 110t110 46t110 -46t46 -110t-46 -110zM896 1123q-46 -46 -110 -46q-65 0 -111 46q-45 47 -45 110q0 65 45 111q47 45 111 45t110 -45q46 -46 46 -111q0 -64 -46 -110zM1061 839q-46 -46 -111 -46q-64 0 -110 46t-46 110t46 110t110 46q65 0 111 -46
q45 -46 45 -110q0 -63 -45 -110z" />
    <glyph glyph-name="uniFE9A" unicode="&#x62b;" horiz-adv-x="1669" arabic-form="final" 
d="M731 839q-46 -46 -110 -46t-110 46t-46 110t46 110t110 46t110 -46t46 -110t-46 -110zM450 -27q-155 0 -267 110q-110 112 -110 267v437q129 0 127 -174q148 29 148 -74v-189q0 -42 30 -72q29 -30 72 -30h706q44 0 72 30q30 30 30 72v329q0 102 163 85q-17 163 113 163
v-577q0 -42 30 -72t72 -30h63v-275h-63q-152 0 -240 85q-88 -85 -240 -85h-706zM896 1123q-46 -46 -110 -46q-65 0 -111 46q-45 47 -45 110q0 65 45 111q47 45 111 45t110 -45q46 -46 46 -111q0 -64 -46 -110zM1061 839q-46 -46 -111 -46q-64 0 -110 46t-46 110t46 110
t110 46q65 0 111 -46q45 -46 45 -110q0 -63 -45 -110z" />
    <glyph glyph-name="uniFE9B" unicode="&#x62b;" horiz-adv-x="707" arabic-form="initial" 
d="M529 1009q-46 -46 -111 -46q-64 0 -110 46t-46 110t46 110t110 46q65 0 111 -46q45 -46 45 -110q0 -63 -45 -110zM199 1009q-46 -46 -110 -46t-110 46t-46 110t46 110t110 46t110 -46t46 -110t-46 -110zM359 678q0 103 171 78q-26 171 104 171v-577q0 -155 -110 -267
q-112 -110 -267 -110h-303v275h303q42 0 72 30t30 72v328zM364 1293q-46 -46 -110 -46q-65 0 -111 46q-45 47 -45 110q0 65 45 111q47 45 111 45t110 -45q46 -46 46 -111q0 -64 -46 -110z" />
    <glyph glyph-name="uniFE9C" unicode="&#x62b;" horiz-adv-x="769" arabic-form="medial" 
d="M199 1009q-46 -46 -110 -46t-110 46t-46 110t46 110t110 46t110 -46t46 -110t-46 -110zM359 678q0 103 159 58q-14 191 116 191v-577q0 -42 30 -72t72 -30h63v-275h-63q-151 0 -240 85q-88 -85 -239 -85h-303v275h303q42 0 72 30t30 72v328zM364 1293q-46 -46 -110 -46
q-65 0 -111 46q-45 47 -45 110q0 65 45 111q47 45 111 45t110 -45q46 -46 46 -111q0 -64 -46 -110zM529 1009q-46 -46 -111 -46q-64 0 -110 46t-46 110t46 110t110 46q65 0 111 -46q45 -46 45 -110q0 -63 -45 -110z" />
    <glyph glyph-name="uniFE9D" unicode="&#x62c;" horiz-adv-x="1294" arabic-form="isolated" 
d="M537 -27q-80 -3 -135 -58q-54 -55 -54 -134t57 -135q56 -57 135 -57h213q103 0 74 -159q174 14 174 -116h-461q-195 0 -332 138q-135 140 -135 343q9 184 131 310q121 126 304 142q11 1 36 1h378q-40 211 -151 308q-112 95 -220 95q-52 0 -105 -29q-52 -31 -80 -88
q-69 -119 -170 23l-123 -142q1 226 133 364q129 136 329 147h37q12 0 21 -1q167 -12 309 -117q143 -104 231 -304t88 -531h-684zM932 -341q-46 -45 -110 -45t-111 45q-45 47 -45 111t45 110q46 46 111 46q64 0 110 -46t46 -110q0 -65 -46 -111z" />
    <glyph glyph-name="uniFE9E" unicode="&#x62c;" horiz-adv-x="1221" arabic-form="final" 
d="M932 -341q-45 -45 -110 -45t-110 45q-46 46 -46 111q0 64 46 110q45 46 110 46t110 -46q46 -46 46 -110q0 -65 -46 -111zM537 -27q-80 -3 -135 -58q-54 -55 -54 -134t57 -135q57 -57 135 -57h213q104 0 62 -183q186 38 186 -92h-461q-196 0 -331 138q-136 139 -136 343
q11 185 131 310q121 125 304 142q11 1 36 1h379q-42 213 -152 308q-112 95 -220 95q-52 0 -104 -29q-53 -30 -81 -88q-68 -119 -187 19l-106 -138q3 228 133 364q131 137 330 147h36q12 0 21 -1q166 -12 310 -117q142 -103 231 -305q52 -120 70 -256h47v-275z" />
    <glyph glyph-name="uniFE9F" unicode="&#x62c;" horiz-adv-x="1284" arabic-form="initial" 
d="M721 -401q-46 -46 -110 -46t-110 46t-46 110t46 110t110 46t110 -46t46 -110t-46 -110zM63 415q1 226 133 364q129 136 329 147h3q2 1 12 1l43 -2q167 -12 309 -117q143 -104 231 -304t88 -531h-1258v275h959q-40 211 -151 308q-112 95 -220 95q-52 0 -105 -29
q-52 -31 -80 -88q-68 -119 -155 47z" />
    <glyph glyph-name="uniFEA0" unicode="&#x62c;" horiz-adv-x="1211" arabic-form="medial" 
d="M721 -401q-46 -46 -110 -46t-110 46t-46 110t46 110t110 46t110 -46t46 -110t-46 -110zM912 248q-40 211 -151 308q-112 95 -220 95q-52 0 -105 -29q-52 -31 -80 -88q-68 -119 -171 43l-122 -162q1 226 133 364q129 136 329 147h3q2 1 12 1l43 -2q167 -12 309 -117
q141 -103 232 -305q52 -120 70 -255h47v-275h-1288v275h959z" />
    <glyph glyph-name="uniFEA1" unicode="&#x62d;" horiz-adv-x="1294" arabic-form="isolated" 
d="M537 -27q-80 -3 -135 -58q-54 -55 -54 -134t57 -135q56 -57 135 -57h213q103 0 34 -175q214 30 214 -100h-461q-195 0 -332 138q-135 140 -135 343q9 184 131 310q121 126 304 142q11 1 36 1h378q-40 211 -151 308q-112 95 -220 95q-52 0 -105 -29q-52 -31 -80 -88
q-69 -119 -143 67l-150 -186q1 226 133 364q129 136 329 147h37q12 0 21 -1q167 -12 309 -117q143 -104 231 -304t88 -531h-684z" />
    <glyph glyph-name="uniFEA2" unicode="&#x62d;" horiz-adv-x="1221" arabic-form="final" 
d="M537 -27q-80 -3 -135 -58q-54 -55 -54 -134t57 -135q57 -57 135 -57h213q104 0 54 -179q194 34 194 -96h-461q-196 0 -331 138q-136 139 -136 343q11 185 131 310q121 125 304 142q11 1 36 1h379q-42 213 -152 308q-112 95 -220 95q-52 0 -104 -29q-53 -30 -81 -88
q-68 -119 -166 35l-127 -154q3 228 133 364q131 137 330 147h36q12 0 21 -1q166 -12 310 -117q142 -103 231 -305q52 -120 70 -256h47v-275z" />
    <glyph glyph-name="uniFEA3" unicode="&#x62d;" horiz-adv-x="1284" arabic-form="initial" 
d="M63 415q1 226 133 364q129 136 329 147h3q2 1 12 1l43 -2q167 -12 309 -117q143 -104 231 -304t88 -531h-1258v275h959q-40 211 -151 308q-112 95 -220 95q-52 0 -105 -29q-52 -31 -80 -88q-68 -119 -155 55z" />
    <glyph glyph-name="uniFEA4" unicode="&#x62d;" horiz-adv-x="1211" arabic-form="medial" 
d="M912 248q-40 211 -151 308q-112 95 -220 95q-52 0 -105 -29q-52 -31 -80 -88q-68 -119 -163 15l-130 -134q1 226 133 364q129 136 329 147h3q2 1 12 1l43 -2q167 -12 309 -117q141 -103 232 -305q52 -120 70 -255h47v-275h-1288v275h959z" />
    <glyph glyph-name="uniFEA5" unicode="&#x62e;" horiz-adv-x="1294" arabic-form="isolated" 
d="M537 -27q-80 -3 -135 -58q-54 -55 -54 -134t57 -135q56 -57 135 -57h213q103 0 58 -191q190 46 190 -84h-461q-195 0 -332 138q-135 140 -135 343q9 184 131 310q121 126 304 142q11 1 36 1h378q-40 211 -151 308q-112 95 -220 95q-52 0 -105 -29q-52 -31 -80 -88
q-69 -119 -167 15l-126 -134q1 226 133 364q129 136 329 147h37q12 0 21 -1q167 -12 309 -117q143 -104 231 -304t88 -531h-684zM674 1039q-46 -46 -110 -46t-110 46t-46 110t46 110t110 46t110 -46t46 -110t-46 -110z" />
    <glyph glyph-name="uniFEA6" unicode="&#x62e;" horiz-adv-x="1221" arabic-form="final" 
d="M674 1039q-45 -46 -110 -46q-64 0 -110 46q-46 48 -46 110t46 110q46 46 110 46q65 0 110 -46q46 -46 46 -110t-46 -110zM537 -27q-80 -3 -135 -58q-54 -55 -54 -134t57 -135q57 -57 135 -57h213q104 0 70 -171q178 26 178 -104h-461q-196 0 -331 138q-136 139 -136 343
q11 185 131 310q121 125 304 142q11 1 36 1h379q-42 213 -152 308q-112 95 -220 95q-52 0 -104 -29q-53 -30 -81 -88q-68 -119 -179 27l-114 -146q3 228 133 364q131 137 330 147h36q12 0 21 -1q166 -12 310 -117q142 -103 231 -305q52 -120 70 -256h47v-275z" />
    <glyph glyph-name="uniFEA7" unicode="&#x62e;" horiz-adv-x="1284" arabic-form="initial" 
d="M620 1038q-46 -45 -110 -45t-111 45q-45 47 -45 111t45 110q46 46 111 46q64 0 110 -46t46 -110q0 -65 -46 -111zM63 415q1 226 133 364q129 136 329 147h3q2 1 12 1l43 -2q167 -12 309 -117q143 -104 231 -304t88 -531h-1258v275h959q-40 211 -151 308q-112 95 -220 95
q-52 0 -105 -29q-52 -31 -80 -88q-68 -119 -155 15z" />
    <glyph glyph-name="uniFEA8" unicode="&#x62e;" horiz-adv-x="1211" arabic-form="medial" 
d="M620 1038q-46 -45 -110 -45t-111 45q-45 47 -45 111t45 110q46 46 111 46q64 0 110 -46t46 -110q0 -65 -46 -111zM912 248q-40 211 -151 308q-112 95 -220 95q-52 0 -105 -29q-52 -31 -80 -88q-68 -119 -151 55l-142 -174q1 226 133 364q129 136 329 147h3q2 1 12 1
l43 -2q167 -12 309 -117q141 -103 232 -305q52 -120 70 -255h47v-275h-1288v275h959z" />
    <glyph glyph-name="uniFEA9" unicode="&#x62f;" horiz-adv-x="1077" arabic-form="isolated" 
d="M252 927q204 0 340 -47q134 -46 227 -127q92 -82 138 -185q47 -105 47 -219q0 -103 -51 -189q-50 -85 -136 -136q-85 -51 -189 -51h-590q0 130 168 116q-21 159 80 159h342q41 0 71 30t30 71q0 82 -61 164t-173 109l-86 18q-70 15 8 161q-165 -38 -165 32v94z" />
    <glyph glyph-name="uniFEAA" unicode="&#x62f;" horiz-adv-x="1148" arabic-form="final" 
d="M1178 248v-275h-89q-144 0 -228 78q-87 -78 -230 -78h-593q0 129 167 96q-21 179 81 179h345q41 0 68 30q28 30 31 71q0 87 -61 166q-60 79 -174 106l-85 19q-73 15 -4 137q-153 -14 -153 55v95q264 0 424 -81q161 -81 244 -211q84 -130 84 -284q0 -44 30 -73
q29 -30 73 -30h70z" />
    <glyph glyph-name="uniFEAB" unicode="&#x630;" horiz-adv-x="1077" arabic-form="isolated" 
d="M518 1038q-46 -45 -111 -45q-63 0 -110 45q-46 46 -46 111q0 64 46 110t110 46q65 0 111 -46q45 -46 45 -110t-45 -111zM252 927q204 0 340 -47q134 -46 227 -127q92 -82 138 -185q47 -105 47 -219q0 -103 -51 -189q-50 -85 -136 -136q-85 -51 -189 -51h-590
q0 130 172 88q-25 187 76 187h342q41 0 71 30t30 71q0 82 -61 164t-173 109l-86 18q-70 15 12 137q-169 -14 -169 56v94z" />
    <glyph glyph-name="uniFEAC" unicode="&#x630;" horiz-adv-x="1148" arabic-form="final" 
d="M1178 248v-275h-89q-144 0 -228 78q-87 -78 -230 -78h-593q0 129 168 103q-22 172 80 172h345q41 0 68 30q28 30 31 71q0 87 -61 166q-60 79 -174 106l-85 19q-73 15 -4 145q-153 -22 -153 47v95q264 0 424 -81q161 -81 244 -211q84 -130 84 -284q0 -44 30 -73
q29 -30 73 -30h70zM518 1038q-46 -45 -111 -45q-63 0 -110 45q-46 46 -46 111q0 64 46 110t110 46q65 0 111 -46q45 -46 45 -110t-45 -111z" />
    <glyph glyph-name="uniFEAD" unicode="&#x631;" horiz-adv-x="565" arabic-form="isolated" 
d="M492 222q0 -262 -186 -442q-185 -179 -483 -176l123 62q-123 148 60 239q211 103 211 317v457q0 102 175 37q-30 211 100 211v-705z" />
    <glyph glyph-name="uniFEAE" unicode="&#x631;" horiz-adv-x="616" arabic-form="final" 
d="M492 351q0 -43 30 -72q30 -30 72 -30h52v-276h-52q-94 0 -141 25q-35 -110 -146 -217q-186 -180 -484 -177l182 73q-182 137 1 228q211 103 211 317v457q0 102 175 61q-30 187 100 187v-576z" />
    <glyph glyph-name="uniFEAF" unicode="&#x632;" horiz-adv-x="565" arabic-form="isolated" 
d="M430 1039q-46 -46 -110 -46t-110 46t-46 110t46 110t110 46t110 -46t46 -110t-46 -110zM492 222q0 -262 -186 -442q-185 -179 -483 -176l115 89q-115 121 68 212q211 103 211 317v457q0 102 175 53q-30 195 100 195v-705z" />
    <glyph glyph-name="uniFEB0" unicode="&#x632;" horiz-adv-x="616" arabic-form="final" 
d="M430 1039q-46 -46 -110 -46t-110 46t-46 110t46 110t110 46t110 -46t46 -110t-46 -110zM492 351q0 -43 30 -72q30 -30 72 -30h52v-276h-52q-94 0 -141 25q-35 -110 -146 -217q-186 -180 -484 -177l123 89q-123 121 60 212q211 103 211 317v457q0 102 163 41
q-18 207 112 207v-576z" />
    <glyph glyph-name="uniFEB1" unicode="&#x633;" horiz-adv-x="2270" arabic-form="isolated" 
d="M1897 273q25 24 25 59v347q0 102 147 57q-2 191 128 191v-632q0 -134 -94 -228t-228 -94h-74q-114 0 -184 56q-69 -56 -184 -56h-74q-61 0 -91 11q-35 -101 -141 -203q-186 -180 -458 -177q-243 15 -408 178q-164 163 -184 407q-4 320 249 530l-30 -189q170 -4 98 -145
q-43 -76 -42 -171q6 -136 96 -229q88 -94 224 -106q154 -6 259 95q106 99 106 247v318q0 103 191 78q-44 170 84 170v-455q0 -35 25 -59q24 -25 59 -25q36 0 59 25q25 24 25 59v277q0 103 178 70q-32 178 97 178v-525q0 -35 24 -59q24 -25 59 -25q36 0 59 25z" />
    <glyph glyph-name="uniFEB2" unicode="&#x633;" horiz-adv-x="2418" arabic-form="final" 
d="M1480 609q0 103 159 50q-14 198 116 198v-525q0 -35 24 -59q24 -25 59 -25t60 25q24 24 24 59v348q0 101 156 40q-11 207 119 207v-577q0 -42 30 -72t72 -30h149v-275h-149q-137 0 -222 71q-74 -71 -202 -71h-74q-114 0 -184 56q-69 -56 -184 -56h-74q-61 0 -91 11
q-36 -103 -141 -203q-186 -180 -458 -177q-243 15 -408 178q-164 163 -184 407q-4 320 249 530l-30 -177q170 -16 98 -157q-42 -76 -42 -171q6 -136 96 -229q90 -94 224 -106q154 -6 259 95q106 99 106 247v318q0 103 183 34q-36 214 92 214v-455q0 -35 25 -59
q24 -25 59 -25t60 25q24 24 24 59v277z" />
    <glyph glyph-name="uniFEB3" unicode="&#x633;" horiz-adv-x="1516" arabic-form="initial" 
d="M283 539q0 103 140 73q6 176 135 176v-456q0 -35 25 -59q24 -25 59 -25t59 25q25 24 25 59v277q0 102 155 53q-10 195 120 195v-525q0 -35 24 -59q24 -25 59 -25t59 25q25 24 25 59v346q0 103 163 54q-18 195 112 195v-632q0 -134 -94 -228t-228 -94h-74q-114 0 -184 56
q-70 -56 -184 -56h-74q-128 0 -202 71q-85 -71 -222 -71h-228v275h228q44 0 72 30q30 30 30 72v189z" />
    <glyph glyph-name="uniFEB4" unicode="&#x633;" horiz-adv-x="1643" arabic-form="medial" 
d="M283 539q0 103 188 74q-42 175 87 175v-456q0 -35 25 -59q24 -25 59 -25t59 25q25 24 25 59v277q0 102 178 49q-33 199 97 199v-525q0 -35 24 -59q24 -25 59 -25t59 25q25 24 25 59v346q0 103 174 38q-29 211 101 211v-577q0 -42 30 -72t72 -30h128v-275h-128
q-137 0 -222 71q-74 -71 -202 -71h-74q-114 0 -184 56q-70 -56 -184 -56h-74q-128 0 -202 71q-85 -71 -222 -71h-228v275h228q44 0 72 30q30 30 30 72v189z" />
    <glyph glyph-name="uniFEB5" unicode="&#x634;" horiz-adv-x="2270" arabic-form="isolated" 
d="M1897 273q25 24 25 59v347q0 102 166 41q-21 207 109 207v-632q0 -134 -94 -228t-228 -94h-74q-114 0 -184 56q-69 -56 -184 -56h-74q-61 0 -91 11q-35 -101 -141 -203q-186 -180 -458 -177q-243 15 -408 178q-164 163 -184 407q-4 320 249 530l-38 -201q178 8 106 -133
q-43 -76 -42 -171q6 -136 96 -229q88 -94 224 -106q154 -6 259 95q106 99 106 247v318q0 103 187 34q-40 214 88 214v-455q0 -35 25 -59q24 -25 59 -25q36 0 59 25q25 24 25 59v277q0 103 174 22q-28 226 101 226v-525q0 -35 24 -59q24 -25 59 -25q36 0 59 25zM1547 1009
q-46 -46 -110 -46t-110 46t-46 110t46 110t110 46t110 -46t46 -110t-46 -110zM1712 1293q-46 -46 -110 -46q-65 0 -111 46q-45 47 -45 110q0 65 45 111q47 45 111 45t110 -45q46 -46 46 -111q0 -64 -46 -110zM1877 1009q-46 -46 -111 -46q-64 0 -110 46t-46 110t46 110
t110 46q65 0 111 -46q45 -46 45 -110q0 -63 -45 -110z" />
    <glyph glyph-name="uniFEB6" unicode="&#x634;" horiz-adv-x="2418" arabic-form="final" 
d="M1552 1009q-44 -46 -110 -46q-65 0 -110 46q-46 46 -46 110t46 110q45 46 110 46q66 0 110 -46q46 -46 46 -110t-46 -110zM1480 609q0 103 184 26q-39 222 91 222v-525q0 -35 24 -59q24 -25 59 -25t60 25q24 24 24 59v348q0 101 176 28q-31 219 99 219v-577q0 -42 30 -72
t72 -30h149v-275h-149q-137 0 -222 71q-74 -71 -202 -71h-74q-114 0 -184 56q-69 -56 -184 -56h-74q-61 0 -91 11q-36 -103 -141 -203q-186 -180 -458 -177q-243 15 -408 178q-164 163 -184 407q-4 320 249 530l-22 -189q162 -4 90 -145q-42 -76 -42 -171q6 -136 96 -229
q90 -94 224 -106q154 -6 259 95q106 99 106 247v318q0 103 191 26q-44 222 84 222v-455q0 -35 25 -59q24 -25 59 -25t60 25q24 24 24 59v277zM1717 1293q-44 -46 -111 -46q-64 0 -110 46t-46 110q0 65 46 111q47 45 110 45q65 0 111 -45q45 -46 45 -111q0 -63 -45 -110z
M1881 1009q-44 -46 -110 -46q-64 0 -110 46t-46 110t46 110t110 46q66 0 110 -46q46 -46 46 -110t-46 -110z" />
    <glyph glyph-name="uniFEB7" unicode="&#x634;" horiz-adv-x="1516" arabic-form="initial" 
d="M802 1009q-46 -46 -110 -46q-65 0 -111 46q-45 47 -45 110q0 64 45 110q46 46 111 46q64 0 110 -46t46 -110t-46 -110zM283 539q0 103 176 46q-30 203 99 203v-456q0 -35 25 -59q24 -25 59 -25t59 25q25 24 25 59v277q0 102 186 37q-41 211 89 211v-525q0 -35 24 -59
q24 -25 59 -25t59 25q25 24 25 59v346q0 103 182 54q-37 195 93 195v-632q0 -134 -94 -228t-228 -94h-74q-114 0 -184 56q-70 -56 -184 -56h-74q-128 0 -202 71q-85 -71 -222 -71h-228v275h228q44 0 72 30q30 30 30 72v189zM967 1293q-46 -46 -111 -46q-64 0 -110 46
t-46 110q0 65 46 111q47 45 110 45q65 0 111 -45q45 -46 45 -111q0 -63 -45 -110zM1132 1009q-46 -46 -111 -46q-64 0 -110 46t-46 110t46 110t110 46q65 0 111 -46q45 -46 45 -110q0 -63 -45 -110z" />
    <glyph glyph-name="uniFEB8" unicode="&#x634;" horiz-adv-x="1643" arabic-form="medial" 
d="M802 1009q-46 -46 -110 -46q-65 0 -111 46q-45 47 -45 110q0 64 45 110q46 46 111 46q64 0 110 -46t46 -110t-46 -110zM283 539q0 103 172 66q-26 183 103 183v-456q0 -35 25 -59q24 -25 59 -25t59 25q25 24 25 59v277q0 102 171 37q-26 211 104 211v-525q0 -35 24 -59
q24 -25 59 -25t59 25q25 24 25 59v346q0 103 167 26q-22 223 108 223v-577q0 -42 30 -72t72 -30h128v-275h-128q-137 0 -222 71q-74 -71 -202 -71h-74q-114 0 -184 56q-70 -56 -184 -56h-74q-128 0 -202 71q-85 -71 -222 -71h-228v275h228q44 0 72 30q30 30 30 72v189z
M967 1293q-46 -46 -111 -46q-64 0 -110 46t-46 110q0 65 46 111q47 45 110 45q65 0 111 -45q45 -46 45 -111q0 -63 -45 -110zM1132 1009q-46 -46 -111 -46q-64 0 -110 46t-46 110t46 110t110 46q65 0 111 -46q45 -46 45 -110q0 -63 -45 -110z" />
    <glyph glyph-name="uniFEB9" unicode="&#x635;" horiz-adv-x="2258" arabic-form="isolated" 
d="M1714 248q85 6 139 63q56 58 56 139q0 83 -55 139q-54 57 -139 62l-30 -1q-280 -33 -350 -402h379zM1037 682q2 101 167 46q-21 199 108 199v-148q-2 -3 9 5q8 5 35 25q144 104 309 116l49 2l9 -1q197 -11 329 -146q133 -136 133 -330t-133 -330q-131 -136 -329 -147
h-460q-40 -100 -136 -193q-186 -180 -458 -176q-244 15 -409 178q-165 164 -183 407q-4 320 248 530l-38 -193q179 1 107 -141q-44 -78 -43 -171q7 -137 96 -230q90 -93 225 -105q154 -6 259 95q106 99 106 247v461z" />
    <glyph glyph-name="uniFEBA" unicode="&#x635;" horiz-adv-x="2235" arabic-form="final" 
d="M1714 248q87 6 140 63q55 56 55 139t-55 139q-54 57 -139 62l-30 -1q-281 -33 -349 -402h378zM1037 682q2 101 191 10q-45 235 84 235v-148q-2 -3 9 5q8 5 35 25q144 104 309 116l43 2q9 0 12 -1h3q196 -10 330 -146q132 -136 132 -330q0 -126 -40 -199q3 -1 39 -3h81
v-275h-90q-135 8 -226 65q-90 -57 -226 -65h-460q-38 -98 -136 -193q-186 -180 -458 -176q-244 15 -409 178q-165 164 -183 407q-4 320 248 530l-46 -213q187 21 115 -121q-43 -76 -43 -171q7 -137 96 -230q90 -93 225 -105q154 -6 259 95q106 99 106 247v461z" />
    <glyph glyph-name="uniFEBB" unicode="&#x635;" horiz-adv-x="1343" arabic-form="initial" 
d="M799 248q86 6 140 63q56 58 56 139t-56 139q-55 57 -139 62l-30 -1q-281 -33 -350 -402h379zM122 678q0 103 188 18q-42 231 87 231v-148q-2 -3 9 5q8 5 35 25q143 104 309 116l49 2l9 -1q197 -11 329 -146q133 -136 133 -330t-133 -330q-132 -136 -329 -147h-855v275
h169v430z" />
    <glyph glyph-name="uniFEBC" unicode="&#x635;" horiz-adv-x="1320" arabic-form="medial" 
d="M799 248q86 6 140 63q56 58 56 139t-56 139q-55 57 -139 62l-30 -1q-281 -33 -350 -402h379zM122 678q0 103 200 38q-54 211 75 211v-148q-2 -3 9 5q8 5 35 25q143 104 309 116l49 2l9 -1q197 -11 329 -146q133 -136 133 -330q0 -125 -41 -199q5 -2 40 -3h81v-275h-90
q-135 8 -226 65q-91 -57 -226 -65h-855v275h169v430z" />
    <glyph glyph-name="uniFEBD" unicode="&#x636;" horiz-adv-x="2258" arabic-form="isolated" 
d="M1714 248q86 6 140 63q56 58 56 139t-56 139q-54 57 -139 62l-30 -1q-280 -33 -350 -402h379zM1037 682q2 101 179 22q-33 223 96 223v-148q-2 -3 9 5q8 5 35 25q144 104 309 116l43 2q10 0 12 -1h3q197 -11 329 -146q133 -136 133 -330t-133 -330q-131 -136 -329 -147
h-460q-40 -100 -136 -193q-186 -180 -458 -176q-243 15 -408 178q-164 163 -184 407q-4 320 249 530l-38 -181q178 -12 106 -153q-43 -76 -42 -171q6 -136 95 -230q90 -93 225 -105q154 -6 259 95q106 99 106 247v461zM1689 1039q-46 -46 -110 -46t-110 46t-46 110t46 110
t110 46t110 -46t46 -110t-46 -110z" />
    <glyph glyph-name="uniFEBE" unicode="&#x636;" horiz-adv-x="2235" arabic-form="final" 
d="M1714 248q87 6 140 63q55 56 55 139t-55 139q-54 57 -139 62l-30 -1q-281 -33 -349 -402h378zM1037 682q2 101 191 30q-45 215 84 215v-148q-2 -3 9 5q8 5 35 25q144 104 309 116l43 2q9 0 12 -1h3q196 -10 330 -146q132 -136 132 -330q0 -126 -40 -199q3 -1 39 -3h81
v-275h-90q-135 8 -226 65q-90 -57 -226 -65h-460q-38 -98 -136 -193q-186 -180 -458 -176q-244 15 -409 178q-165 164 -183 407q-4 320 248 530l-22 -201q163 9 91 -133q-43 -76 -43 -171q7 -137 96 -230q90 -93 225 -105q154 -6 259 95q106 99 106 247v461zM1689 1039
q-44 -46 -110 -46q-64 0 -110 46t-46 110t46 110t110 46q66 0 110 -46q46 -46 46 -110t-46 -110z" />
    <glyph glyph-name="uniFEBF" unicode="&#x636;" horiz-adv-x="1343" arabic-form="initial" 
d="M799 248q86 6 140 63q56 58 56 139t-56 139q-55 57 -139 62l-30 -1q-281 -33 -350 -402h379zM789 1039q-46 -46 -110 -46t-110 46t-46 110t46 110t110 46t110 -46t46 -110t-46 -110zM122 678q0 103 188 38q-42 211 87 211v-148q-2 -3 9 5q8 5 35 25q143 104 309 116l49 2
l9 -1q197 -11 329 -146q133 -136 133 -330t-133 -330q-132 -136 -329 -147h-855v275h169v430z" />
    <glyph glyph-name="uniFEC0" unicode="&#x636;" horiz-adv-x="1320" arabic-form="medial" 
d="M799 248q86 6 140 63q56 58 56 139t-56 139q-55 57 -139 62l-30 -1q-281 -33 -350 -402h379zM122 678q0 103 168 58q-22 191 107 191v-148q-2 -3 9 5q8 5 35 25q143 104 309 116l49 2l9 -1q197 -11 329 -146q133 -136 133 -330q0 -125 -41 -199q5 -2 40 -3h81v-275h-90
q-135 8 -226 65q-91 -57 -226 -65h-855v275h169v430zM789 1039q-46 -46 -110 -46t-110 46t-46 110t46 110t110 46t110 -46t46 -110t-46 -110z" />
    <glyph glyph-name="uniFEC1" unicode="&#x637;" horiz-adv-x="1533" arabic-form="isolated" 
d="M989 248q86 6 140 63q56 58 56 139t-56 139q-55 57 -139 62l-30 -1q-281 -33 -350 -402h379zM73 -27q0 130 156 116q-9 159 92 159h-9v1019q0 103 187 42q-41 207 88 207v-737q-2 -3 9 5q8 5 35 25q143 104 309 116l49 2l9 -1q197 -11 329 -146q133 -136 133 -330
t-133 -330q-132 -136 -329 -147h-925z" />
    <glyph glyph-name="uniFEC2" unicode="&#x637;" horiz-adv-x="1511" arabic-form="final" 
d="M989 248q86 6 140 63q56 58 56 139t-56 139q-55 57 -139 62l-29 -1q-282 -33 -351 -402h379zM73 -27q0 130 168 128q-21 147 81 147h-9v1019q0 103 166 50q-21 199 109 199v-737q-4 -5 43 30q143 104 309 116l43 2q10 0 12 -1h3q197 -11 329 -146q133 -136 133 -330
q0 -125 -41 -199q5 -2 40 -3h82v-275h-90q-135 7 -227 65q-91 -57 -226 -65h-925z" />
    <glyph glyph-name="uniFEC3" unicode="&#x637;" horiz-adv-x="1343" arabic-form="initial" 
d="M799 248q86 6 140 63q56 58 56 139t-56 139q-55 57 -139 62l-30 -1q-281 -33 -350 -402h379zM-47 248h169v1019q0 103 168 42q-22 207 107 207v-737q-2 -3 9 5q8 5 35 25q143 104 309 116l49 2l9 -1q197 -11 329 -146q133 -136 133 -330t-133 -330q-132 -136 -329 -147
h-855v275z" />
    <glyph glyph-name="uniFEC4" unicode="&#x637;" horiz-adv-x="1320" arabic-form="medial" 
d="M799 248q86 6 140 63q56 58 56 139t-56 139q-55 57 -139 62l-30 -1q-281 -33 -350 -402h379zM-47 248h169v1019q0 103 172 58q-26 191 103 191v-737q-2 -3 9 5q8 5 35 25q143 104 309 116l49 2l9 -1q197 -11 329 -146q133 -136 133 -330q0 -125 -41 -199q5 -2 40 -3h81
v-275h-90q-135 8 -226 65q-91 -57 -226 -65h-855v275z" />
    <glyph glyph-name="uniFEC5" unicode="&#x638;" horiz-adv-x="1533" arabic-form="isolated" 
d="M989 248q86 6 140 63q56 58 56 139t-56 139q-55 57 -139 62l-30 -1q-281 -33 -350 -402h379zM73 -27q0 130 172 112q-25 163 76 163h-9v1019q0 103 179 62q-33 187 96 187v-737q-2 -3 9 5q8 5 35 25q143 104 309 116l49 2l9 -1q197 -11 329 -146q133 -136 133 -330
t-133 -330q-132 -136 -329 -147h-925zM1024 1039q-46 -46 -110 -46t-110 46t-46 110t46 110t110 46t110 -46t46 -110t-46 -110z" />
    <glyph glyph-name="uniFEC6" unicode="&#x638;" horiz-adv-x="1511" arabic-form="final" 
d="M989 248q86 6 140 63q56 58 56 139t-56 139q-55 57 -139 62l-29 -1q-282 -33 -351 -402h379zM1025 1039q-46 -46 -110 -46t-110 46t-46 110t46 110t110 46t110 -46t46 -110t-46 -110zM73 -27q0 130 164 101q-17 174 85 174h-9v1019q0 103 166 66q-21 183 109 183v-737
q-4 -5 43 30q143 104 309 116l43 2q10 0 12 -1h3q197 -11 329 -146q133 -136 133 -330q0 -125 -41 -199q5 -2 40 -3h82v-275h-90q-135 7 -227 65q-91 -57 -226 -65h-925z" />
    <glyph glyph-name="uniFEC7" unicode="&#x638;" horiz-adv-x="1343" arabic-form="initial" 
d="M799 248q86 6 140 63q56 58 56 139t-56 139q-55 57 -139 62l-30 -1q-281 -33 -350 -402h379zM835 1039q-46 -46 -111 -46q-64 0 -110 46t-46 110t46 110t110 46q65 0 111 -46q45 -46 45 -110q0 -63 -45 -110zM-47 248h169v1019q0 103 168 50q-22 199 107 199v-737
q-2 -3 9 5q8 5 35 25q143 104 309 116l49 2l9 -1q197 -11 329 -146q133 -136 133 -330t-133 -330q-132 -136 -329 -147h-855v275z" />
    <glyph glyph-name="uniFEC8" unicode="&#x638;" horiz-adv-x="1320" arabic-form="medial" 
d="M799 248q86 6 140 63q56 58 56 139t-56 139q-55 57 -139 62l-30 -1q-281 -33 -350 -402h379zM835 1039q-46 -46 -111 -46q-64 0 -110 46t-46 110t46 110t110 46q65 0 111 -46q45 -46 45 -110q0 -63 -45 -110zM-47 248h169v1019q0 103 164 77q-18 172 111 172v-737
q-2 -3 9 5q8 5 35 25q143 104 309 116l49 2l9 -1q197 -11 329 -146q133 -136 133 -330q0 -125 -41 -199q5 -2 40 -3h81v-275h-90q-135 8 -226 65q-91 -57 -226 -65h-855v275z" />
    <glyph glyph-name="uniFEC9" unicode="&#x639;" horiz-adv-x="1239" arabic-form="isolated" 
d="M918 248q102 0 68 -159q180 14 180 -116h-626q-79 0 -135 -56q-57 -57 -57 -136t57 -135q56 -57 135 -57h199q103 0 74 -151q174 6 174 -124h-447q-195 0 -332 138q-135 140 -135 343q9 184 131 310q7 6 9 9q2 2 -2 -1q4 -4 3 -2l-9 9q-132 137 -132 330q0 194 133 330
q132 135 329 146h3q2 1 12 1l43 -2q298 -20 508 -352l-202 95q-43 -164 -165 -78q-70 52 -160 60l-31 1q-82 -4 -137 -59q-55 -57 -58 -138q2 -84 58 -142q58 -58 143 -64h369z" />
    <glyph glyph-name="uniFECA" unicode="&#x639;" horiz-adv-x="1259" arabic-form="final" 
d="M921 581q-48 50 -158 70q-3 1 -10 1q-223 20 -350 -105q28 -37 100 -106q83 -76 130 -102q48 -27 56 -27q74 -9 164 29q91 39 111 138q6 50 -43 102zM1168 249h121v-275h-321q-94 0 -206 27q-92 -27 -215 -27q-79 0 -136 -56q-56 -58 -56 -136q0 -79 56 -135
q57 -57 136 -57h189q102 0 82 -159q167 12 167 -116h-438q-197 0 -332 138q-135 140 -135 343q9 184 131 310q80 81 139 102q-98 81 -185 198q-95 125 -80 175q238 387 718 342q223 -37 337 -175q113 -136 97 -303q-26 -146 -69 -196z" />
    <glyph glyph-name="uniFECB" unicode="&#x639;" horiz-adv-x="1247" arabic-form="initial" 
d="M926 248q102 0 72 -144q176 -2 176 -131h-1221v275h168q-40 65 -40 201q0 194 133 330q132 136 329 147l58 -2q298 -20 508 -352l-187 73q-59 -142 -179 -55q-70 52 -161 60l-31 1q-83 -6 -137 -60q-55 -57 -58 -137q1 -85 58 -143q59 -59 143 -63h369z" />
    <glyph glyph-name="uniFECC" unicode="&#x639;" horiz-adv-x="1298" arabic-form="medial" 
d="M923 581q-47 50 -157 70q-3 1 -11 1q-222 20 -350 -105q28 -37 100 -106q83 -76 130 -102q48 -27 57 -27q75 -9 163 29q92 39 111 138q6 51 -43 102zM967 -27q-90 0 -200 26q-83 -25 -199 -26h-615v275h354q-58 49 -140 158q-95 125 -80 175q239 387 719 342
q222 -37 337 -175q113 -136 96 -303q-25 -147 -69 -197h158v-275h-361z" />
    <glyph glyph-name="uniFECD" unicode="&#x63a;" horiz-adv-x="1239" arabic-form="isolated" 
d="M918 248q102 0 88 -171q160 26 160 -104h-626q-79 0 -135 -56q-57 -57 -57 -136t57 -135q56 -57 135 -57h199q103 0 78 -167q170 22 170 -108h-447q-195 0 -332 138q-135 140 -135 343q9 184 131 310q7 6 9 9q2 2 -2 -1q4 -4 3 -2l-9 9q-132 137 -132 330q0 194 133 330
q132 135 329 146h3q2 1 12 1l43 -2q298 -20 508 -352l-175 79q-70 -148 -192 -62q-70 52 -160 60l-31 1q-82 -4 -137 -59q-55 -57 -58 -138q2 -84 58 -142q58 -58 143 -64h369zM657 1038q-46 -45 -110 -45t-111 45q-45 47 -45 111t45 110q46 46 111 46q64 0 110 -46t46 -110
q0 -65 -46 -111z" />
    <glyph glyph-name="uniFECE" unicode="&#x63a;" horiz-adv-x="1269" arabic-form="final" 
d="M921 580q-48 50 -158 70q-3 1 -10 1q-223 20 -350 -105q28 -37 100 -106q83 -76 130 -102q48 -27 56 -27q74 -9 164 29q91 39 111 138q6 50 -43 102zM788 1039q-46 -46 -110 -46q-66 0 -110 46q-46 46 -46 110t46 110q44 46 110 46q64 0 110 -46q46 -48 46 -110t-46 -110
zM1168 248h131v-275h-331q-94 0 -206 27q-92 -27 -215 -27q-79 0 -136 -56q-56 -58 -56 -136q0 -79 56 -135q57 -57 136 -57h189q102 0 82 -163q167 16 167 -112h-438q-197 0 -332 138q-135 140 -135 343q9 184 131 310q80 81 139 102q-98 81 -185 198q-95 125 -80 175
q238 387 718 342q223 -37 337 -175q113 -136 97 -303q-26 -146 -69 -196z" />
    <glyph glyph-name="uniFECF" unicode="&#x63a;" horiz-adv-x="1247" arabic-form="initial" 
d="M626 1038q-46 -45 -111 -45q-63 0 -110 45q-46 46 -46 111q0 64 46 110t110 46q65 0 111 -46q45 -46 45 -110t-45 -111zM926 248q102 0 175 -73t73 -202h-1221v275h168q-40 65 -40 201q0 194 133 330q132 136 329 147l58 -2q298 -20 508 -352l-167 60q-79 -129 -199 -42
q-70 52 -161 60l-31 1q-83 -6 -137 -60q-55 -57 -58 -137q1 -85 58 -143q59 -59 143 -63h369z" />
    <glyph glyph-name="uniFED0" unicode="&#x63a;" horiz-adv-x="1298" arabic-form="medial" 
d="M923 581q-47 50 -157 70q-3 1 -11 1q-222 20 -350 -105q28 -37 100 -106q83 -76 130 -102q48 -27 57 -27q75 -9 163 29q92 39 111 138q6 51 -43 102zM761 1038q-46 -45 -110 -45t-111 45q-45 47 -45 111t45 110q46 46 111 46q64 0 110 -46t46 -110q0 -65 -46 -111z
M967 -27q-90 0 -200 26q-83 -25 -199 -26h-615v275h354q-58 49 -140 158q-95 125 -80 175q239 387 719 342q222 -37 337 -175q113 -136 96 -303q-25 -147 -69 -197h158v-275h-361z" />
    <glyph glyph-name="uniFED1" unicode="&#x641;" horiz-adv-x="1662" arabic-form="isolated" 
d="M1314 892q-79 -19 -140 -101t-61 -165q0 -40 30 -70t71 -30q42 0 70 30q30 29 30 70v266zM1214 251q-156 0 -266 110q-110 112 -110 265t83 286q82 131 243 212q163 80 425 80v-854q0 -155 -110 -267q-112 -110 -267 -110h-762q-155 0 -267 110q-110 112 -110 267v356
q130 0 128 -167q147 21 147 -81v-108q0 -43 30 -72q30 -30 72 -30h762q43 0 73 30q12 12 -4 -27h-67zM1339 1279q-46 -46 -110 -46t-110 46t-46 110t46 110t110 46t110 -46t46 -110t-46 -110z" />
    <glyph glyph-name="uniFED2" unicode="&#x641;" horiz-adv-x="1680" arabic-form="final" 
d="M1314 614q-78 -19 -140 -101q-61 -82 -61 -165q0 -40 30 -70t70 -30q42 0 72 30q29 29 29 72v264zM1340 1039q-46 -46 -110 -46q-65 0 -111 46q-45 47 -45 110q0 64 45 110q46 46 111 46q64 0 110 -46t46 -110t-46 -110zM450 -27q-155 0 -267 110q-110 112 -110 267v356
q130 0 120 -183q155 37 155 -65v-108q0 -43 30 -72q30 -30 72 -30h398q-10 26 -10 100q0 152 83 285q81 131 243 213q163 80 425 80v-578q0 -74 -10 -100h131v-275h-1260z" />
    <glyph glyph-name="uniFED3" unicode="&#x641;" horiz-adv-x="875" arabic-form="initial" 
d="M527 892q-79 -19 -140 -101t-61 -164q0 -41 30 -71t71 -30q42 0 70 30q30 29 30 71v265zM568 1279q-46 -46 -111 -46q-64 0 -110 46t-46 110t46 110t110 46q65 0 111 -46q45 -46 45 -110q0 -63 -45 -110zM494 251h-67q-156 0 -266 110q-110 112 -110 266q0 152 83 285
q82 131 243 212q163 80 425 80v-854q0 -155 -110 -267q-112 -110 -267 -110h-472v275h472q43 0 73 30q12 12 -4 -27z" />
    <glyph glyph-name="uniFED4" unicode="&#x641;" horiz-adv-x="952" arabic-form="medial" 
d="M560 278q29 29 29 72v264q-78 -19 -140 -101q-61 -82 -61 -165q0 -40 30 -70t70 -30q42 0 72 30zM586 1039q-46 -46 -110 -46t-110 46t-46 110t46 110t110 46t110 -46t46 -110t-46 -110zM-47 248h170q-10 26 -10 100q0 152 83 285q81 131 243 213q163 80 425 80v-578
q0 -74 -10 -100h128v-275h-1029v275z" />
    <glyph glyph-name="uniFED5" unicode="&#x642;" horiz-adv-x="1385" arabic-form="isolated" 
d="M1037 614q-80 -20 -140 -100q-61 -82 -61 -165q0 -41 30 -71t71 -30t71 30q29 29 29 71v265zM911 1039q-46 -46 -110 -46t-110 46t-46 110t46 110t110 46t110 -46t46 -110t-46 -110zM1312 221q0 -261 -186 -441q-185 -179 -457 -176q-243 15 -408 178q-164 163 -184 407
q-4 320 249 530l-26 -185q166 -6 94 -149q-43 -76 -42 -171q6 -136 96 -229q88 -94 224 -106q154 -5 260 96q23 21 2 -7q18 2 18 4q1 1 -15 1q-156 0 -266 111q-110 112 -110 265q0 152 83 285t243 212q162 81 425 81v-706zM1241 1039q-46 -46 -111 -46q-64 0 -110 46
t-46 110t46 110t110 46q65 0 111 -46q45 -46 45 -110q0 -63 -45 -110z" />
    <glyph glyph-name="uniFED6" unicode="&#x642;" horiz-adv-x="1470" arabic-form="final" 
d="M1049 248q-11 30 -11 102v264q-80 -19 -140 -101q-61 -82 -61 -165q0 -40 30 -70t71 -30h111zM1243 1039q-45 -46 -110 -46q-66 0 -110 46q-46 46 -46 110t46 110q44 46 110 46q65 0 110 -46t45 -110q0 -63 -45 -110zM1405 -27q-84 1 -130 24q-35 -109 -147 -217
q-187 -180 -458 -177q-243 15 -408 179q-165 163 -184 407q-5 321 249 528l-38 -179q177 -12 106 -153q-42 -78 -42 -172q5 -136 96 -229q90 -95 224 -105q152 -6 260 95q11 11 11 10q1 -2 -10 -16q17 2 18 4q1 1 -14 1q-156 0 -266 110q-110 112 -110 265t83 286
q81 131 244 212q161 80 424 80v-576q1 -44 31 -72q28 -30 72 -30h85v-275h-96zM914 1039q-45 -46 -111 -46q-64 0 -110 46t-46 110t46 110t110 46q66 0 111 -46t45 -110q0 -63 -45 -110z" />
    <glyph glyph-name="uniFED7" unicode="&#x642;" horiz-adv-x="875" arabic-form="initial" 
d="M527 892q-79 -19 -140 -101t-61 -164q0 -41 30 -71t71 -30q42 0 70 30q30 29 30 71v265zM390 1299q-46 -46 -111 -46q-64 0 -110 46t-46 110t46 110t110 46q65 0 111 -46q45 -46 45 -110q0 -63 -45 -110zM494 251h-67q-156 0 -266 110q-110 112 -110 266q0 152 83 285
q82 131 243 212q163 80 425 80v-854q0 -155 -110 -267q-112 -110 -267 -110h-472v275h472q43 0 73 30q12 12 -4 -27zM719 1299q-46 -46 -110 -46q-65 0 -111 46q-45 47 -45 110q0 64 45 110q46 46 111 46q64 0 110 -46t46 -110t-46 -110z" />
    <glyph glyph-name="uniFED8" unicode="&#x642;" horiz-adv-x="952" arabic-form="medial" 
d="M560 278q29 29 29 72v264q-78 -19 -140 -101q-61 -82 -61 -165q0 -40 30 -70t70 -30q42 0 72 30zM447 1039q-46 -46 -111 -46q-64 0 -110 46t-46 110t46 110t110 46q65 0 111 -46q45 -46 45 -110q0 -63 -45 -110zM-47 248h170q-10 26 -10 100q0 152 83 285
q81 131 243 213q163 80 425 80v-578q0 -74 -10 -100h128v-275h-1029v275zM776 1039q-46 -46 -110 -46q-65 0 -111 46q-45 47 -45 110q0 64 45 110q46 46 111 46q64 0 110 -46q45 -46 45 -110q0 -63 -45 -110z" />
    <glyph glyph-name="uniFED9" unicode="&#x643;" horiz-adv-x="1682" arabic-form="isolated" 
d="M460 -27q-155 0 -267 110q-110 112 -110 267v437q130 0 136 -198q139 53 139 -50v-189q0 -42 30 -72t72 -30h762q44 0 72 30q30 30 30 72v917q0 103 171 54q-24 194 104 194v-1165q0 -155 -110 -267q-112 -110 -267 -110h-762zM578 559q0 48 35 85q14 14 30 21
q-18 37 -19 75q0 83 54 138t133 55q72 0 133 -34q59 -33 104 -103l-37 -20q-58 -25 -110 9q-45 30 -90 30q-33 0 -53 -27q-21 -26 -13 -61q7 -22 26 -35q20 -14 42 -14h153q50 0 85 -35q34 -34 34 -84h-507z" />
    <glyph glyph-name="uniFEDA" unicode="&#x643;" horiz-adv-x="1779" arabic-form="final" 
d="M460 -27q-155 0 -267 110q-110 112 -110 267v437q130 0 132 -198q143 53 143 -50v-189q0 -42 30 -72t72 -30h762q44 0 72 30q30 30 30 72v917q0 103 199 42q-52 206 76 206v-1165q0 -42 30 -72t72 -30h108v-275h-108q-151 0 -240 85q-88 -85 -239 -85h-762zM578 559
q0 48 35 85q14 14 30 21q-18 37 -19 75q0 83 54 138t133 55q72 0 133 -34q59 -33 104 -103l-37 -20q-58 -25 -110 9q-45 30 -90 30q-33 0 -53 -27q-21 -26 -13 -61q7 -22 26 -35q20 -14 42 -14h153q50 0 85 -35q34 -34 34 -84h-507z" />
    <glyph glyph-name="uniFEDB" unicode="&#x643;" horiz-adv-x="1629" arabic-form="initial" 
d="M-47 -27v275h1189q53 0 91 38t38 91t-38 91t-91 38h-1061v161q0 95 78 164l778 630q82 -102 -94 -207q155 -94 75 -163l-383 -310h607q169 0 286 -118q118 -118 118 -286t-118 -286q-117 -118 -286 -118h-1189z" />
    <glyph glyph-name="uniFEDC" unicode="&#x643;" horiz-adv-x="1610" arabic-form="medial" 
d="M1142 -27h-1189v275h1189q53 0 91 38t38 91t-38 91t-91 38h-1061v161q0 95 78 164l778 630q82 -102 -83 -199q144 -102 64 -171l-383 -310h607q169 0 286 -118q118 -118 118 -286q0 -86 -20 -132q-9 3 13 3h101v-275h-138q-108 0 -179 41q-74 -41 -181 -41z" />
    <glyph glyph-name="uniFEDD" unicode="&#x644;" horiz-adv-x="1405" arabic-form="isolated" 
d="M1322 221q0 -261 -185 -440q-186 -180 -458 -177q-242 15 -408 179q-164 163 -184 406q-4 321 249 529l-18 -187q158 -4 86 -145q-43 -78 -42 -172q6 -136 96 -229q88 -94 224 -106q154 -5 259 95q106 100 106 248v1048q0 102 152 53q-6 195 123 195v-1297z" />
    <glyph glyph-name="uniFEDE" unicode="&#x644;" horiz-adv-x="1507" arabic-form="final" 
d="M1322 351q0 -43 30 -72q30 -30 72 -30h113v-276h-113q-92 0 -141 25q-35 -112 -146 -217q-186 -180 -458 -177q-242 15 -408 179q-164 163 -184 406q-4 321 249 529l-34 -191q174 0 102 -141q-42 -78 -42 -172q6 -136 96 -229q90 -94 224 -106q154 -5 259 95
q106 100 106 248v1048q0 102 163 33q-17 215 112 215v-1167z" />
    <glyph glyph-name="uniFEDF" unicode="&#x644;" horiz-adv-x="569" arabic-form="initial" 
d="M486 350q0 -155 -110 -267q-112 -110 -267 -110h-156v275h156q44 0 72 30q30 29 30 72v919q0 103 160 46q-13 202 115 202v-1167z" />
    <glyph glyph-name="uniFEE0" unicode="&#x644;" horiz-adv-x="650" arabic-form="medial" 
d="M584 -27q-147 1 -236 85q-88 -85 -239 -85h-156v275h156q44 0 72 30q30 29 30 72v919q0 103 160 50q-13 198 115 198v-1167q0 -43 30 -72q30 -30 72 -30h92v-275h-96z" />
    <glyph glyph-name="uniFEE1" unicode="&#x645;" horiz-adv-x="1317" arabic-form="isolated" 
d="M913 267q46 33 46 82q0 92 -65 171q-64 78 -136 102v-264q0 -59 53 -97q56 -27 102 6zM942 837q146 -88 219 -222q73 -133 73 -266q0 -166 -123 -277q-122 -112 -298 -97q-147 23 -238 129q-92 109 -92 251v279q-53 -12 -88 -74q-37 -61 -37 -170v-829q0 -101 -175 -72
q30 -176 -100 -176v1094q0 225 132 372q132 146 361 146q220 0 366 -88z" />
    <glyph glyph-name="uniFEE2" unicode="&#x645;" horiz-adv-x="1356" arabic-form="final" 
d="M913 267q46 33 46 82q0 92 -65 171q-64 78 -136 102v-264q0 -59 53 -97q56 -27 102 6zM1265 277q29 -29 71 -29h50v-275h-50q-170 5 -237 88q-116 -100 -286 -86q-147 23 -238 129q-92 109 -92 251v279q-53 -12 -88 -74q-37 -61 -37 -170v-829q0 -101 -163 -60
q18 -188 -112 -188v1094q0 225 132 372q132 146 361 146q220 0 366 -88t219 -222q73 -133 73 -266q2 -43 31 -72z" />
    <glyph glyph-name="uniFEE3" unicode="&#x645;" horiz-adv-x="1042" arabic-form="initial" 
d="M483 349q0 -42 30 -71q29 -30 71 -30t70 30q30 30 30 71q0 82 -61 164t-140 101v-265zM208 927q263 0 425 -81q161 -79 244 -212q82 -131 82 -285t-110 -266q-110 -110 -265 -110q-149 0 -239 84q-90 -84 -239 -84h-153v275h153q44 0 72 30q30 30 30 72v577z" />
    <glyph glyph-name="uniFEE4" unicode="&#x645;" horiz-adv-x="1081" arabic-form="medial" 
d="M483 349q0 -42 30 -71q29 -30 71 -30t70 30q30 30 30 71q0 82 -61 164t-140 101v-265zM345 57q-90 -84 -239 -84h-153v275h153q44 0 72 30q30 30 30 72v577q263 0 425 -81q161 -79 244 -212q82 -131 82 -285q2 -43 31 -72t71 -29h50v-275h-50q-151 0 -239 85
q-89 -85 -238 -85t-239 84z" />
    <glyph glyph-name="uniFEE5" unicode="&#x646;" horiz-adv-x="1405" arabic-form="isolated" 
d="M1047 679q0 102 151 49q-6 199 124 199v-705q0 -262 -186 -442q-185 -179 -457 -176q-243 15 -409 179q-165 164 -183 406q-4 320 248 529l-22 -187q163 -2 90 -145q-43 -78 -42 -172q7 -136 96 -229q90 -94 225 -106q154 -5 259 95q106 100 106 248v457zM824 819
q-46 -46 -110 -46t-110 46t-46 110t46 110t110 46t110 -46t46 -110t-46 -110z" />
    <glyph glyph-name="uniFEE6" unicode="&#x646;" horiz-adv-x="1512" arabic-form="final" 
d="M825 819q-44 -46 -111 -46q-64 0 -110 46t-46 110t46 110t110 46q67 0 111 -46q45 -46 45 -110q0 -63 -45 -110zM1047 679q0 102 179 37q-33 211 96 211v-576q0 -43 30 -72q30 -30 72 -30h118v-276h-118q-92 0 -141 25q-35 -112 -146 -217q-186 -180 -458 -177
q-242 15 -408 179q-164 163 -184 406q-4 321 249 529l-34 -191q174 0 102 -141q-42 -78 -42 -172q6 -136 96 -229q90 -94 224 -106q154 -5 259 95q106 100 106 248v457z" />
    <glyph glyph-name="uniFEE7" unicode="&#x646;" horiz-adv-x="626" arabic-form="initial" 
d="M268 678q0 103 180 50q-34 199 95 199v-577q0 -155 -110 -267q-112 -110 -267 -110h-213v275h213q42 0 72 30t30 72v328zM290 1039q-46 -46 -111 -46q-64 0 -110 46t-46 110t46 110t110 46q65 0 111 -46q45 -46 45 -110q0 -63 -45 -110z" />
    <glyph glyph-name="uniFEE8" unicode="&#x646;" horiz-adv-x="678" arabic-form="medial" 
d="M289 1039q-46 -46 -110 -46t-110 46t-46 110t46 110t110 46t110 -46t46 -110t-46 -110zM268 678q0 103 171 58q-26 191 104 191v-577q0 -42 30 -72t72 -30h63v-275h-63q-151 0 -240 85q-88 -85 -239 -85h-213v275h213q42 0 72 30t30 72v328z" />
    <glyph glyph-name="uniFEE9" unicode="&#x647;" horiz-adv-x="982" arabic-form="isolated" 
d="M623 699q-265 -78 -265 -318q0 -55 39 -94t94 -39q56 0 93 39q39 39 39 94v318zM899 381q0 -168 -119 -289q-121 -119 -269 0q-189 -119 -309 1q-119 121 -119 288q0 166 90 310q88 143 265 231q176 87 461 87v-628z" />
    <glyph glyph-name="uniFEEA" unicode="&#x647;" horiz-adv-x="1082" arabic-form="final" 
d="M492 248q72 -1 65 -131q152 -13 152 -144h-248q-139 0 -259 120q-119 121 -119 288q0 166 90 310q88 143 265 231q176 87 461 87v-659q0 -42 30 -72q29 -30 72 -30h111v-275h-111q-155 0 -267 110q-111 111 -111 267v349q-265 -78 -265 -318q0 -55 39 -94t64 -39h31z" />
    <glyph glyph-name="uniFEEB" unicode="&#x647;" horiz-adv-x="1464" arabic-form="initial" 
d="M677 248q-48 180 -200 197l-18 1q-42 -3 -68 -31q-28 -28 -28 -68t28 -68q26 -28 68 -31h218zM-47 -27v275h146q-11 28 -11 99q0 152 104 259q103 106 259 115l46 -2q161 -10 290 -132q129 -123 174 -339h123q-83 483 -475 525l-2 1q-9 1 -25 1h-12q-63 -3 -114 -25
q-112 -43 -102 113l-212 -10q179 184 422 197h17q18 0 52 -2q198 -13 368 -131q171 -119 275 -346q105 -226 105 -598h-1428z" />
    <glyph glyph-name="uniFEEC" unicode="&#x647;" horiz-adv-x="1469" arabic-form="medial" 
d="M677 248q-48 180 -200 197l-18 1q-42 -3 -68 -31q-28 -28 -28 -68t28 -68q26 -28 68 -31h218zM1366 248h133v-275h-1546v275h146q-11 28 -11 99q0 152 104 259q103 106 259 115l46 -2q161 -10 290 -132q129 -123 174 -339h123q-83 483 -475 525l-2 1q-9 1 -25 1h-12
q-63 -3 -114 -25q-112 -43 -122 117l-192 -14q179 184 422 197h17q18 0 52 -2q198 -13 368 -131q170 -119 276 -346q66 -145 89 -323z" />
    <glyph glyph-name="uniFEED" unicode="&#x648;" horiz-adv-x="918" arabic-form="isolated" 
d="M388 278q30 -30 71 -30q40 0 71 29q28 28 30 71v266q-79 -19 -141 -101q-61 -82 -61 -165q0 -41 30 -70zM166 633q81 131 243 213q163 80 426 80v-709q-9 -267 -191 -443q-183 -174 -478 -171l126 109q-126 101 57 192q91 39 108 64q5 5 2 5q-154 0 -266 110
q-110 112 -110 265q0 152 83 285z" />
    <glyph glyph-name="uniFEEE" unicode="&#x648;" horiz-adv-x="988" arabic-form="final" 
d="M384 279q30 -30 71 -30h112q-12 27 -12 102v264q-78 -19 -140 -101q-61 -82 -61 -165q0 -41 30 -70zM1018 248v-275h-82q-90 0 -142 26q-57 -165 -221 -283q-166 -118 -408 -112l134 69q-134 140 50 231q90 40 107 64l3 5q-156 0 -266 110q-110 112 -110 265
q0 152 83 285q81 131 243 213q163 80 425 80v-576q0 -43 30 -72q30 -30 72 -30h82z" />
    <glyph glyph-name="uniFEEF" unicode="&#x649;" horiz-adv-x="1409" arabic-form="isolated" 
d="M1322 249q0 -289 -186 -469q-185 -179 -457 -176q-242 15 -408 179q-164 163 -184 406q-4 321 249 529l1 -184q139 -7 67 -148q-43 -78 -42 -172q6 -136 96 -229q88 -94 224 -106q154 -5 260 96q23 21 2 -7q18 2 18 4q1 1 -15 1q-156 0 -266 111q-110 112 -110 265
q0 152 83 285q82 131 243 213q164 80 424 80q6 -127 -153 -145q62 -128 -88 -160q-113 -27 -173 -108q-61 -82 -61 -165q0 -41 30 -70q30 -30 71 -30h375z" />
    <glyph glyph-name="uniFEF0" unicode="&#x649;" horiz-adv-x="1534" arabic-form="final" 
d="M1130 620q31 16 25 16q-47 -7 -74 -14q-117 -35 -175 -113q-60 -78 -60 -160q0 -33 20 -59q21 -27 51 -37l7 -1q8 -2 11 -2q4 -1 19 -1q1 -1 -9 -1h2q122 0 195 -80q75 -80 79 -188q5 -109 -80 -196q-183 -183 -462 -180q-243 15 -408 178q-164 163 -184 407
q-4 320 249 530l-34 -185q174 -8 102 -149q-47 -83 -41 -187q13 -128 97 -216q88 -89 214 -102q164 -9 270 96q1 1 1 0l-47 1q-6 0 -11 1q-137 26 -226 129q-90 102 -90 242q0 224 174 392q175 168 511 186h149v-577q0 -42 30 -72t72 -30h57v-275h-57q-156 0 -266 110
q-111 111 -111 267v270z" />
    <glyph glyph-name="uniFEF1" unicode="&#x64a;" horiz-adv-x="1409" arabic-form="isolated" 
d="M1322 248q0 -288 -186 -468q-185 -179 -457 -176q-243 15 -408 178q-164 163 -184 407q-4 320 249 530l-11 -166q151 -25 79 -168q-43 -76 -42 -171q6 -136 96 -229q88 -94 224 -106q154 -5 260 96q23 21 2 -7q18 2 18 4q1 1 -15 1q-156 0 -266 111q-110 112 -110 265
q0 152 83 285t243 212q162 81 424 81q6 -127 -137 -129q46 -144 -104 -176q-113 -27 -173 -108q-61 -82 -61 -165q0 -41 30 -71t71 -30h375zM644 -701q-46 -46 -110 -46t-110 46t-46 110t46 110t110 46t110 -46t46 -110t-46 -110zM974 -701q-46 -46 -111 -46q-64 0 -110 46
t-46 110t46 110t110 46q65 0 111 -46q45 -46 45 -110q0 -63 -45 -110z" />
    <glyph glyph-name="uniFEF2" unicode="&#x64a;" horiz-adv-x="1534" arabic-form="final" 
d="M974 -701q-44 -46 -111 -46q-64 0 -110 46t-46 110t46 110t110 46q67 0 111 -46q45 -46 45 -110q0 -63 -45 -110zM1130 620q31 16 25 16q-47 -7 -74 -14q-117 -35 -175 -113q-60 -78 -60 -160q0 -33 20 -59q21 -27 51 -37l7 -1q8 -2 11 -2q4 -1 19 -1q1 -1 -9 -1h2
q122 0 195 -80q75 -80 79 -188q5 -109 -80 -196q-183 -183 -462 -180q-243 15 -408 178q-164 163 -184 407q-4 320 249 530l-30 -213q170 20 98 -121q-47 -83 -41 -187q13 -128 97 -216q88 -89 214 -102q164 -9 270 96q1 1 1 0l-47 1q-6 0 -11 1q-137 26 -226 129
q-90 102 -90 242q0 224 174 392q175 168 511 186h149v-577q0 -42 30 -72t72 -30h57v-275h-57q-156 0 -266 110q-111 111 -111 267v270zM644 -701q-44 -46 -110 -46q-64 0 -110 46t-46 110t46 110t110 46q66 0 110 -46q46 -46 46 -110t-46 -110z" />
    <glyph glyph-name="uniFEF3" unicode="&#x64a;" horiz-adv-x="696" arabic-form="initial" 
d="M479 -401q-46 -46 -111 -46q-64 0 -110 46t-46 110t46 110t110 46q65 0 111 -46q45 -46 45 -110q0 -63 -45 -110zM149 -401q-46 -46 -110 -46t-110 46t-46 110t46 110t110 46t110 -46t46 -110t-46 -110zM338 678q0 103 159 46q-14 203 116 203v-577q0 -155 -110 -267
q-112 -110 -267 -110h-283v275h283q42 0 72 30t30 72v328z" />
    <glyph glyph-name="uniFEF4" unicode="&#x64a;" horiz-adv-x="748" arabic-form="medial" 
d="M149 -401q-46 -46 -110 -46t-110 46t-46 110t46 110t110 46t110 -46t46 -110t-46 -110zM338 678q0 103 171 50q-26 199 104 199v-577q0 -42 30 -72t72 -30h63v-275h-63q-151 0 -240 85q-88 -85 -239 -85h-283v275h283q42 0 72 30t30 72v328zM479 -401q-46 -46 -111 -46
q-64 0 -110 46t-46 110t46 110t110 46q65 0 111 -46q45 -46 45 -110q0 -63 -45 -110z" />
    <glyph glyph-name=".notdef" horiz-adv-x="1024" 
 />
    <glyph glyph-name="glyph1" horiz-adv-x="0" 
 />
    <glyph glyph-name="glyph2" horiz-adv-x="450" 
 />
    <glyph glyph-name="space" unicode=" " horiz-adv-x="450" 
 />
    <glyph glyph-name="exclam" unicode="!" horiz-adv-x="699" 
d="M455 133q41 -41 41 -97q0 -57 -40 -96q-40 -40 -97 -40t-96 40q-40 39 -40 96t40 97q39 40 96 40q56 0 96 -40zM348 1404q151 0 151 -221q0 -85 -41 -354q-40 -267 -42 -449q-12 -161 -100 -165l-11 162q-1 174 -49 449q-56 265 -56 360q0 218 148 218z" />
    <glyph glyph-name="quotedbl" unicode="&#x22;" horiz-adv-x="613" 
d="M220 1196q-16 -115 -16 -227h-46q0 109 -15 227q-15 119 -15 176q0 73 53 73q54 0 54 -73q0 -57 -15 -176zM472 1196q-16 -115 -16 -227h-45q0 109 -15 227q-16 115 -16 176q0 73 53 73q54 0 54 -73q0 -57 -15 -176z" />
    <glyph glyph-name="numbersign" unicode="#" horiz-adv-x="1388" 
d="M816 826h-194l-50 -256h194zM1011 826l-49 -256h241l-37 -196h-242l-73 -374h-195l72 374h-194l-73 -374h-195l72 374h-238l37 196h240l49 256h-241l37 197h242l73 373h195l-72 -373h194l73 373h195l-72 -373h238l-37 -197h-240z" />
    <glyph glyph-name="dollar" unicode="$" horiz-adv-x="880" 
d="M200 1301q-100 -100 -100 -241v-43q0 -236 233 -373q233 -136 234 -264v-40q0 -50 -34 -90q-37 -40 -93 -40q-53 0 -90 37q-38 38 -38 90v128h-212v-128q0 -142 100 -239q59 -61 135 -85v-143h68q59 0 102 43q42 42 42 101q76 24 134 84q99 98 99 239v43q0 240 -235 384
q-233 125 -233 252v44q0 52 38 90q37 37 90 37q53 -2 90 -37q37 -37 37 -90v-129h213v129q0 141 -99 241q-58 58 -134 82v144h-70q-59 0 -100 -41q-42 -42 -42 -102q-74 -22 -135 -83z" />
    <glyph glyph-name="percent" unicode="%" horiz-adv-x="1215" 
d="M897 547q0 25 17 42q18 18 42 18q26 0 42 -18q18 -16 18 -42v-338q0 -25 -18 -42q-16 -18 -42 -18q-24 0 -42 18q-17 17 -17 42v338zM199 1174q0 25 17 42q18 18 42 18q25 0 43 -18q17 -17 17 -42v-338q0 -24 -17 -43q-19 -17 -43 -17q-23 0 -42 17q-17 19 -17 43v338z
M748 209q0 -67 61 -113t147 -46q87 0 148 46t61 113v338q0 67 -61 113t-148 46q-86 0 -147 -46t-61 -113v-338zM50 836q0 -67 61 -113q62 -47 147 -47q86 0 148 47q61 46 61 113v338q0 66 -61 112q-62 47 -148 47q-85 0 -147 -47q-61 -46 -61 -112v-338zM385 100
q-24 -46 -71 -63q-48 -16 -96 6l631 1288q26 47 72 63q47 17 95 -6z" />
    <glyph glyph-name="ampersand" unicode="&#x26;" horiz-adv-x="1116" 
d="M605 1078q0 -91 -135 -184l-52 66q-35 56 -37 120q0 48 32 85q33 35 80 35q46 0 79 -35q33 -36 33 -85v-2zM633 386q-44 -99 -77 -127q-56 -59 -134 -59q-77 0 -132 58t-55 142q0 83 56 142q26 27 139 98zM231 744q-36 -24 -72 -61q-109 -116 -109 -283t109 -283
q110 -117 265 -117q156 0 265 117q34 35 56 77l14 33l33 -40q93 -107 224 -107v200q-54 0 -96 56l-71 90q83 132 167 134v200q-191 0 -299 -171l-120 148q195 120 195 343q0 134 -88 226q-88 94 -211 94q-124 0 -212 -94q-87 -93 -87 -226q0 -143 74 -240l39 -48z" />
    <glyph glyph-name="quotesingle" unicode="'" horiz-adv-x="362" 
d="M258 1145l-51 -295h-49l-52 295q-24 137 -24 180q0 47 27 78t73 31q101 0 101 -109q0 -37 -25 -180z" />
    <glyph glyph-name="parenleft" unicode="(" horiz-adv-x="730" 
d="M386 1554q-24 -27 -47 -62l-67 -103l-17 -34l-18 -31l-15 -35q-34 -72 -53 -138q-23 -66 -38 -151q-31 -145 -31 -347q0 -164 32 -338q32 -172 90 -305q131 -282 397 -515q-91 135 -154 284l-34 76l-46 120l-19 68q-42 134 -57 285l-6 39l-8 119l-3 170q0 330 77 594
q76 262 261 556q-146 -127 -244 -252z" />
    <glyph glyph-name="parenright" unicode=")" horiz-adv-x="730" 
d="M362 1250q77 -264 77 -594l-4 -170l-7 -119l-7 -39q-15 -149 -56 -285l-20 -68l-46 -120l-33 -76q-64 -151 -155 -284q267 233 397 515q60 137 91 305t31 338q0 202 -31 347q-15 85 -38 151q-21 74 -53 138l-15 35l-35 65l-66 103q-20 31 -48 62q-98 125 -244 252
q187 -297 262 -556z" />
    <glyph glyph-name="asterisk" unicode="*" horiz-adv-x="1289" 
d="M936 504q38 -35 71 0l164 176q33 35 -5 71l-187 175q-37 38 -72 0l-163 -175q-35 -36 5 -71zM310 494q39 -34 72 0l163 176q34 34 -4 71l-188 175q-38 36 -71 0l-164 -175q-33 -36 5 -71zM601 816q38 -34 72 0l163 176q34 34 -5 72l-187 174q-38 38 -71 0l-164 -174
q-33 -37 5 -72zM643 177q38 -35 71 0l164 177q33 35 -5 71l-187 175q-37 36 -72 0l-163 -175q-35 -36 5 -71z" />
    <glyph glyph-name="plus" unicode="+" horiz-adv-x="1058" 
d="M604 606v-357h-134v357h-370v133h370v364h134v-364h354v-133h-354z" />
    <glyph glyph-name="comma" unicode="," horiz-adv-x="454" 
d="M287 -57q-63 -80 -160 -117l-14 37q157 91 157 205q0 43 -28 43q-8 0 -25 -3l-25 -4q-39 0 -65 27q-27 27 -27 66q0 44 33 72q32 28 78 28q66 0 106 -54q37 -47 37 -116q0 -101 -67 -184z" />
    <glyph glyph-name="hyphen" unicode="-" horiz-adv-x="901" 
d="M100 597v144h701v-144h-701z" />
    <glyph glyph-name="period" unicode="." horiz-adv-x="508" 
d="M346 220q-38 38 -92 38q-53 0 -91 -38t-38 -91t38 -91t91 -38q54 0 92 38q37 37 37 91t-37 91z" />
    <glyph glyph-name="slash" unicode="/" horiz-adv-x="738" 
d="M177 -172h-77l458 1904h80z" />
    <glyph glyph-name="zero" unicode="0" 
d="M302 1062q0 52 38 90t90 38t90 -38q37 -37 37 -90v-722q0 -53 -37 -90q-38 -38 -90 -38t-90 38t-38 90v722zM90 340q0 -141 100 -241q101 -99 240 -99q141 0 240 99q100 100 100 241v722q0 141 -100 241q-99 99 -240 99q-140 0 -241 -99q-99 -100 -99 -241v-722z" />
    <glyph glyph-name="one" unicode="1" horiz-adv-x="798" 
d="M513 1402h-177v2q-100 -145 -246 -189v-65q0 -82 70 -116q71 -35 139 13q1 0 2 1v-836h-26q-77 0 -130 -53q-54 -54 -54 -131v-28h627v28q0 77 -54 131q-55 53 -130 53h-21v1190z" />
    <glyph glyph-name="two" unicode="2" 
d="M557 933q0 -126 -231 -251q-234 -128 -236 -385v-297h680v28q0 77 -54 131q-55 53 -130 53h-284v85q2 128 237 257q231 143 231 377v128q0 139 -103 248q-98 97 -237 97q-141 0 -241 -100q-99 -99 -99 -240v-129h83q54 0 92 38q37 37 37 91q0 52 38 90q37 37 90 37
q52 1 90 -37q37 -37 37 -90v-131z" />
    <glyph glyph-name="three" unicode="3" 
d="M557 937q0 -50 -34 -90q-39 -40 -93 -40v-212q54 0 93 -40q34 -40 34 -89v-124q0 -51 -34 -89q-39 -41 -93 -41q-55 0 -93 41q-35 40 -35 89q0 52 -36 89q-37 36 -89 36h-87v-127q0 -141 100 -241q101 -99 240 -99q140 0 238 97q102 108 102 247v123q0 137 -94 235
q94 97 94 233v127q0 141 -100 241q-99 99 -240 99q-139 0 -240 -99q-100 -100 -100 -241v-44h85q91 0 137 93q10 24 28 41q37 37 89 38q53 0 91 -38q37 -37 37 -90v-125z" />
    <glyph glyph-name="four" unicode="4" horiz-adv-x="902" 
d="M515 923v-456h-185zM515 155q0 -64 46 -109q45 -46 109 -46h57v255h85v127q0 36 -24 61q-25 24 -61 24v935h-229l-408 -935v-212h425v-100z" />
    <glyph glyph-name="five" unicode="5" 
d="M770 682q0 141 -100 240q-99 100 -240 100q-84 0 -128 -24v192h284q76 0 130 54t54 130v28h-680v-720h212q0 52 38 90q37 35 90 37q53 0 90 -37t37 -90v-340q0 -51 -34 -89q-37 -39 -93 -41q-54 2 -90 38q-21 21 -30 46v1q-39 85 -120 85h-100v-42q0 -141 100 -241
q101 -99 240 -99q141 0 240 99q100 100 100 241v342z" />
    <glyph glyph-name="six" unicode="6" 
d="M302 578q0 52 38 90q37 37 90 37t90 -37t37 -90v-238q0 -53 -37 -90q-38 -38 -90 -38t-90 38t-38 90v238zM770 578q0 141 -100 240q-99 100 -240 100q-68 0 -128 -24v168q0 52 38 90q36 36 90 38q52 0 90 -38q11 -11 18 -22q50 -68 124 -68h108q0 141 -100 241
q-99 99 -240 99q-139 0 -240 -99q-100 -100 -100 -241v-722q0 -141 100 -241q101 -99 240 -99q141 0 240 99q100 100 100 241v238z" />
    <glyph glyph-name="seven" unicode="7" 
d="M226 0h74q77 0 135 46q60 48 79 121l256 1023v212h-680v-56q0 -65 46 -110q46 -46 111 -46h293z" />
    <glyph glyph-name="eight" unicode="8" 
d="M302 510q0 52 38 90q37 37 90 37t90 -37t37 -90v-170q0 -53 -37 -90q-38 -38 -90 -38t-90 38t-38 90v170zM557 977q0 -53 -37 -90t-90 -37t-90 37q-38 38 -38 90v85q0 52 38 90t90 38t90 -38q37 -37 37 -90v-85zM90 977q0 -135 93 -233q-93 -97 -93 -234v-170
q0 -141 100 -241q101 -99 240 -99q141 0 240 99q100 100 100 241v170q0 137 -94 234q94 97 94 233v85q0 141 -100 241q-99 99 -240 99q-139 0 -240 -99q-100 -100 -100 -241v-85z" />
    <glyph glyph-name="nine" unicode="9" 
d="M557 824q0 -53 -37 -90t-90 -37t-90 37q-38 38 -38 90v238q0 52 38 90t90 38t90 -38q37 -37 37 -90v-238zM90 824q0 -141 99 -240q100 -100 241 -100q69 0 127 24v-166q0 -51 -34 -89q-38 -41 -93 -41q-52 0 -90 38l-15 17q-61 73 -149 73h-86q0 -140 99 -241
q101 -99 241 -99q139 0 237 97q103 109 103 248v712q0 139 -103 248q-98 97 -237 97q-140 0 -241 -99q-99 -100 -99 -241v-238z" />
    <glyph glyph-name="colon" unicode=":" horiz-adv-x="518" 
d="M168 420q-38 -38 -38 -91t38 -91t91 -38t91 38t38 91t-38 91t-91 38t-91 -38zM168 800q-38 -38 -38 -92q0 -53 38 -91t91 -38t91 38t38 91q0 54 -38 92q-37 37 -91 37t-91 -37z" />
    <glyph glyph-name="semicolon" unicode=";" horiz-adv-x="573" 
d="M350 -61q-68 -86 -172 -127l-15 40q169 97 169 221q0 47 -30 47q-5 0 -11 -1q-8 -1 -16 -3t-16 -3q-6 -1 -11 -1q-41 0 -70 29t-29 71q0 48 36 78q35 30 83 30q72 0 115 -58q40 -52 40 -125q0 -109 -73 -198zM373 857q-34 -29 -81 -29t-79 29q-33 29 -33 74
q0 104 112 104q49 0 81 -28q32 -29 32 -76q0 -45 -32 -74z" />
    <glyph glyph-name="less" unicode="&#x3c;" horiz-adv-x="1169" 
d="M353 696l706 -401v-189l-949 543v94l949 547v-189z" />
    <glyph glyph-name="equal" unicode="=" horiz-adv-x="901" 
d="M100 446v144h701v-144h-701zM100 747v144h701v-144h-701z" />
    <glyph glyph-name="greater" unicode="&#x3e;" horiz-adv-x="1169" 
d="M110 1290l949 -547v-94l-949 -543v189l706 401l-706 405v189z" />
    <glyph glyph-name="question" unicode="?" horiz-adv-x="1232" 
d="M314 868q117 0 117 135q0 84 59 129q53 42 135 42q74 0 122 -42q53 -45 53 -120q0 -108 -87 -194q-43 -43 -162 -159q-87 -109 -87 -272q0 -144 96 -144q48 0 79 43q28 37 28 90q0 130 95 217q12 12 57 50l118 98q95 98 95 239q0 165 -93 280q-111 139 -319 139
q-154 0 -282 -101q-138 -109 -138 -266q0 -164 114 -164zM648 133q40 -40 40 -97t-40 -96q-39 -40 -96 -40t-97 40q-40 39 -40 96q0 56 41 97q40 40 96 40q57 0 96 -40z" />
    <glyph glyph-name="at" unicode="@" horiz-adv-x="1316" 
d="M740 979q13 -32 13 -77q0 -96 -45 -251q-51 -182 -109 -182q-87 0 -87 141q0 109 50 248q58 163 132 163q31 0 46 -42zM938 48q120 51 198 144q26 32 48 75q28 52 28 86q0 25 -13 44q-14 20 -33 20q-35 0 -61 -32l-60 -85q-134 -149 -331 -149q-213 0 -340 133
q-139 145 -139 417q0 264 132 441q134 177 334 177q158 0 264 -115q112 -121 112 -325q0 -105 -29 -198q-32 -104 -92 -158q-45 -42 -71 -42q-28 0 -28 34q0 14 15 129l52 412q1 4 1 9v8q0 75 -73 75q-36 0 -48 -15q-13 -17 -17 -61q-29 50 -57 68q-25 16 -75 16
q-126 0 -217 -163q-84 -148 -84 -319q0 -134 55 -234q62 -110 159 -110q82 0 161 77q35 -77 118 -77q160 0 272 171q107 164 107 375q0 253 -166 422q-154 157 -354 157q-259 0 -435 -209q-181 -215 -181 -552q0 -343 186 -526q166 -166 437 -166q117 0 225 46z" />
    <glyph glyph-name="A" unicode="A" horiz-adv-x="1040" 
d="M401 467l119 558l119 -558h-238zM404 1402l-314 -1402h93q52 0 92 33q40 31 52 84l30 138h326l30 -138q12 -53 52 -84q41 -33 92 -33h93l-314 1402h-232z" />
    <glyph glyph-name="B" unicode="B" 
d="M302 212v383h128q53 0 91 -38q36 -37 36 -90v-127q0 -53 -37 -90q-38 -38 -90 -38h-128zM302 809v381h128q53 -1 91 -39q36 -37 36 -90v-124q0 -54 -37 -91t-90 -37h-128zM770 937v125q0 141 -100 241q-99 99 -240 99h-340v-1402h338q142 0 242 99q100 100 100 241v129
q0 138 -94 235q94 97 94 233z" />
    <glyph glyph-name="C" unicode="C" 
d="M302 1061q0 52 38 90q37 35 90 37q53 0 90 -37t37 -90q0 -52 38 -90t90 -38h85v128q0 141 -100 240q-99 100 -240 100q-140 0 -240 -100q-100 -99 -100 -240v-716q0 -138 102 -248q100 -97 238 -97q141 0 240 99q100 100 100 241v127h-87q-51 0 -89 -36q-37 -37 -37 -89
q0 -46 -28 -83q-41 -47 -100 -47q-49 2 -87 36q-40 37 -40 92v721z" />
    <glyph glyph-name="D" unicode="D" horiz-adv-x="862" 
d="M302 212v978h128q53 0 91 -38q36 -37 36 -90v-722q0 -53 -37 -90q-38 -38 -90 -38h-128zM90 1402v-1402h340q141 0 241 99q101 101 101 241v722q0 141 -100 241q-99 99 -242 99h-340z" />
    <glyph glyph-name="E" unicode="E" horiz-adv-x="732" 
d="M90 0h552v65q0 61 -43 104t-104 43h-193v340h108q60 0 104 44q43 43 43 104v65h-255v425h193q61 0 104 43t43 104v65h-552v-1402z" />
    <glyph glyph-name="F" unicode="F" horiz-adv-x="732" 
d="M90 0h65q61 0 104 43t43 104v405h108q60 0 104 44q43 43 43 104v65h-255v425h193q61 0 104 43t43 104v65h-552v-1402z" />
    <glyph glyph-name="G" unicode="G" horiz-adv-x="862" 
d="M557 342q0 -51 -34 -89q-39 -41 -93 -41q-52 0 -90 38t-38 90v721q0 55 40 92q38 35 88 35q56 0 93 -40q34 -40 34 -89q0 -35 25 -59q24 -24 59 -24h129v85q0 141 -100 240q-99 100 -240 100q-140 0 -240 -100q-100 -99 -100 -240v-721q0 -141 100 -241q101 -99 240 -99
q101 0 180 51l34 -51h128v765h-300v-213h85v-210z" />
    <glyph glyph-name="H" unicode="H" 
d="M557 552v-405q0 -60 44 -104q43 -43 104 -43h65v1402h-65q-61 0 -104 -43q-44 -44 -44 -104v-490h-255v490q0 61 -43 104t-104 43h-65v-1402h65q61 0 104 43t43 104v405h255z" />
    <glyph glyph-name="I" unicode="I" horiz-adv-x="392" 
d="M237 1402q-61 0 -104 -43t-43 -104v-1255h65q61 0 104 43t43 104v1255h-65z" />
    <glyph glyph-name="J" unicode="J" horiz-adv-x="581" 
d="M426 1402q-61 0 -104 -43t-43 -104v-913q0 -16 -12 -48q-13 -31 -53 -56q-41 -26 -124 -26v-212q69 0 151 17q81 17 151 82q99 101 99 241v1062h-65z" />
    <glyph glyph-name="K" unicode="K" horiz-adv-x="879" 
d="M90 0h65q61 0 104 43t43 104v269l92 187l150 -498q44 -105 142 -105h103l-262 874l260 528h-135q-86 0 -134 -86l-216 -470v409q0 61 -43 104t-104 43h-65v-1402z" />
    <glyph glyph-name="L" unicode="L" horiz-adv-x="690" 
d="M90 111q0 -46 33 -78q32 -33 78 -33h399v65q0 61 -43 104t-104 43h-151v1043q0 61 -43 104t-104 43h-65v-1291z" />
    <glyph glyph-name="M" unicode="M" horiz-adv-x="1249" 
d="M1028 1402q-63 0 -113 -39t-66 -103l-220 -930l-232 932q-16 63 -66 102q-50 38 -113 38h-128v-1402h65q61 0 104 43t43 104v800l213 -947h231l201 945v-798q0 -61 43 -104t104 -43h65v1402h-131z" />
    <glyph glyph-name="N" unicode="N" horiz-adv-x="945" 
d="M358 1281q-57 121 -173 121h-95v-1402h65q61 0 104 43t43 104v756l288 -805q47 -98 139 -98h126v1402h-28q-77 0 -131 -54t-54 -130v-723z" />
    <glyph glyph-name="O" unicode="O" 
d="M302 1062q0 52 38 90t90 38t90 -38q37 -37 37 -90v-722q0 -53 -37 -90q-38 -38 -90 -38t-90 38t-38 90v722zM90 340q0 -141 100 -241q101 -99 240 -99q141 0 240 99q100 100 100 241v722q0 141 -100 241q-99 99 -240 99q-140 0 -241 -99q-99 -100 -99 -241v-722z" />
    <glyph glyph-name="P" unicode="P" 
d="M302 552v638h128q53 0 91 -38q36 -37 36 -90v-382q0 -53 -37 -90q-38 -38 -90 -38h-128zM90 1402v-1402h65q61 0 104 43t43 104v193h128q141 0 240 99q100 100 100 241v382q0 141 -99 241q-97 99 -241 99h-340z" />
    <glyph glyph-name="Q" unicode="Q" 
d="M302 1060q0 52 38 90q37 37 90 37t90 -37t37 -90v-723q0 -53 -37 -90t-90 -37t-90 37q-38 38 -38 90v723zM474 -1q23 -37 56 -71l2 -2q74 -63 156 -27q82 34 82 128v13q-53 0 -90 37q-2 3 -7 8q-4 5 -7 7l5 6q99 98 99 239v723q0 141 -100 240q-99 100 -240 100
t-241 -100q-99 -99 -99 -240v-717q0 -140 102 -248q101 -98 238 -98z" />
    <glyph glyph-name="R" unicode="R" horiz-adv-x="868" 
d="M302 552v638h128q53 0 91 -38q36 -37 36 -90v-382q0 -53 -37 -90q-38 -38 -90 -38h-128zM90 1402v-1402h65q61 0 104 43t43 104v193h148l68 -234q43 -106 142 -106h118l-136 415q15 11 29 25q99 99 99 240v382q0 141 -99 241q-97 99 -241 99h-340z" />
    <glyph glyph-name="S" unicode="S" 
d="M90 1020q0 -236 233 -373q232 -136 234 -265v-40q0 -51 -34 -89q-38 -41 -93 -41q-52 0 -90 38t-38 90q0 53 -37 90t-90 37h-85v-122q0 -138 102 -248q100 -97 238 -97q141 0 240 99q100 100 100 241v42q0 240 -235 385q-233 125 -233 251v44q0 52 38 90t90 38
q54 -2 90 -38q37 -37 37 -90t38 -91t92 -38h83v129q0 141 -100 241q-99 99 -240 99q-139 0 -240 -99q-100 -100 -100 -241v-42z" />
    <glyph glyph-name="T" unicode="T" horiz-adv-x="817" 
d="M90 1402v-212h212v-1190h66q61 0 104 43t43 104v1043h212v212h-637z" />
    <glyph glyph-name="U" unicode="U" 
d="M705 1402q-61 0 -104 -43q-44 -44 -44 -104v-913q0 -51 -34 -89q-38 -41 -93 -41t-93 41q-35 40 -35 89v913q0 61 -43 104t-104 43h-65v-1057q0 -138 102 -248q100 -97 238 -97q141 0 240 99q100 100 100 241v1062h-65z" />
    <glyph glyph-name="V" unicode="V" horiz-adv-x="1040" 
d="M636 0l314 1402h-109q-51 0 -92 -33q-42 -34 -52 -85l-177 -886l-177 886q-10 52 -51 85q-40 33 -93 33h-109l314 -1402h232z" />
    <glyph glyph-name="W" unicode="W" horiz-adv-x="1526" 
d="M476 0q55 0 96 35q39 34 50 88l143 870l141 -869q10 -54 51 -89t95 -35h138l246 1402h-101q-55 0 -96 -35q-41 -36 -50 -92l-127 -910l-170 1037h-256l-170 -1043l-129 916q-9 56 -50 92q-41 35 -96 35h-101l246 -1402h140z" />
    <glyph glyph-name="X" unicode="X" horiz-adv-x="947" 
d="M606 94q46 -94 137 -94h112l-275 699l277 703h-112q-91 0 -138 -93l-133 -340l-135 340q-46 93 -137 93h-112l277 -703l-275 -699h112q91 0 137 93l133 337z" />
    <glyph glyph-name="Y" unicode="Y" horiz-adv-x="1015" 
d="M401 0h65q62 0 105 43t43 104v465l311 790h-125q-94 0 -139 -99l-153 -438l-154 439q-45 98 -139 98h-125l311 -790v-612z" />
    <glyph glyph-name="Z" unicode="Z" horiz-adv-x="817" 
d="M90 212v-212h637v65q0 61 -43 104t-104 43h-261l408 978v212h-637v-65q0 -61 43 -104t104 -43h261z" />
    <glyph glyph-name="bracketleft" unicode="[" horiz-adv-x="759" 
d="M325 1435h284v167h-459v-1809h459v180h-284v1462z" />
    <glyph glyph-name="backslash" unicode="\" horiz-adv-x="738" 
d="M180 1732l458 -1904h-77l-461 1904h80z" />
    <glyph glyph-name="bracketright" unicode="]" horiz-adv-x="759" 
d="M150 -27v-180h459v1809h-459v-167h284v-1462h-284z" />
    <glyph glyph-name="asciicircum" unicode="^" horiz-adv-x="1317" 
d="M657 1499l-345 -606h-162l467 815h80l470 -815h-162z" />
    <glyph glyph-name="underscore" unicode="_" horiz-adv-x="1170" 
d="M100 -127v163h970v-163h-970z" />
    <glyph glyph-name="grave" unicode="`" horiz-adv-x="682" 
d="M500 1128l-217 146q-140 95 -140 145q0 60 64 60q67 0 131 -90l188 -261h-26z" />
    <glyph glyph-name="a" unicode="a" 
d="M557 357q0 -70 -37 -107q-38 -38 -90 -38t-90 38t-38 107q0 79 85 119l170 34v-153zM347 688q-256 -77 -257 -331q0 -157 99 -258q101 -99 241 -99q110 0 195 61q47 -44 107 -44h38v799q0 141 -100 240q-100 100 -240 100q-141 0 -241 -100q-99 -99 -99 -240h36
q121 0 215 91q0 1 1 1q36 33 87 35q54 1 94 -40q34 -40 34 -89v-85z" />
    <glyph glyph-name="b" unicode="b" 
d="M302 784q0 50 38 88q37 37 90 37t90 -37t37 -90v-442q0 -53 -37 -90q-38 -38 -90 -38t-90 38t-38 90v444zM90 0h66q58 0 95 51q80 -51 179 -51q141 0 240 99q100 100 100 241v442q0 141 -100 240q-99 100 -240 100q-68 0 -128 -24v157q0 61 -43 104t-104 43h-65v-1402z
" />
    <glyph glyph-name="c" unicode="c" 
d="M302 782q0 52 38 90q37 37 90 37t90 -37t37 -90q0 -17 12 -29t29 -12h172v41q0 141 -100 240q-99 100 -240 100q-138 0 -238 -97q-102 -109 -102 -249v-431q0 -138 102 -248q100 -97 238 -97q141 0 240 99q100 100 100 241v42h-172q-16 0 -29 -11q-12 -12 -12 -29
q0 -51 -34 -89q-38 -41 -93 -41q-52 0 -90 38t-38 90v442z" />
    <glyph glyph-name="d" unicode="d" 
d="M557 784v-444q0 -53 -37 -90q-38 -38 -90 -38t-90 38t-38 90v442q0 52 38 90q37 37 90 37t90 -37t37 -88zM770 1402h-65q-61 0 -104 -43q-44 -44 -44 -104v-157q-58 24 -127 24q-141 0 -241 -100q-99 -99 -99 -240v-442q0 -140 99 -241q101 -99 241 -99q100 0 178 51
q38 -51 96 -51h66v1402z" />
    <glyph glyph-name="e" unicode="e" 
d="M557 697h-255v117q0 52 38 90t90 38t90 -38q37 -37 37 -90v-117zM770 484v330q0 141 -100 241q-99 99 -240 99q-138 0 -238 -97q-102 -109 -102 -248v-464q0 -138 102 -248q100 -97 238 -97q141 0 240 99q100 100 100 241h-105q-79 0 -128 -70q-7 -10 -17 -20
q-38 -38 -90 -38q-55 0 -93 41q-35 40 -35 89v142h468z" />
    <glyph glyph-name="f" unicode="f" horiz-adv-x="631" 
d="M541 824v213h-129v25q0 53 37 90q38 38 90 38v212q-141 0 -240 -99q-100 -100 -100 -241v-25h-109v-213h109v-824h65q62 0 105 43t43 104v677h129z" />
    <glyph glyph-name="g" unicode="g" 
d="M557 323q-6 -42 -37 -73q-38 -37 -92 -37q-52 0 -89 37t-37 90v427q0 52 38 90t90 38t90 -38q34 -34 37 -80v-454zM430 1107q-140 0 -241 -99q-99 -100 -99 -241v-427q0 -141 99 -240q97 -100 239 -100q68 0 129 24v-81q0 -53 -37 -90q-38 -38 -90 -38q-54 2 -90 38
l-12 14q-60 76 -147 76h-91q0 -140 99 -241q101 -99 241 -99q139 0 237 97q103 109 103 248v1159h-66q-58 0 -96 -51q-79 51 -178 51z" />
    <glyph glyph-name="h" unicode="h" 
d="M302 1255q0 61 -43 104t-104 43h-65v-1402h65q61 0 104 43t43 104v635q0 52 38 90q37 37 90 37t90 -37t37 -90v-635q0 -60 44 -104q43 -43 104 -43h65v782q0 158 -100 249q-98 91 -240 91q-68 0 -128 -24v157z" />
    <glyph glyph-name="i" unicode="i" horiz-adv-x="401" 
d="M242 1122q-61 0 -104 -43q-44 -44 -44 -105v-974h65q62 0 105 43t43 104v975h-65zM279 1430q-34 32 -78 32q-46 0 -78 -32q-33 -33 -33 -79t33 -78q32 -32 78 -32q44 0 78 32q32 32 32 78q0 45 -32 79z" />
    <glyph glyph-name="j" unicode="j" horiz-adv-x="414" 
d="M292 1415q-34 32 -78 32q-46 0 -78 -32q-33 -33 -33 -78q0 -46 33 -78q32 -33 78 -33q45 0 78 33q32 32 32 78q0 44 -32 78zM255 1107q-61 0 -104 -43q-44 -44 -44 -104v-1017q0 -53 -37 -90q-38 -38 -90 -38v-212q141 0 241 99q99 101 99 241v1164h-65z" />
    <glyph glyph-name="k" unicode="k" horiz-adv-x="828" 
d="M90 0h65q61 0 104 43t43 104v99l92 187l99 -328q44 -105 142 -105h103l-211 704l197 418h-128q-89 0 -135 -88l-159 -359v580q0 61 -43 104t-104 43h-65v-1402z" />
    <glyph glyph-name="l" unicode="l" horiz-adv-x="392" 
d="M237 1402q-61 0 -104 -43t-43 -104v-1255h65q61 0 104 43t43 104v1255h-65z" />
    <glyph glyph-name="m" unicode="m" horiz-adv-x="1327" 
d="M90 0h65q61 0 104 43t43 104v635q0 52 38 90q37 37 90 37t90 -37t37 -90v-782h65q62 0 105 43t43 104v635q0 53 37 90t90 37t90 -37q38 -38 38 -90v-635q0 -61 43 -104t104 -43h65v782q0 141 -99 240q-100 100 -241 100q-135 0 -233 -94q-97 94 -234 94q-99 0 -179 -51
q-37 51 -95 51h-66v-1122z" />
    <glyph glyph-name="n" unicode="n" 
d="M156 1122h-66v-1122h65q61 0 104 43t43 104v635q0 52 38 90q37 37 90 37t90 -37t37 -90v-635q0 -60 44 -104q43 -43 104 -43h65v782q0 141 -100 240q-99 100 -240 100q-99 0 -179 -51q-37 51 -95 51z" />
    <glyph glyph-name="o" unicode="o" 
d="M302 784q0 52 38 90q37 37 90 37t90 -37t37 -90v-444q0 -53 -37 -90q-38 -38 -90 -38t-90 38t-38 90v444zM90 340q0 -141 100 -241q101 -99 240 -99q141 0 240 99q100 100 100 241v444q0 141 -100 240q-99 99 -240 99q-140 0 -241 -99q-99 -99 -99 -240v-444z" />
    <glyph glyph-name="p" unicode="p" 
d="M302 768q0 53 38 91q37 37 90 37t90 -37t37 -91v-443q0 -53 -37 -90q-38 -38 -90 -38t-90 38t-38 88v445zM90 -397h65q61 0 104 43t43 104v259q60 -24 128 -24q141 0 240 99q100 100 100 241v443q0 142 -100 241q-99 99 -240 99q-99 0 -179 -51q-37 51 -95 51h-66v-1505z
" />
    <glyph glyph-name="q" unicode="q" 
d="M557 325q-1 -52 -39 -90t-90 -38q-51 0 -89 38q-37 37 -37 90v442q0 52 38 90q37 37 90 37t90 -37q34 -34 37 -82v-450zM430 1107q-141 0 -241 -100q-99 -99 -99 -240v-442q0 -140 99 -241q98 -99 239 -99q70 0 128 24v-259q0 -61 43 -104t104 -43h67v1504h-66
q-58 0 -96 -51q-79 51 -178 51z" />
    <glyph glyph-name="r" unicode="r" horiz-adv-x="562" 
d="M302 782q0 54 41 93q38 34 89 34h40v213h-42q-99 0 -179 -51q-37 51 -95 51h-66v-1122h65q61 0 104 43t43 104v635z" />
    <glyph glyph-name="s" unicode="s" 
d="M536 612q-234 92 -234 185v2q0 52 38 81q35 28 83 29q56 2 95 -35q14 -14 19 -22q48 -70 124 -70h109q0 141 -100 240q-99 100 -240 100q-140 0 -240 -91t-100 -232q0 -202 234 -309q233 -107 233 -184q0 -54 -37 -73q-37 -21 -90 -21q-52 0 -90 38q-13 12 -21 26
q-39 64 -105 64h-124q0 -141 100 -241q101 -99 240 -99q142 0 240 82q100 82 100 224q0 215 -234 306z" />
    <glyph glyph-name="t" unicode="t" horiz-adv-x="644" 
d="M90 1122v-213h124v-569q0 -140 99 -241q101 -99 241 -99v111q0 72 -64 118q-17 11 -35 30q-29 38 -29 83v567h128v213h-128v133q0 61 -43 104t-104 43h-65v-280h-124z" />
    <glyph glyph-name="u" unicode="u" 
d="M702 0h68v1122h-65q-61 0 -104 -43q-44 -44 -44 -105v-632q0 -51 -34 -89q-38 -41 -93 -41q-52 0 -90 38t-38 90v634q0 62 -43 105t-104 43h-65v-777q0 -138 102 -248q100 -97 238 -97q101 0 178 49q37 -49 94 -49z" />
    <glyph glyph-name="v" unicode="v" horiz-adv-x="921" 
d="M581 0l250 1122h-98q-53 0 -93 -34q-42 -36 -52 -87l-124 -675l-130 676q-10 53 -51 87q-40 33 -94 33h-99l260 -1122h231z" />
    <glyph glyph-name="w" unicode="w" horiz-adv-x="1387" 
d="M799 122q10 -52 52 -88q40 -34 94 -34h131l221 1122h-94q-55 0 -96 -35q-41 -37 -50 -91l-109 -733l-170 859h-170l-170 -859l-108 733q-11 56 -50 91q-41 35 -96 35h-94l221 -1122h131q55 0 95 34q39 34 50 88l106 600z" />
    <glyph glyph-name="x" unicode="x" horiz-adv-x="812" 
d="M721 1120h-109q-92 0 -139 -98l-67 -187l-67 187q-45 98 -139 98h-108l207 -549l-209 -571h107q94 0 139 100l70 208l70 -208q45 -100 140 -100h106l-210 571z" />
    <glyph glyph-name="y" unicode="y" horiz-adv-x="921" 
d="M351 -19l3 -9q1 -2 1 -6l1 -6q1 -3 1 -6v-5q16 -67 -27 -101q-14 -14 -32 -21q-69 -29 -77 -100v-124q140 0 232 74q90 73 128 308l250 1122h-98q-53 0 -93 -34q-42 -36 -52 -88l-124 -691l-130 693q-10 53 -51 87q-40 33 -94 33h-99z" />
    <glyph glyph-name="z" unicode="z" horiz-adv-x="732" 
d="M90 212v-212h552v65q0 61 -43 104t-104 43h-176l323 697v213h-552v-65q0 -61 43 -104q44 -44 104 -44h176z" />
    <glyph glyph-name="braceleft" unicode="{" horiz-adv-x="1069" 
d="M150 740q205 6 266 85t61 159v559q0 89 92 170q92 80 221 80h129v-60h-107q-73 0 -128 -40q-54 -40 -56 -109v-597q0 -100 -72 -190q-73 -90 -172 -91v-3q98 -1 172 -90q73 -89 73 -189l-1 -597q2 -69 56 -109q56 -41 128 -41h107v-59h-129q-128 0 -220 81
q-91 80 -93 168v559q0 79 -61 158t-266 85v71z" />
    <glyph glyph-name="bar" unicode="|" horiz-adv-x="1044" 
d="M479 -348v1782h88v-1782h-88z" />
    <glyph glyph-name="braceright" unicode="}" horiz-adv-x="1069" 
d="M919 669q-205 -6 -266 -85t-61 -158v-559q-2 -89 -92 -168q-91 -81 -221 -81h-129v59h107q72 0 128 41q54 40 56 109l-1 597q0 100 73 189q74 89 172 90v3q-99 2 -171 91q-73 89 -73 190v597q-2 69 -56 109q-55 40 -128 40h-107v60h129q129 0 221 -80q92 -81 92 -170
v-559q0 -80 61 -159t266 -85v-71z" />
    <glyph glyph-name="asciitilde" unicode="~" horiz-adv-x="1110" 
d="M1096 922q-12 -306 -265 -306q-99 0 -306 91q-208 90 -281 90q-139 0 -172 -181h-58q3 137 64 216q69 90 201 90q81 0 296 -91q222 -94 295 -94q151 0 168 185h58z" />
    <glyph glyph-name="uni007F" horiz-adv-x="1600" 
d="M388 634q-31 12 -100 12h-124v-448h126q102 0 143 41q59 59 59 188q0 166 -104 207zM516 222q-46 -63 -123 -83q-39 -10 -95 -10h-211v586h202q66 0 104 -8q112 -25 156 -142q23 -63 23 -140q0 -126 -56 -203zM1154 129v586h78v-517h288v-69h-366zM642 129v586h424v-69
h-346v-179h324v-69h-324v-200h360v-69h-438z" />
    <glyph glyph-name="uni00A0" unicode="&#xa0;" horiz-adv-x="500" 
 />
    <glyph glyph-name="exclamdown" unicode="&#xa1;" horiz-adv-x="569" 
d="M287 -18q-90 0 -90 156q0 63 33 252q32 184 34 317l1 117h41l1 -115q2 -133 35 -318q33 -186 33 -255q0 -154 -88 -154zM353 921q-27 -27 -64 -27t-63 27q-26 28 -25 65q1 35 27 61q25 25 61 25q38 0 64 -25q26 -26 26 -61q0 -37 -26 -65z" />
    <glyph glyph-name="brokenbar" unicode="&#xa6;" horiz-adv-x="1044" 
d="M479 -348v756h88v-756h-88zM479 678v756h88v-756h-88z" />
    <glyph glyph-name="dieresis" unicode="&#xa8;" horiz-adv-x="682" 
d="M207 1210q-26 -26 -64 -26t-64 26t-26 64t26 64t64 26t64 -26t26 -64t-26 -64zM605 1210q-26 -26 -64 -26t-64 26t-26 64t26 64t64 26t64 -26t26 -64t-26 -64z" />
    <glyph glyph-name="ordfeminine" unicode="&#xaa;" horiz-adv-x="532" 
d="M313 1147q-61 -21 -143 -64q-18 -16 -18 -47q0 -65 63 -65q21 0 98 47v129zM530 987q-87 -72 -143 -72q-57 0 -70 64q-85 -64 -145 -64q-52 0 -89 26q-40 30 -40 81q0 53 53 85q18 11 104 38q82 25 113 43v112q0 36 -24 61q-25 25 -60 25q-29 0 -54 -23q-13 -13 -13 -29
q0 -11 8 -25l-111 -50q-8 11 -8 24q0 19 17 45q28 40 85 74q56 32 103 32q94 0 145 -62q25 -31 25 -67v-263q0 -55 23 -55q36 0 69 35z" />
    <glyph glyph-name="guillemotleft" unicode="&#xab;" horiz-adv-x="778" 
d="M388 594l12 86l16 80l19 68q38 89 81 154q41 63 101 113l47 -28q-36 -61 -60 -129q-26 -65 -41 -138q-35 -145 -35 -295q0 -303 150 -581l-42 -26q-134 105 -197 272q-54 155 -54 332zM115 674l17 84l20 70q60 170 180 267l47 -28q-36 -61 -60 -129q-26 -65 -41 -138
q-35 -154 -35 -295q0 -303 150 -581l-40 -26q-135 105 -200 272q-53 156 -53 332q0 94 15 172z" />
    <glyph glyph-name="logicalnot" unicode="&#xac;" horiz-adv-x="1366" 
d="M1128 498v487h-983v90h1076v-577h-93z" />
    <glyph glyph-name="uni00AD" unicode="&#xad;" horiz-adv-x="1366" 
d="M145 739v90h1076v-90h-1076z" />
    <glyph glyph-name="macron" unicode="&#xaf;" horiz-adv-x="682" 
d="M59 1216v119h564v-119h-564z" />
    <glyph glyph-name="degree" unicode="&#xb0;" horiz-adv-x="811" 
d="M518 1324q-51 30 -112 30q-94 0 -159 -65q-65 -67 -65 -159q0 -93 66 -158q65 -65 158 -65q129 0 193 112q30 51 30 111q0 130 -111 194zM561 865q-70 -42 -155 -42q-128 0 -218 90q-90 89 -90 217q0 176 154 267q71 41 154 41q127 0 217 -90t90 -218q0 -176 -152 -265z
" />
    <glyph glyph-name="plusminus" unicode="&#xb1;" horiz-adv-x="946" 
d="M105 175v83h730v-83h-730zM514 581v-253h-84v253h-325v83h325v328h84v-328h321v-83h-321z" />
    <glyph glyph-name="uni00B2" unicode="&#xb2;" horiz-adv-x="618" 
d="M553 756h-506v24q25 25 176 159q109 96 164 165q45 57 45 125q0 59 -43 96t-104 37q-134 0 -181 -141h-43q12 99 85 157q70 56 171 56q94 0 161 -48q75 -52 75 -143q0 -105 -112 -187l-133 -98q-76 -56 -146 -129h280q51 0 68 17q18 18 25 69h43z" />
    <glyph glyph-name="uni00B3" unicode="&#xb3;" horiz-adv-x="618" 
d="M415 776q-75 -35 -157 -35q-52 0 -112 17q-80 23 -80 63q0 43 49 43q31 0 89 -41q56 -41 97 -41q69 0 117 58q45 54 45 125q0 55 -32 96q-34 43 -89 43q-40 0 -86 -35l-25 29q170 111 170 180q0 41 -34 66q-30 24 -72 24q-98 0 -156 -106l-41 14q45 100 142 139
q45 19 96 19q63 0 113 -29q57 -34 57 -94q0 -75 -111 -144q114 -8 161 -89q22 -38 22 -87q0 -140 -163 -215z" />
    <glyph glyph-name="acute" unicode="&#xb4;" horiz-adv-x="682" 
d="M387 1274l-217 -146h-27l189 261q65 90 131 90q63 0 63 -60q0 -51 -139 -145z" />
    <glyph glyph-name="paragraph" unicode="&#xb6;" horiz-adv-x="944" 
d="M813 1348v-1696h-74v1696h-186v-1696h-74v995q-321 0 -428 179q-51 86 -51 200q0 240 209 332q102 45 241 45h494v-55h-131z" />
    <glyph glyph-name="periodcentered" unicode="&#xb7;" horiz-adv-x="543" 
d="M351 865q-33 33 -79 33t-79 -33t-33 -79q0 -45 33 -78t79 -33t79 33q32 34 32 78q0 45 -32 79z" />
    <glyph glyph-name="uni00B9" unicode="&#xb9;" horiz-adv-x="618" 
d="M160 756v32h84q26 0 26 33v504q-84 -54 -143 -78l-18 27q127 73 204 160h62v-611q0 -35 39 -35h73v-32h-327z" />
    <glyph glyph-name="ordmasculine" unicode="&#xba;" horiz-adv-x="705" 
d="M427 1358q-43 33 -95 33q-70 0 -113 -55q-41 -52 -41 -122q0 -92 48 -169q56 -87 143 -87q71 0 115 59q38 53 38 128q0 139 -95 213zM501 953q-68 -38 -153 -38q-151 0 -231 101q-64 82 -64 160q0 135 137 218q65 40 158 40q152 0 231 -96q64 -77 64 -162
q0 -142 -142 -223z" />
    <glyph glyph-name="guillemotright" unicode="&#xbb;" horiz-adv-x="778" 
d="M393 502q0 -176 -53 -332q-63 -167 -198 -272l-42 26q151 277 151 581q0 153 -36 295q-15 77 -40 138q-25 68 -60 129l47 28q59 -50 101 -113q43 -68 80 -154l19 -68l17 -80l11 -86zM625 170q-63 -166 -199 -272l-41 26q151 277 151 581q0 144 -36 295q-13 71 -40 138
q-25 68 -60 129l47 28q119 -98 179 -267l20 -70l18 -84q14 -81 14 -172q0 -176 -53 -332z" />
    <glyph glyph-name="onequarter" unicode="&#xbc;" horiz-adv-x="1473" 
d="M1053 670l-219 -287h223zM160 756v32h84q26 0 26 33v504q-84 -54 -143 -78l-18 27q127 73 204 160h62v-611q0 -35 39 -35h73v-32h-327zM1161 319v-204h-104v204h-309v31l360 457h53v-424h121v-64h-121zM240 74h-84l995 1394h84z" />
    <glyph glyph-name="onehalf" unicode="&#xbd;" horiz-adv-x="1473" 
d="M160 756v32h84q26 0 26 33v504q-84 -54 -143 -78l-18 27q127 73 204 160h62v-611q0 -35 39 -35h73v-32h-327zM1333 129h-506v25q95 86 282 258q103 97 103 190q0 59 -43 96t-104 37q-62 0 -112 -39q-50 -41 -68 -102h-43q10 98 84 157q71 56 172 56q93 0 160 -48
q75 -54 75 -143q0 -81 -65 -148q-21 -21 -134 -102q-117 -84 -192 -163h281q63 0 79 31q8 17 13 55h43zM240 74h-84l995 1394h84z" />
    <glyph glyph-name="threequarters" unicode="&#xbe;" horiz-adv-x="1473" 
d="M1092 670h-5l-219 -287h224v287zM405 775q-72 -34 -157 -34q-55 0 -112 16q-81 23 -81 64q0 43 49 43q32 0 90 -41q56 -41 97 -41q69 0 117 58q45 54 45 125q0 55 -32 96q-34 43 -89 43q-40 0 -86 -35l-25 29q170 111 170 180q0 41 -34 66q-30 24 -72 24q-95 0 -156 -106
l-41 14q45 100 142 139q45 19 96 19q63 0 113 -29q57 -34 57 -94q0 -75 -111 -144q79 -6 129 -50q53 -48 53 -126q0 -141 -162 -216zM1196 319v-204h-104v204h-310v31l361 457h53v-424h121v-64h-121zM274 74h-84l996 1394h84z" />
    <glyph glyph-name="multiply" unicode="&#xd7;" horiz-adv-x="903" 
d="M551 670l252 -253l-95 -95l-252 253l-262 -262l-94 94l262 262l-258 258l95 95l258 -258l250 250l94 -94z" />
    <glyph glyph-name="divide" unicode="&#xf7;" horiz-adv-x="901" 
d="M523 882q-28 -30 -71 -30q-42 0 -72 31q-31 31 -31 73q0 43 30 73q31 29 73 29t71 -29q29 -31 29 -73q0 -43 -29 -74zM523 308q-28 -30 -71 -30q-42 0 -72 31q-31 30 -31 72q0 45 30 73q31 29 73 29t71 -29t29 -73q0 -42 -29 -73zM100 597v144h701v-144h-701z" />
    <glyph glyph-name="dotlessi" unicode="&#x131;" horiz-adv-x="532" 
d="M37 129v39q88 0 127 30q43 34 43 119v412q0 73 -23 87q-13 7 -41 13l-96 19v33l266 92h31v-688q0 -117 148 -117v-39h-455z" />
    <glyph glyph-name="circumflex" unicode="&#x2c6;" horiz-adv-x="682" 
d="M336 1380l-242 -256v35l221 369h58l217 -369v-35z" />
    <glyph glyph-name="caron" unicode="&#x2c7;" horiz-adv-x="682" 
d="M367 1124h-58l-217 369v35l254 -256l242 256v-35z" />
    <glyph glyph-name="uni060C" unicode="&#x60c;" horiz-adv-x="425" 
d="M285 140q0 -46 -33 -93t-79 -47q-69 0 -111 47t-42 113q0 76 82 241q89 177 153 195v-29q-128 -259 -128 -293q0 -37 62 -73q48 -28 96 -34v-27z" />
    <glyph glyph-name="uni061B" unicode="&#x61b;" horiz-adv-x="511" 
d="M44 122q-24 23 -3 45l103 110q21 23 45 0l118 -110q24 -22 3 -45l-103 -111q-21 -22 -45 0zM289 501q0 -46 -33 -93t-79 -47q-69 0 -111 47t-42 113q0 76 82 241q89 177 153 195v-29q-128 -259 -128 -293q0 -37 62 -73q48 -28 96 -34v-27z" />
    <glyph glyph-name="uni061F" unicode="&#x61f;" horiz-adv-x="1232" 
d="M894 1298q-128 101 -282 101q-208 0 -319 -139q-93 -115 -93 -280q0 -141 95 -239l118 -98q45 -38 57 -50q95 -87 95 -217q0 -53 28 -90q31 -43 79 -43q96 0 96 144q0 163 -87 272l-162 159q-87 86 -87 194q0 75 53 120q48 42 122 42q83 0 135 -42q59 -45 59 -129
q0 -135 117 -135q114 0 114 164q0 157 -138 266zM776 133q41 -41 41 -97q0 -57 -40 -96q-40 -40 -97 -40t-96 40q-40 39 -40 96t40 97q39 40 96 40q56 0 96 -40z" />
    <glyph glyph-name="uni0621" unicode="&#x621;" horiz-adv-x="1135" 
d="M80 -20q0 120 71 191q30 29 43 35q-25 51 -29 133q2 161 108 269q106 109 261 109q137 0 258 -67q121 -68 212 -217l-86 -44q-118 -55 -227 14q-80 53 -157 53q-50 0 -83 -41q-33 -42 -20 -97q13 -36 41 -56q30 -21 67 -21h325q100 0 170 -70q71 -71 71 -191h-1025z" />
    <glyph glyph-name="uni0622" unicode="&#x622;" horiz-adv-x="508" 
d="M425 221q0 -101 -178 -112q33 -136 -97 -136v1294q0 103 180 58q-33 190 95 190v-1294zM498 1628q-53 -38 -118 -45q-67 -7 -141 -6q-34 1 -62 1q-34 -1 -63 -3q-63 -4 -123 -27q39 68 88 96q51 29 105 35q59 6 115 5q68 -3 143 8q72 11 138 59q-32 -86 -82 -123z" />
    <glyph glyph-name="uni0623" unicode="&#x623;" horiz-adv-x="508" 
d="M77 1582q0 42 30 72q9 9 25 18q-15 31 -16 64q0 71 46 117q47 47 113 47q60 0 113 -29q52 -30 88 -88l-31 -16q-50 -23 -94 7q-37 25 -76 25q-29 0 -45 -22q-19 -23 -11 -52q6 -20 22 -30q17 -12 36 -12h130q41 0 72 -29q29 -31 29 -72h-431zM425 221q0 -101 -178 -76
q33 -172 -97 -172v1294q0 103 179 74q-32 174 96 174v-1294z" />
    <glyph glyph-name="uni0624" unicode="&#x624;" horiz-adv-x="918" 
d="M388 278q30 -30 71 -30q40 0 71 29q28 28 30 71v266q-79 -19 -141 -101q-61 -82 -61 -165q0 -41 30 -70zM166 633q81 131 243 213q163 80 426 80v-709q-9 -267 -191 -443q-183 -174 -478 -171l150 85q-150 125 33 216q91 39 108 64l2 5q-154 0 -266 110
q-110 112 -110 265q0 152 83 285zM240 1000q0 42 30 72q9 9 25 18q-15 31 -16 64q0 71 46 117q47 47 113 47q60 0 113 -29q52 -30 88 -88l-31 -16q-50 -23 -94 7q-37 25 -76 25q-29 0 -45 -22q-19 -23 -11 -52q6 -20 22 -30q17 -12 36 -12h130q41 0 72 -29q29 -31 29 -72
h-431z" />
    <glyph glyph-name="uni0625" unicode="&#x625;" horiz-adv-x="508" 
d="M47 -416q0 41 30 71q9 9 25 18q-15 31 -16 65q0 70 46 116q47 47 113 47q60 0 113 -29q52 -30 88 -88l-31 -15q-49 -22 -94 6q-37 25 -76 25q-29 0 -45 -22q-18 -23 -11 -52q6 -20 22 -30q17 -12 36 -12h130q41 0 72 -29q29 -31 29 -71h-431zM425 221q0 -101 -174 -68
q29 -180 -101 -180v1294q0 103 175 58q-28 190 100 190v-1294z" />
    <glyph glyph-name="uni0626" unicode="&#x626;" horiz-adv-x="1409" 
d="M1322 249q0 -289 -186 -469q-185 -179 -457 -176q-242 15 -408 179q-164 163 -184 406q-4 321 249 529l-34 -176q174 -15 102 -156q-43 -78 -42 -172q6 -136 96 -229q88 -94 224 -106q154 -5 260 96q23 21 2 -7q18 2 18 4q1 1 -15 1q-156 0 -266 111q-110 112 -110 265
q0 152 83 285q82 131 243 213q164 80 424 80q6 -127 -118 -137q27 -136 -123 -168q-113 -27 -173 -108q-61 -82 -61 -165q0 -41 30 -70q30 -30 71 -30h375zM179 800q0 42 30 72q10 9 25 18q-14 31 -16 64q0 71 46 117q47 47 113 47q60 0 113 -29q53 -30 88 -88l-31 -16
q-49 -23 -94 7q-36 25 -76 25q-28 0 -45 -22q-18 -23 -11 -52q7 -20 22 -30q17 -12 36 -12h130q42 0 72 -29q29 -31 29 -72h-431z" />
    <glyph glyph-name="uni0627" unicode="&#x627;" horiz-adv-x="508" 
d="M425 221q0 -101 -178 -96q33 -152 -97 -152v1294q0 103 172 77q-25 171 103 171v-1294z" />
    <glyph glyph-name="uni0628" unicode="&#x628;" horiz-adv-x="1627" 
d="M1167 248q42 0 72 30t30 72v329q0 102 182 57q-37 191 93 191v-577q0 -155 -110 -267q-112 -110 -267 -110h-707q-155 0 -267 110q-110 112 -110 267v437q130 0 116 -174q159 29 159 -74v-189q0 -42 30 -72t72 -30h707zM926 -402q-46 -45 -110 -45t-111 45
q-45 47 -45 111t45 110q46 46 111 46q64 0 110 -46t46 -110q0 -65 -46 -111z" />
    <glyph glyph-name="uni0629" unicode="&#x629;" horiz-adv-x="982" 
d="M623 699q-265 -78 -265 -318q0 -55 39 -94t94 -39q56 0 93 39q39 39 39 94v318zM472 1139q-46 -46 -110 -46t-110 46t-46 110t46 110t110 46t110 -46t46 -110t-46 -110zM899 381q0 -168 -119 -289q-121 -119 -273 0q-185 -119 -305 1q-119 121 -119 288q0 166 90 310
q88 143 265 231q176 87 461 87v-628zM802 1139q-46 -46 -111 -46q-64 0 -110 46t-46 110t46 110t110 46q65 0 111 -46q45 -46 45 -110q0 -63 -45 -110z" />
    <glyph glyph-name="uni062A" unicode="&#x62a;" horiz-adv-x="1627" 
d="M1167 248q42 0 72 30t30 72v329q0 102 150 61q-5 187 125 187v-577q0 -155 -110 -267q-112 -110 -267 -110h-707q-155 0 -267 110q-110 112 -110 267v437q130 0 124 -178q151 33 151 -70v-189q0 -42 30 -72t72 -30h707zM741 839q-46 -46 -110 -46t-110 46t-46 110t46 110
t110 46t110 -46t46 -110t-46 -110zM1071 839q-46 -46 -111 -46q-64 0 -110 46t-46 110t46 110t110 46q65 0 111 -46q45 -46 45 -110q0 -63 -45 -110z" />
    <glyph glyph-name="uni062B" unicode="&#x62b;" horiz-adv-x="1627" 
d="M1167 248q42 0 72 30t30 72v329q0 102 163 65q-18 183 112 183v-577q0 -155 -110 -267q-112 -110 -267 -110h-707q-155 0 -267 110q-110 112 -110 267v437q130 0 136 -163q139 18 139 -85v-189q0 -42 30 -72t72 -30h707zM741 839q-46 -46 -110 -46t-110 46t-46 110
t46 110t110 46t110 -46t46 -110t-46 -110zM906 1123q-46 -46 -110 -46q-65 0 -111 46q-45 47 -45 110q0 65 45 111q47 45 111 45t110 -45q46 -46 46 -111q0 -64 -46 -110zM1071 839q-46 -46 -111 -46q-64 0 -110 46t-46 110t46 110t110 46q65 0 111 -46q45 -46 45 -110
q0 -63 -45 -110z" />
    <glyph glyph-name="uni062C" unicode="&#x62c;" horiz-adv-x="1314" 
d="M942 -341q-46 -45 -110 -45t-111 45q-45 47 -45 111t45 110q46 46 111 46q64 0 110 -46t46 -110q0 -65 -46 -111zM547 -27q-80 -3 -135 -58q-54 -55 -54 -134t57 -135q56 -57 135 -57h213q103 0 58 -167q190 22 190 -108h-461q-195 0 -332 138q-135 140 -135 343
q9 184 131 310q121 126 304 142q11 1 36 1h378q-40 211 -151 308q-112 95 -220 95q-52 0 -105 -29q-52 -31 -80 -88q-69 -119 -162 55l-131 -174q1 226 133 364q129 136 329 147h37q12 0 21 -1q167 -12 309 -117q143 -104 231 -304t88 -531h-684z" />
    <glyph glyph-name="uni062D" unicode="&#x62d;" horiz-adv-x="1314" 
d="M547 -27q-80 -3 -135 -58q-54 -55 -54 -134t57 -135q56 -57 135 -57h213q103 0 50 -171q198 26 198 -104h-461q-195 0 -332 138q-135 140 -135 343q9 184 131 310q121 126 304 142q11 1 36 1h378q-40 211 -151 308q-112 95 -220 95q-52 0 -105 -29q-52 -31 -80 -88
q-69 -119 -150 47l-143 -166q1 226 133 364q129 136 329 147h37q12 0 21 -1q167 -12 309 -117q143 -104 231 -304t88 -531h-684z" />
    <glyph glyph-name="uni062E" unicode="&#x62e;" horiz-adv-x="1314" 
d="M547 -27q-80 -3 -135 -58q-54 -55 -54 -134t57 -135q56 -57 135 -57h213q103 0 46 -179q202 34 202 -96h-461q-195 0 -332 138q-135 140 -135 343q9 184 131 310q121 126 304 142q11 1 36 1h378q-40 211 -151 308q-112 95 -220 95q-52 0 -105 -29q-52 -31 -80 -88
q-69 -119 -123 75l-170 -194q1 226 133 364q129 136 329 147h37q12 0 21 -1q167 -12 309 -117q143 -104 231 -304t88 -531h-684zM684 1039q-46 -46 -110 -46t-110 46t-46 110t46 110t110 46t110 -46t46 -110t-46 -110z" />
    <glyph glyph-name="uni062F" unicode="&#x62f;" horiz-adv-x="1077" 
d="M252 927q204 0 340 -47q134 -46 227 -127q92 -82 138 -185q47 -105 47 -219q0 -103 -51 -189q-50 -85 -136 -136q-85 -51 -189 -51h-590q0 130 184 104q-37 171 64 171h342q41 0 71 30t30 71q0 82 -61 164t-173 109l-86 18q-70 15 0 141q-157 -18 -157 52v94z" />
    <glyph glyph-name="uni0630" unicode="&#x630;" horiz-adv-x="1077" 
d="M518 1038q-46 -45 -111 -45q-63 0 -110 45q-46 46 -46 111q0 64 46 110t110 46q65 0 111 -46q45 -46 45 -110t-45 -111zM252 927q204 0 340 -47q134 -46 227 -127q92 -82 138 -185q47 -105 47 -219q0 -103 -51 -189q-50 -85 -136 -136q-85 -51 -189 -51h-590
q0 130 168 101q-21 174 80 174h342q41 0 71 30t30 71q0 82 -61 164t-173 109l-86 18q-70 15 -8 169q-149 -46 -149 24v94z" />
    <glyph glyph-name="uni0631" unicode="&#x631;" horiz-adv-x="575" 
d="M492 222q0 -262 -186 -442q-185 -179 -483 -176l170 89q-170 121 13 212q211 103 211 317v457q0 102 190 37q-45 211 85 211v-705z" />
    <glyph glyph-name="uni0632" unicode="&#x632;" horiz-adv-x="575" 
d="M430 1039q-46 -46 -110 -46t-110 46t-46 110t46 110t110 46t110 -46t46 -110t-46 -110zM492 222q0 -262 -186 -442q-185 -179 -483 -176l158 117q-158 93 25 184q211 103 211 317v457q0 102 179 53q-34 195 96 195v-705z" />
    <glyph glyph-name="uni0633" unicode="&#x633;" horiz-adv-x="2290" 
d="M1907 273q25 24 25 59v347q0 102 171 61q-26 187 104 187v-632q0 -134 -94 -228t-228 -94h-74q-114 0 -184 56q-69 -56 -184 -56h-74q-61 0 -91 11q-35 -101 -141 -203q-186 -180 -458 -177q-243 15 -408 178q-164 163 -184 407q-4 320 249 530l-34 -181
q174 -12 102 -153q-43 -76 -42 -171q6 -136 96 -229q88 -94 224 -106q154 -6 259 95q106 99 106 247v318q0 103 191 54q-44 194 84 194v-455q0 -35 25 -59q24 -25 59 -25q36 0 59 25q25 24 25 59v277q0 103 190 66q-44 182 85 182v-525q0 -35 24 -59q24 -25 59 -25
q36 0 59 25z" />
    <glyph glyph-name="uni0634" unicode="&#x634;" horiz-adv-x="2290" 
d="M1907 273q25 24 25 59v347q0 102 159 57q-14 191 116 191v-632q0 -134 -94 -228t-228 -94h-74q-114 0 -184 56q-69 -56 -184 -56h-74q-61 0 -91 11q-35 -101 -141 -203q-186 -180 -458 -177q-243 15 -408 178q-164 163 -184 407q-4 320 249 530l-38 -174
q178 -19 106 -160q-43 -76 -42 -171q6 -136 96 -229q88 -94 224 -106q154 -6 259 95q106 99 106 247v318q0 103 199 46q-52 202 76 202v-455q0 -35 25 -59q24 -25 59 -25q36 0 59 25q25 24 25 59v277q0 103 187 62q-41 186 88 186v-525q0 -35 24 -59q24 -25 59 -25
q36 0 59 25zM1557 1009q-46 -46 -110 -46t-110 46t-46 110t46 110t110 46t110 -46t46 -110t-46 -110zM1722 1293q-46 -46 -110 -46q-65 0 -111 46q-45 47 -45 110q0 65 45 111q47 45 111 45t110 -45q46 -46 46 -111q0 -64 -46 -110zM1887 1009q-46 -46 -111 -46
q-64 0 -110 46t-46 110t46 110t110 46q65 0 111 -46q45 -46 45 -110q0 -63 -45 -110z" />
    <glyph glyph-name="uni0635" unicode="&#x635;" horiz-adv-x="2278" 
d="M1724 248q86 6 140 63q56 58 56 139t-56 139q-54 57 -139 62l-30 -1q-280 -33 -350 -402h379zM1047 682q2 101 199 22q-53 223 76 223v-148q-2 -3 9 5q8 5 35 25q144 104 309 116l43 2q10 0 12 -1h3q197 -11 329 -146q133 -136 133 -330t-133 -330q-131 -136 -329 -147
h-460q-40 -100 -136 -193q-186 -180 -458 -176q-243 15 -408 178q-164 163 -184 407q-4 320 249 530l-42 -225q182 32 110 -109q-43 -76 -42 -171q6 -136 95 -230q90 -93 225 -105q154 -6 259 95q106 99 106 247v461z" />
    <glyph glyph-name="uni0636" unicode="&#x636;" horiz-adv-x="2278" 
d="M1714 248q86 6 140 63q56 58 56 139t-56 139q-54 57 -139 62l-30 -1q-280 -33 -350 -402h379zM1037 682q2 101 195 14q-49 231 80 231v-148q-2 -3 9 5q8 5 35 25q144 104 309 116l43 2q10 0 12 -1h3q197 -11 329 -146q133 -136 133 -330t-133 -330q-131 -136 -329 -147
h-460q-40 -100 -136 -193q-186 -180 -458 -176q-243 15 -408 178q-164 163 -184 407q-4 320 249 530l-26 -205q166 12 94 -129q-43 -76 -42 -171q6 -136 95 -230q90 -93 225 -105q154 -6 259 95q106 99 106 247v461zM1689 1039q-46 -46 -110 -46t-110 46t-46 110t46 110
t110 46t110 -46t46 -110t-46 -110z" />
    <glyph glyph-name="uni0637" unicode="&#x637;" horiz-adv-x="1553" 
d="M999 248q86 6 140 63q56 58 56 139t-56 139q-55 57 -139 62l-30 -1q-281 -33 -350 -402h379zM83 -27q0 130 199 92q-52 183 49 183h-9v1019q0 103 179 10q-33 239 96 239v-737q-2 -3 9 5q8 5 35 25q143 104 309 116l49 2l9 -1q197 -11 329 -146q133 -136 133 -330
t-133 -330q-132 -136 -329 -147h-925z" />
    <glyph glyph-name="uni0638" unicode="&#x638;" horiz-adv-x="1553" 
d="M999 248q86 6 140 63q56 58 56 139t-56 139q-55 57 -139 62l-30 -1q-281 -33 -350 -402h379zM83 -27q0 130 183 97q-36 178 65 178h-9v1019q0 103 167 30q-21 219 108 219v-737q-2 -3 9 5q8 5 35 25q143 104 309 116l49 2l9 -1q197 -11 329 -146q133 -136 133 -330
t-133 -330q-132 -136 -329 -147h-925zM1034 1039q-46 -46 -110 -46t-110 46t-46 110t46 110t110 46t110 -46t46 -110t-46 -110z" />
    <glyph glyph-name="uni0639" unicode="&#x639;" horiz-adv-x="1259" 
d="M928 248q102 0 80 -195q168 50 168 -80h-626q-79 0 -135 -56q-57 -57 -57 -136t57 -135q56 -57 135 -57h199q103 0 82 -171q166 26 166 -104h-447q-195 0 -332 138q-135 140 -135 343q9 184 131 310q7 6 9 9q2 2 -2 -1q4 -4 3 -2l-9 9q-132 137 -132 330q0 194 133 330
q132 135 329 146h3q2 1 12 1l43 -2q298 -20 508 -352l-199 92q-46 -161 -168 -75q-70 52 -160 60l-31 1q-82 -4 -137 -59q-55 -57 -58 -138q2 -84 58 -142q58 -58 143 -64h369z" />
    <glyph glyph-name="uni063A" unicode="&#x63a;" horiz-adv-x="1259" 
d="M928 248q102 0 72 -175q176 30 176 -100h-626q-79 0 -135 -56q-57 -57 -57 -136t57 -135q56 -57 135 -57h199q103 0 58 -167q190 22 190 -108h-447q-195 0 -332 138q-135 140 -135 343q9 184 131 310q7 6 9 9q2 2 -2 -1q4 -4 3 -2l-9 9q-132 137 -132 330q0 194 133 330
q132 135 329 146h3q2 1 12 1l43 -2q298 -20 508 -352l-199 84q-46 -153 -168 -67q-70 52 -160 60l-31 1q-82 -4 -137 -59q-55 -57 -58 -138q2 -84 58 -142q58 -58 143 -64h369zM667 1038q-46 -45 -110 -45t-111 45q-45 47 -45 111t45 110q46 46 111 46q64 0 110 -46t46 -110
q0 -65 -46 -111z" />
    <glyph glyph-name="uni0640" unicode="&#x640;" horiz-adv-x="212" 
d="M242 -27h-272v275h272v-275z" />
    <glyph glyph-name="uni0641" unicode="&#x641;" horiz-adv-x="1682" 
d="M1324 892q-79 -19 -140 -101t-61 -165q0 -40 30 -70t71 -30q42 0 70 30q30 29 30 70v266zM1224 251q-156 0 -266 110q-110 112 -110 265t83 286q82 131 243 212q163 80 425 80v-854q0 -155 -110 -267q-112 -110 -267 -110h-762q-155 0 -267 110q-110 112 -110 267v356
q130 0 108 -175q167 29 167 -73v-108q0 -43 30 -72q30 -30 72 -30h762q43 0 73 30q12 12 -4 -27h-67zM1349 1289q-46 -46 -110 -46t-110 46t-46 110t46 110t110 46t110 -46t46 -110t-46 -110z" />
    <glyph glyph-name="uni0642" unicode="&#x642;" horiz-adv-x="1405" 
d="M1047 614q-80 -20 -140 -100q-61 -82 -61 -165q0 -41 30 -71t71 -30t71 30q29 29 29 71v265zM921 1039q-46 -46 -110 -46t-110 46t-46 110t46 110t110 46t110 -46t46 -110t-46 -110zM1322 221q0 -261 -186 -441q-185 -179 -457 -176q-243 15 -408 178q-164 163 -184 407
q-4 320 249 530l-34 -181q174 -10 102 -153q-43 -76 -42 -171q6 -136 96 -229q88 -94 224 -106q154 -5 260 96q23 21 2 -7q18 2 18 4q1 1 -15 1q-156 0 -266 111q-110 112 -110 265q0 152 83 285t243 212q162 81 425 81v-706zM1251 1039q-46 -46 -111 -46q-64 0 -110 46
t-46 110t46 110t110 46q65 0 111 -46q45 -46 45 -110q0 -63 -45 -110z" />
    <glyph glyph-name="uni0643" unicode="&#x643;" horiz-adv-x="1682" 
d="M460 -27q-155 0 -267 110q-110 112 -110 267v437q130 0 93 -182q182 37 182 -66v-189q0 -42 30 -72t72 -30h762q44 0 72 30q30 30 30 72v917q0 103 183 46q-36 202 92 202v-1165q0 -155 -110 -267q-112 -110 -267 -110h-762zM578 559q0 48 35 85q14 14 30 21
q-18 37 -19 75q0 83 54 138t133 55q72 0 133 -34q59 -33 104 -103l-37 -20q-58 -25 -110 9q-45 30 -90 30q-33 0 -53 -27q-21 -26 -13 -61q7 -22 26 -35q20 -14 42 -14h153q50 0 85 -35q34 -34 34 -84h-507z" />
    <glyph glyph-name="uni0644" unicode="&#x644;" horiz-adv-x="1405" 
d="M1322 221q0 -261 -185 -440q-186 -180 -458 -177q-242 15 -408 179q-164 163 -184 406q-4 321 249 529l-30 -183q170 -8 98 -149q-43 -78 -42 -172q6 -136 96 -229q88 -94 224 -106q154 -5 259 95q106 100 106 248v1048q0 102 175 37q-29 211 100 211v-1297z" />
    <glyph glyph-name="uni0645" unicode="&#x645;" horiz-adv-x="1317" 
d="M913 267q46 33 46 82q0 92 -65 171q-64 78 -136 102v-264q0 -59 53 -97q56 -27 102 6zM942 837q146 -88 219 -222q73 -133 73 -266q0 -166 -123 -277q-122 -112 -298 -97q-147 23 -238 129q-92 109 -92 251v279q-53 -12 -88 -74q-37 -61 -37 -170v-829q0 -101 -178 -56
q33 -192 -97 -192v1094q0 225 132 372q132 146 361 146q220 0 366 -88z" />
    <glyph glyph-name="uni0646" unicode="&#x646;" horiz-adv-x="1405" 
d="M1047 679q0 102 171 65q-25 183 104 183v-705q0 -262 -186 -442q-185 -179 -457 -176q-242 15 -408 179q-164 163 -184 406q-4 321 249 529l-14 -187q154 -4 82 -145q-43 -78 -42 -172q6 -136 96 -229q88 -94 224 -106q154 -5 259 95q106 100 106 248v457zM825 819
q-46 -46 -111 -46q-64 0 -110 46t-46 110t46 110t110 46q65 0 111 -46q45 -46 45 -110q0 -63 -45 -110z" />
    <glyph glyph-name="uni0647" unicode="&#x647;" horiz-adv-x="982" 
d="M623 699q-265 -78 -265 -318q0 -55 39 -94t94 -39q56 0 93 39q39 39 39 94v318zM899 381q0 -168 -119 -289q-121 -119 -277 23q-181 -142 -301 -22q-119 121 -119 288q0 166 90 310q88 143 265 231q176 87 461 87v-628z" />
    <glyph glyph-name="uni0648" unicode="&#x648;" horiz-adv-x="918" 
d="M388 278q30 -30 71 -30q40 0 71 29q28 28 30 71v266q-79 -19 -141 -101q-61 -82 -61 -165q0 -41 30 -70zM166 633q81 131 243 213q163 80 426 80v-709q-9 -267 -191 -443q-183 -174 -478 -171l162 77q-162 133 21 224q91 39 108 64q4 4 2 5q-154 0 -266 110
q-110 112 -110 265q0 152 83 285z" />
    <glyph glyph-name="uni0649" unicode="&#x649;" horiz-adv-x="1409" 
d="M1322 249q0 -289 -186 -469q-185 -179 -457 -176q-242 15 -408 179q-164 163 -184 406q-4 321 249 529l-10 -144q150 -47 78 -188q-43 -78 -42 -172q6 -136 96 -229q88 -94 224 -106q154 -5 260 96q23 21 2 -7q18 2 18 4q1 1 -15 1q-156 0 -266 111q-110 112 -110 265
q0 152 83 285q82 131 243 213q164 80 424 80q6 -127 -121 -113q30 -160 -120 -192q-113 -27 -173 -108q-61 -82 -61 -165q0 -41 30 -70q30 -30 71 -30h375z" />
    <glyph glyph-name="uni064A" unicode="&#x64a;" horiz-adv-x="1409" 
d="M1322 248q0 -288 -186 -468q-185 -179 -457 -176q-243 15 -408 178q-164 163 -184 407q-4 320 249 530l-15 -162q155 -29 83 -172q-43 -76 -42 -171q6 -136 96 -229q88 -94 224 -106q154 -5 260 96q23 21 2 -7q18 2 18 4q1 1 -15 1q-156 0 -266 111q-110 112 -110 265
q0 152 83 285t243 212q162 81 424 81q6 -127 -149 -129q58 -144 -92 -176q-113 -27 -173 -108q-61 -82 -61 -165q0 -41 30 -71t71 -30h375zM644 -701q-46 -46 -110 -46t-110 46t-46 110t46 110t110 46t110 -46t46 -110t-46 -110zM974 -701q-46 -46 -111 -46q-64 0 -110 46
t-46 110t46 110t110 46q65 0 111 -46q45 -46 45 -110q0 -63 -45 -110z" />
    <glyph glyph-name="uni064B" unicode="&#x64b;" horiz-adv-x="499" 
d="M499 279q-20 -81 -74 -103l-425 -176q22 76 77 100zM499 422q-20 -81 -74 -103l-425 -176q22 76 77 100z" />
    <glyph glyph-name="uni064C" unicode="&#x64c;" horiz-adv-x="415" 
d="M327 205q-50 50 -49 72q2 27 23 26q43 -1 40 -61q0 -18 -14 -37zM351 362q-51 2 -94 -47q-42 -46 -43 -89q-2 -35 55 -94q-65 -44 -133 -60q16 67 18 83q4 106 -66 109q-67 3 -88 -147q41 65 66 64q38 -2 35 -61q-2 -33 -59 -120q158 -5 259 105l81 -69q9 45 10 85
q1 22 -29 46q46 64 49 130q3 62 -61 65z" />
    <glyph glyph-name="uni064D" unicode="&#x64d;" horiz-adv-x="499" 
d="M499 -148q-20 -81 -74 -103l-425 -176q22 76 77 100zM499 -5q-20 -81 -74 -103l-425 -176q22 76 77 100z" />
    <glyph glyph-name="uni064E" unicode="&#x64e;" horiz-adv-x="499" 
d="M499 279q-20 -81 -74 -103l-425 -176q22 76 77 100z" />
    <glyph glyph-name="uni064F" unicode="&#x64f;" horiz-adv-x="423" 
d="M323 268q-10 22 -31 27q-18 5 -23 -15q-7 -29 46 -88q11 20 14 31q5 23 -6 45zM345 27l-65 69q-151 -112 -225 -94q-17 4 -55 26q111 31 244 102q-49 58 -39 101q13 57 73 111q39 35 79 26q66 -16 46 -102q-10 -44 -58 -106q8 -9 31 -39z" />
    <glyph glyph-name="uni0650" unicode="&#x650;" horiz-adv-x="499" 
d="M499 -5q-20 -81 -74 -103l-425 -176q22 76 77 100z" />
    <glyph glyph-name="uni0651" unicode="&#x651;" horiz-adv-x="340" 
d="M290 326q-22 -27 -45 -60q40 -88 43 -119q-5 -5 -13 -8q-7 -4 -16 -4q-19 0 -39 13q-40 20 -44 111l-4 2q-16 -10 -28 -22l-9 -8l4 -81q0 -17 -12 -35q-12 -19 -42 -19q-38 0 -38 59q0 32 9 65l-3 3q-24 -14 -43 -28q-10 -36 -10 -76q0 -48 17 -84q18 -35 63 -35
q51 0 106 67h4q32 -22 74 -22q45 0 68 62q7 30 6 58v8q0 46 -43 153h-5z" />
    <glyph glyph-name="uni0652" unicode="&#x652;" horiz-adv-x="258" 
d="M160 197q-41 29 -68 29q-59 0 -59 -68q0 -59 92 -59q78 0 78 41q0 26 -43 57zM212 50q-47 -50 -105 -50q-107 0 -107 121q0 83 38 138q38 53 99 53q47 0 84 -45q37 -46 37 -103q0 -65 -46 -114z" />
    <glyph glyph-name="uni0660" unicode="&#x660;" horiz-adv-x="651" 
d="M521 573q30 33 30 73q0 39 -30 72l-123 124q-33 30 -72 30q-40 0 -73 -30l-123 -124q-30 -33 -30 -72q0 -40 30 -73l123 -124q33 -30 73 -30q39 0 72 30z" />
    <glyph glyph-name="uni0661" unicode="&#x661;" horiz-adv-x="596" 
d="M312 12q-24 254 -70 538q-44 284 -148 627q-15 61 10 114q24 53 63 94q37 38 76 68l16 11q0 11 35 11q211 -625 220 -1174q2 -108 -39 -205q-41 -96 -158 -116z" />
    <glyph glyph-name="uni0662" unicode="&#x662;" horiz-adv-x="942" 
d="M852 1395q9 -4 9 -19t-15 -42q-93 -161 -229 -174q-135 -15 -236 11l9 -2q165 -419 210 -852q12 -105 -20 -207q-33 -100 -149 -131q-48 258 -117 531q-69 275 -193 584q-43 116 -13 189q30 72 88 106q21 14 52 28l22 8q222 74 571 -26q5 0 11 -4z" />
    <glyph glyph-name="uni0663" unicode="&#x663;" horiz-adv-x="1129" 
d="M1012 1073q-57 -154 -154 -146q-37 3 -94 28q-57 26 -65 40q2 10 -35 -32q-37 -39 -96 -63q-43 -14 -77 -11q92 -278 126 -571q15 -107 -15 -209q-30 -101 -146 -134l-7 31q-25 119 -58 255q-31 127 -72 275q-78 286 -219 608q-21 57 -3 114q20 58 53 101q29 40 68 77
l42 41q61 -134 100 -231q29 -31 99 -41q69 -1 105 53q36 50 58 115q17 46 35 73l4 7l7 8q9 7 25 6q48 -4 54 -56q2 -18 1 -30q-1 -8 2 -29q12 -100 84 -106q38 0 67 44q28 44 34 111q9 36 35 33q21 -1 39 -24q18 -21 24 -59q17 -129 -21 -278z" />
    <glyph glyph-name="uni0664" unicode="&#x664;" horiz-adv-x="979" 
d="M880 248q-18 -66 -66 -129q-46 -62 -141 -85q-384 -66 -490 -51h-5q-61 6 -76 84q-14 81 -2 172q11 91 42 157q25 50 71 118q54 79 121 202q6 17 5 18l-44 38q-19 18 -61 56q-75 69 -125 127q-30 35 -25 82q6 46 24 101q16 56 35 82q132 188 551 237q35 6 34 -52
q-26 -162 -135 -219q-114 -57 -204 -70l-45 -10q-7 -2 -11 4q2 -3 11 -11l170 -150q39 -36 63 -61q54 -72 15 -152q-29 -51 -61 -104q-28 -47 -61 -99q-73 -111 -138 -229l-1 -1v0l7 -3q7 -3 37 -5q28 -1 93 5q29 3 71 9q36 5 91 14l117 23q71 14 153 32q-3 -61 -20 -130z
" />
    <glyph glyph-name="uni0665" unicode="&#x665;" horiz-adv-x="1006" 
d="M621 410q68 77 68 238q0 183 -47 289q-45 104 -101 142q-54 36 -87 23q-66 -33 -119 -176q-53 -145 -53 -290q0 -134 42 -218t143 -84q87 0 154 76zM869 1009q57 -181 57 -381q0 -214 -92 -387q-92 -172 -322 -220q-201 -39 -317 106q-115 145 -105 502q10 200 70 392
q61 194 158 307q86 92 192 93q107 2 189 -93q116 -139 170 -319z" />
    <glyph glyph-name="uni0666" unicode="&#x666;" horiz-adv-x="953" 
d="M810 51q-63 -68 -175 -68q-128 691 -116 1191h-204q-96 0 -166 68q-69 69 -69 165v49h692q0 -131 4 -279q3 -142 10 -302q15 -310 83 -658q4 -98 -59 -166z" />
    <glyph glyph-name="uni0667" unicode="&#x667;" horiz-adv-x="1080" 
d="M766 576q-41 -146 -71 -270q-32 -134 -55 -250q-12 -51 -56 -66q-46 -15 -87 1q-43 18 -55 65q-23 117 -55 252q-31 127 -71 274q-77 284 -213 605q-24 93 24 170t158 102q170 -421 256 -719q86 298 256 719q112 -26 158 -108q48 -82 24 -177q-135 -319 -213 -598z" />
    <glyph glyph-name="uni0668" unicode="&#x668;" horiz-adv-x="1080" 
d="M955 88q-46 -82 -158 -108q-170 421 -256 719q-86 -298 -256 -719q-109 24 -158 101q-48 78 -24 171q136 321 213 605q40 147 71 274q32 135 55 252q12 47 55 65q41 16 87 1q44 -15 56 -66q22 -116 55 -250q30 -124 71 -270q78 -279 213 -598q24 -94 -24 -177z" />
    <glyph glyph-name="uni0669" unicode="&#x669;" horiz-adv-x="972" 
d="M538 1166q-87 -21 -146 -101t-59 -161q0 -42 30 -72q30 -31 72 -31q43 0 73 30t30 73v262zM435 548q-147 0 -251 105q-104 106 -104 251q0 146 79 271q79 126 232 202q152 76 400 76q0 -267 15 -581q15 -317 82 -658q4 -97 -59 -166q-63 -68 -175 -68q-62 328 -88 590
q-44 -22 -131 -22z" />
    <glyph glyph-name="uni066A" unicode="&#x66a;" horiz-adv-x="1310" 
d="M1186 319q24 26 24 57q0 32 -24 57l-96 97q-26 23 -56 23q-31 0 -57 -23l-96 -97q-24 -25 -24 -57q0 -31 24 -57l96 -97q26 -23 57 -23q30 0 56 23zM429 895q24 26 24 57q0 32 -24 57l-96 96q-25 24 -56 24t-57 -24l-96 -96q-24 -25 -24 -57q0 -31 24 -57l96 -97
q26 -23 57 -23q30 0 56 23zM445 91q-25 -47 -72 -64q-48 -16 -96 6l634 1295q25 48 73 64q47 17 96 -6z" />
    <glyph glyph-name="uni066D" unicode="&#x66d;" horiz-adv-x="1319" 
d="M951 504q38 -35 71 0l164 176q33 35 -5 71l-187 175q-37 38 -72 0l-163 -175q-35 -36 5 -71zM325 494q39 -34 72 0l163 176q34 34 -4 71l-188 175q-38 36 -71 0l-164 -175q-33 -36 5 -71zM616 816q38 -34 72 0l163 176q34 34 -5 72l-187 174q-38 38 -71 0l-164 -174
q-33 -37 5 -72zM658 177q38 -35 71 0l164 177q33 35 -5 71l-187 175q-37 36 -72 0l-163 -175q-35 -36 5 -71z" />
    <glyph glyph-name="uni200C" unicode="&#x200c;" horiz-adv-x="28" 
d="M0 0v1035h28v-1035h-28z" />
    <glyph glyph-name="uni200D" unicode="&#x200d;" horiz-adv-x="28" 
d="M83 932l-55 54v-986h-28v985l-53 -53l-19 19l67 68l-67 68l19 19l67 -68l69 68l19 -19l-69 -68l69 -68z" />
    <glyph glyph-name="uni200E" unicode="&#x200e;" horiz-adv-x="28" 
d="M105 932l-20 20l56 54h-113v-1006h-28v1035h138l-53 52l20 20l88 -88z" />
    <glyph glyph-name="uni200F" unicode="&#x200f;" horiz-adv-x="28" 
d="M0 0v1006h-112l55 -54l-20 -20l-87 87l87 88l20 -20l-52 -52h137v-1035h-28z" />
    <glyph glyph-name="endash" unicode="&#x2013;" horiz-adv-x="1024" 
d="M-12 594v90h1048v-90h-1048z" />
    <glyph glyph-name="emdash" unicode="&#x2014;" horiz-adv-x="2048" 
d="M-12 594v90h2072v-90h-2072z" />
    <glyph glyph-name="quoteleft" unicode="&#x2018;" horiz-adv-x="532" 
d="M360 1039q-34 -29 -77 -29q-66 0 -107 53q-37 49 -37 117q0 131 110 229q53 47 118 72l14 -37q-158 -93 -158 -205q0 -43 29 -43q9 0 25 3q17 3 24 3q92 0 92 -92q0 -42 -33 -71z" />
    <glyph glyph-name="quoteright" unicode="&#x2019;" horiz-adv-x="532" 
d="M326 1127q-63 -80 -160 -117l-14 37q157 91 157 204q0 43 -28 43q-8 0 -25 -3q-16 -3 -25 -3q-38 0 -65 27t-27 65q0 45 33 73q32 28 78 28q66 0 106 -54q37 -47 37 -116q0 -101 -67 -184z" />
    <glyph glyph-name="quotesinglbase" unicode="&#x201a;" horiz-adv-x="532" 
d="M326 -57q-63 -80 -160 -117l-14 37q157 91 157 205q0 43 -28 43q-8 0 -25 -3l-25 -4q-39 0 -65 27q-27 27 -27 66q0 44 33 72q32 28 78 28q66 0 106 -54q37 -47 37 -116q0 -101 -67 -184z" />
    <glyph glyph-name="quotedblleft" unicode="&#x201c;" horiz-adv-x="981" 
d="M344 1038q-32 -28 -78 -28q-66 0 -107 53q-36 48 -36 117q0 130 109 229q51 47 118 72l15 -37q-158 -92 -158 -205q0 -43 29 -43q9 0 25 3q17 3 24 3q92 0 92 -92q0 -43 -33 -72zM809 1038q-32 -28 -78 -28q-66 0 -107 53q-36 48 -36 117q0 130 109 229q51 47 118 72
l14 -37q-157 -91 -157 -205q0 -43 28 -43l7 1q4 0 6 1l12 2q16 2 25 2q92 0 92 -92q0 -43 -33 -72z" />
    <glyph glyph-name="quotedblright" unicode="&#x201d;" horiz-adv-x="981" 
d="M326 1127q-63 -80 -160 -117l-14 37q157 91 157 204q0 43 -28 43q-8 0 -25 -3q-16 -3 -25 -3q-38 0 -65 27t-27 65q0 45 33 73q32 28 78 28q66 0 106 -54q37 -47 37 -116q0 -101 -67 -184zM791 1127q-63 -80 -160 -117l-15 37q158 92 158 204q0 43 -29 43q-8 0 -25 -3
q-16 -3 -24 -3q-38 0 -65 27t-27 65q0 45 33 73q32 28 78 28q66 0 106 -54q37 -47 37 -116q0 -101 -67 -184z" />
    <glyph glyph-name="quotedblbase" unicode="&#x201e;" horiz-adv-x="981" 
d="M326 -57q-63 -80 -160 -117l-14 37q157 91 157 205q0 43 -28 43q-8 0 -25 -3l-25 -4q-39 0 -65 27q-27 27 -27 66q0 44 33 72q32 28 78 28q66 0 106 -54q37 -47 37 -116q0 -101 -67 -184zM791 -57q-63 -80 -160 -117l-15 37q158 92 158 205q0 43 -29 43q-7 0 -24 -3
l-25 -4q-39 0 -65 27q-27 27 -27 66q0 44 33 72q32 28 78 28q66 0 106 -54q37 -47 37 -116q0 -101 -67 -184z" />
    <glyph glyph-name="bullet" unicode="&#x2022;" horiz-adv-x="741" 
d="M372 1018q-104 0 -178 -72t-74 -178t73 -179t179 -73q70 0 126 34q123 74 123 218q0 52 -18 98q-62 152 -231 152z" />
    <glyph glyph-name="guilsinglleft" unicode="&#x2039;" horiz-adv-x="538" 
d="M401 201l-301 377l301 376h37l-195 -376l195 -377h-37z" />
    <glyph glyph-name="guilsinglright" unicode="&#x203a;" horiz-adv-x="538" 
d="M137 201h-37l195 377l-195 376h37l301 -376z" />
    <glyph glyph-name="uniE818" unicode="&#xe818;" horiz-adv-x="499" 
d="M388 326q-25 -32 -45 -61q40 -89 43 -118q-4 -5 -13 -9q-9 -3 -16 -3q-19 0 -39 13q-40 18 -45 110l-3 3q-16 -10 -29 -23q-2 -1 -4 -4q0 1 -2 -2l-2 -2l3 -80q0 -16 -11 -36q-12 -19 -42 -19q-37 0 -39 60q0 32 10 65l-4 2q-22 -12 -43 -28q-9 -37 -9 -75q0 -51 16 -84
q20 -35 64 -35q51 0 106 66h4q31 -22 74 -22q46 0 68 63q8 29 6 57v8q0 47 -43 154h-5zM499 515q-20 -80 -74 -102l-425 -177q23 78 77 101zM499 658q-20 -80 -74 -102l-425 -177q23 78 77 101z" />
    <glyph glyph-name="uniFD3E" unicode="&#xfd3e;" horiz-adv-x="1816" 
d="M1016 193v-87h-70v-101l-68 101h-70v98l-159 -226l212 47q0 -61 89 -241q89 -178 156 -258v162l-35 91l-42 121l-15 61l-22 72l202 -39l8 7zM1191 961l-203 -37l59 212l20 54l17 40l20 39v160q-60 -57 -154 -244q-93 -184 -93 -253l-212 46l146 -225h13v98h74l60 101
l4 -101h70v-89l186 194zM1025 596q-52 46 -114 46t-111 -47q-48 -48 -48 -111q0 -60 45 -116l51 -31q30 -11 63 -11q63 0 116 46q49 48 49 112q0 66 -51 112zM1506 544q-81 40 -113 40v178l-232 -175l138 -3v-67q47 0 94 -40l-53 -24l-41 -9v-65h-138l-11 -7l243 -175v175
q26 0 44 7q26 6 69 30q75 38 83 68q0 26 -83 67zM423 766v-182q-20 0 -43 -6q-24 -8 -70 -31q-77 -33 -83 -67q0 -27 78 -71l62 -24l56 -13v-179l235 175l-141 4v68q-44 0 -94 40q32 11 51 24l43 10v64h149zM1592 375l-121 -64v-181q0 -53 -28 -57l-21 9q-12 5 -25 13
l-252 194l-28 15l-31 5q-29 0 -33 -28q0 -20 36 -64l214 -236l13 -40q0 -24 -68 -24l-144 20l-2 -26q0 -111 126 -344q117 -208 202 -313l111 -124q68 -73 81 -105q0 -31 -30 -33q-41 0 -195 131q-161 137 -330 346q-184 239 -259 468l-240 -44h-7q-29 0 -33 31q0 16 20 48
l188 258q22 25 27 59q0 27 -31 33q-32 0 -70 -37l-215 -190q-29 -27 -61 -33q-41 0 -41 78v171q-47 10 -116 61t-79 101q0 46 64 94q20 16 131 75v192q0 36 41 53q22 0 51 -23l238 -209l55 -24q29 0 33 34q0 17 -13 36l-189 267l-24 58q0 27 68 27l212 -35q90 257 287 503
q145 181 322 326q133 111 170 118q38 0 40 -29l-5 -15l-33 -43l-159 -182q-96 -116 -209 -337q-115 -223 -115 -315l2 -26l151 19q32 0 48 -28q0 -19 -37 -68l-206 -236l-13 -33q0 -30 33 -30q23 0 37 13l250 185q27 21 59 31q32 0 32 -44v-183q68 -17 125 -64
q54 -39 70 -107q0 -30 -74 -98z" />
    <glyph glyph-name="uniFD3F" unicode="&#xfd3f;" horiz-adv-x="1816" 
d="M622 -6l202 39l-22 -72l-15 -61l-42 -121l-35 -91v-162q70 82 157 258q88 177 88 241l212 -47l-159 226v-98h-70l-68 -101v101h-70v87l-186 -192zM804 762v89h70l4 101l60 -101h74v-98h13l145 225l-211 -46q0 69 -93 253q-94 187 -154 244v-160l20 -39l17 -40l20 -54
l59 -212l-203 37l-7 -5zM789 372q53 -46 116 -46q33 0 63 11l51 31q45 56 45 116q0 63 -48 111q-49 47 -111 47t-114 -46t-52 -112q0 -64 50 -112zM310 409q44 -24 68 -30q20 -7 45 -7v-175l243 175l-11 7h-138v65l-41 9l-53 24q46 40 94 40v67l138 3l-232 175v-178
q-32 0 -113 -40q-83 -41 -83 -67q8 -30 83 -68zM1299 578v-64l43 -10q20 -13 51 -24q-50 -40 -94 -40v-68l-141 -4l235 -175v179l56 13l62 24q78 44 78 71q-6 34 -83 67q-46 23 -70 31q-22 6 -43 6v182l-243 -188h149zM220 580q57 47 125 64v183q0 44 32 44q30 -10 58 -31
l251 -185q14 -13 37 -13q33 0 33 30l-13 33l-206 236q-37 49 -37 68q16 28 48 28l151 -19l2 26q0 92 -114 315q-115 222 -210 337l-159 182l-33 43l-6 15q2 29 41 29q38 -8 169 -118q178 -144 323 -326q197 -246 287 -503l212 35q68 0 68 -27l-24 -58l-190 -267
q-12 -19 -12 -36q4 -34 33 -34l55 24l238 209q29 23 51 23q41 -17 41 -53v-192q112 -60 130 -75q65 -48 65 -94q-10 -50 -79 -101t-116 -61v-171q0 -78 -41 -78q-32 6 -61 33l-215 190q-38 37 -70 37q-31 -6 -31 -33q5 -34 27 -59l188 -258q20 -32 20 -48q-4 -31 -33 -31
l-20 2l-227 42q-75 -229 -259 -468q-169 -209 -330 -346q-154 -131 -195 -131q-30 2 -30 33q14 32 81 105l111 124q85 105 202 313q126 233 126 344l-2 26l-144 -20q-68 0 -68 24l13 40l214 236q36 44 36 64q-4 28 -33 28l-31 -5l-28 -15l-252 -194q-13 -8 -25 -13l-21 -9
q-28 4 -28 57v181l-121 64q-74 68 -74 98q16 68 70 107z" />
    </font>
</defs>
</svg>
